<svg width="152" height="206" viewBox="0 0 152 206" fill="none" xmlns="http://www.w3.org/2000/svg">
<g filter="url(#filter0_d_0_969)">
<g filter="url(#filter1_d_0_969)">
<path d="M4 10.0001C4 4.47721 8.47715 6.10352e-05 14 6.10352e-05H138C143.523 6.10352e-05 148 4.47721 148 10.0001V188C148 193.523 143.523 198 138 198H14C8.47715 198 4 193.523 4 188V10.0001Z" fill="white"/>
<path d="M4.5 10.0001C4.5 4.75335 8.7533 0.500061 14 0.500061H138C143.247 0.500061 147.5 4.75336 147.5 10.0001V188C147.5 193.247 143.247 197.5 138 197.5H14C8.75329 197.5 4.5 193.247 4.5 188V10.0001Z" stroke="#C5C5C5"/>
</g>
<path d="M15.4786 28.1441H19.3186V17.6321L15.6466 19.9361V16.5281L19.3186 14.2001H22.7506V28.1441H25.8706V31.0001H15.4786V28.1441Z" fill="black"/>
<path d="M33.4259 31.2161C32.4819 31.2161 31.6579 31.0881 30.9539 30.8321C30.2499 30.5761 29.6579 30.1521 29.1779 29.5601C28.7139 28.9681 28.3619 28.2001 28.1219 27.2561C27.8819 26.2961 27.7619 25.1201 27.7619 23.7281V21.3281C27.7619 19.9681 27.8819 18.8241 28.1219 17.8961C28.3619 16.9521 28.7139 16.1921 29.1779 15.6161C29.6579 15.0401 30.2499 14.6241 30.9539 14.3681C31.6579 14.1121 32.4819 13.9841 33.4259 13.9841C34.3699 13.9841 35.1939 14.1121 35.8979 14.3681C36.6019 14.6241 37.1859 15.0401 37.6499 15.6161C38.1299 16.1921 38.4899 16.9521 38.7299 17.8961C38.9699 18.8241 39.0899 19.9681 39.0899 21.3281V23.7281C39.0899 25.1201 38.9699 26.2961 38.7299 27.2561C38.4899 28.2001 38.1299 28.9681 37.6499 29.5601C37.1859 30.1521 36.6019 30.5761 35.8979 30.8321C35.1939 31.0881 34.3699 31.2161 33.4259 31.2161ZM33.4259 28.3361C33.7939 28.3361 34.1139 28.2801 34.3859 28.1681C34.6739 28.0401 34.9059 27.8081 35.0819 27.4721C35.2739 27.1361 35.4179 26.6721 35.5139 26.0801C35.6099 25.4721 35.6579 24.6881 35.6579 23.7281V21.3281C35.6579 20.4001 35.6099 19.6481 35.5139 19.0721C35.4179 18.4801 35.2739 18.0241 35.0819 17.7041C34.9059 17.3681 34.6739 17.1441 34.3859 17.0321C34.1139 16.9041 33.7939 16.8401 33.4259 16.8401C33.0579 16.8401 32.7299 16.9041 32.4419 17.0321C32.1699 17.1441 31.9379 17.3681 31.7459 17.7041C31.5699 18.0241 31.4339 18.4801 31.3379 19.0721C31.2419 19.6481 31.1939 20.4001 31.1939 21.3281V23.7281C31.1939 24.6881 31.2419 25.4721 31.3379 26.0801C31.4339 26.6721 31.5699 27.1361 31.7459 27.4721C31.9379 27.8081 32.1699 28.0401 32.4419 28.1681C32.7299 28.2801 33.0579 28.3361 33.4259 28.3361Z" fill="black"/>
<path d="M136.847 169.856L133.007 169.856L133.007 180.368L136.679 178.064L136.679 181.472L133.007 183.8L129.575 183.8L129.575 169.856L126.455 169.856L126.455 167L136.847 167L136.847 169.856Z" fill="black"/>
<path d="M118.9 166.784C119.844 166.784 120.668 166.912 121.372 167.168C122.076 167.424 122.668 167.848 123.148 168.44C123.612 169.032 123.964 169.8 124.204 170.744C124.444 171.704 124.564 172.88 124.564 174.272L124.564 176.672C124.564 178.032 124.444 179.176 124.204 180.104C123.964 181.048 123.612 181.808 123.148 182.384C122.668 182.96 122.076 183.376 121.372 183.632C120.668 183.888 119.844 184.016 118.9 184.016C117.956 184.016 117.132 183.888 116.428 183.632C115.724 183.376 115.14 182.96 114.676 182.384C114.196 181.808 113.836 181.048 113.596 180.104C113.356 179.176 113.236 178.032 113.236 176.672L113.236 174.272C113.236 172.88 113.356 171.704 113.596 170.744C113.836 169.8 114.196 169.032 114.676 168.44C115.14 167.848 115.724 167.424 116.428 167.168C117.132 166.912 117.956 166.784 118.9 166.784ZM118.9 169.664C118.532 169.664 118.212 169.72 117.94 169.832C117.652 169.96 117.42 170.192 117.244 170.528C117.052 170.864 116.908 171.328 116.812 171.92C116.716 172.528 116.668 173.312 116.668 174.272L116.668 176.672C116.668 177.6 116.716 178.352 116.812 178.928C116.908 179.52 117.052 179.976 117.244 180.296C117.42 180.632 117.652 180.856 117.94 180.968C118.212 181.096 118.532 181.16 118.9 181.16C119.268 181.16 119.596 181.096 119.884 180.968C120.156 180.856 120.388 180.632 120.58 180.296C120.756 179.976 120.892 179.52 120.988 178.928C121.084 178.352 121.132 177.6 121.132 176.672L121.132 174.272C121.132 173.312 121.084 172.528 120.988 171.92C120.892 171.328 120.756 170.864 120.58 170.528C120.388 170.192 120.156 169.96 119.884 169.832C119.596 169.72 119.268 169.664 118.9 169.664Z" fill="black"/>
<path d="M31.4677 59.4897H21.0896C22.6732 58.0012 24.0739 56.4698 25.1395 54.6648C24.4735 55.2505 23.7466 55.7152 22.8812 55.9373C20.8659 56.4518 19.0969 55.9999 17.6918 54.4908C16.3084 53.004 15.9776 51.2273 16.6915 49.3461C17.4123 47.4477 18.8679 46.3622 20.9251 46.1281C21.3516 46.0792 21.4474 46.0141 21.3516 45.5596C20.7744 42.8638 22.4607 40.2357 25.1142 39.6295C27.8766 38.9984 30.5292 40.5556 31.2709 43.2505C31.492 44.0248 31.5025 44.8427 31.3014 45.6222C31.2143 45.9652 31.2422 46.0758 31.6357 46.1144C33.712 46.3185 35.205 47.3791 35.9476 49.2869C36.6902 51.1948 36.3333 52.9971 34.9325 54.5414C33.268 56.3754 30.3002 56.6575 28.2378 55.2067C28.0872 55.1004 27.9183 54.8252 27.7373 55.0052C27.6093 55.133 27.8896 55.2925 27.9854 55.434C28.9073 56.7827 29.9955 57.9823 31.1708 59.1081C31.2831 59.2153 31.4163 59.3019 31.539 59.3988C31.519 59.4288 31.492 59.4588 31.4677 59.4897Z" fill="black"/>
<path d="M120.858 138.51L131.236 138.51C129.653 139.999 128.252 141.53 127.186 143.335C127.852 142.749 128.579 142.285 129.445 142.062C131.46 141.548 133.229 142 134.634 143.509C136.018 144.996 136.348 146.772 135.634 148.654C134.914 150.552 133.458 151.638 131.401 151.872C130.974 151.921 130.879 151.986 130.974 152.44C131.551 155.136 129.865 157.764 127.212 158.37C124.449 159.001 121.797 157.444 121.055 154.749C120.834 153.975 120.823 153.157 121.025 152.378C121.112 152.035 121.084 151.924 120.69 151.885C118.614 151.681 117.121 150.621 116.378 148.713C115.636 146.805 115.993 145.003 117.393 143.458C119.058 141.624 122.026 141.342 124.088 142.793C124.239 142.899 124.408 143.175 124.589 142.995C124.717 142.867 124.436 142.707 124.341 142.566C123.419 141.217 122.33 140.017 121.155 138.892C121.043 138.784 120.91 138.698 120.787 138.601C120.807 138.571 120.834 138.541 120.858 138.51Z" fill="black"/>
</g>
<defs>
<filter id="filter0_d_0_969" x="0" y="6.10352e-05" width="152" height="206" filterUnits="userSpaceOnUse" color-interpolation-filters="sRGB">
<feFlood flood-opacity="0" result="BackgroundImageFix"/>
<feColorMatrix in="SourceAlpha" type="matrix" values="0 0 0 0 0 0 0 0 0 0 0 0 0 0 0 0 0 0 127 0" result="hardAlpha"/>
<feOffset dy="4"/>
<feGaussianBlur stdDeviation="2"/>
<feComposite in2="hardAlpha" operator="out"/>
<feColorMatrix type="matrix" values="0 0 0 0 0 0 0 0 0 0 0 0 0 0 0 0 0 0 0.25 0"/>
<feBlend mode="normal" in2="BackgroundImageFix" result="effect1_dropShadow_0_969"/>
<feBlend mode="normal" in="SourceGraphic" in2="effect1_dropShadow_0_969" result="shape"/>
</filter>
<filter id="filter1_d_0_969" x="0" y="6.10352e-05" width="152" height="206" filterUnits="userSpaceOnUse" color-interpolation-filters="sRGB">
<feFlood flood-opacity="0" result="BackgroundImageFix"/>
<feColorMatrix in="SourceAlpha" type="matrix" values="0 0 0 0 0 0 0 0 0 0 0 0 0 0 0 0 0 0 127 0" result="hardAlpha"/>
<feOffset dy="4"/>
<feGaussianBlur stdDeviation="2"/>
<feComposite in2="hardAlpha" operator="out"/>
<feColorMatrix type="matrix" values="0 0 0 0 0 0 0 0 0 0 0 0 0 0 0 0 0 0 0.25 0"/>
<feBlend mode="normal" in2="BackgroundImageFix" result="effect1_dropShadow_0_969"/>
<feBlend mode="normal" in="SourceGraphic" in2="effect1_dropShadow_0_969" result="shape"/>
</filter>
</defs>
</svg>
