<svg width="152" height="206" viewBox="0 0 152 206" fill="none" xmlns="http://www.w3.org/2000/svg">
<g filter="url(#filter0_d_0_927)">
<g filter="url(#filter1_d_0_927)">
<path d="M4 10.0001C4 4.47721 8.47715 6.10352e-05 14 6.10352e-05H138C143.523 6.10352e-05 148 4.47721 148 10.0001V188C148 193.523 143.523 198 138 198H14C8.47715 198 4 193.523 4 188V10.0001Z" fill="white"/>
<path d="M4.5 10.0001C4.5 4.75335 8.7533 0.500061 14 0.500061H138C143.247 0.500061 147.5 4.75336 147.5 10.0001V188C147.5 193.247 143.247 197.5 138 197.5H14C8.75329 197.5 4.5 193.247 4.5 188V10.0001Z" stroke="#C5C5C5"/>
</g>
<path d="M26.0883 31.2161C25.2243 31.2161 24.4483 31.0961 23.7603 30.8561C23.0723 30.6001 22.4803 30.2561 21.9843 29.8241C21.5043 29.3761 21.1363 28.8641 20.8803 28.2881C20.6243 27.6961 20.4963 27.0641 20.4963 26.3921H23.8563C23.8563 26.9361 24.0563 27.4001 24.4563 27.7841C24.8563 28.1521 25.4003 28.3361 26.0883 28.3361C26.7763 28.3361 27.3203 28.1361 27.7203 27.7361C28.1203 27.3361 28.3203 26.8001 28.3203 26.1281C28.3203 25.3921 28.0963 24.8241 27.6483 24.4241C27.2163 24.0081 26.5363 23.8001 25.6083 23.8001H24.1443V20.9201H25.6083C26.4723 20.9201 27.0963 20.7441 27.4803 20.3921C27.8803 20.0401 28.0803 19.5121 28.0803 18.8081C28.0803 18.2001 27.9043 17.7281 27.5523 17.3921C27.2003 17.0401 26.7123 16.8641 26.0883 16.8641C25.4643 16.8641 24.9763 17.0241 24.6243 17.3441C24.2723 17.6641 24.0963 18.0801 24.0963 18.5921H20.7363C20.7363 17.9681 20.8483 17.3761 21.0723 16.8161C21.3123 16.2561 21.6563 15.7681 22.1043 15.3521C22.5683 14.9201 23.1283 14.5841 23.7843 14.3441C24.4563 14.1041 25.2243 13.9841 26.0883 13.9841C26.9043 13.9841 27.6403 14.1121 28.2963 14.3681C28.9523 14.6081 29.5123 14.9361 29.9763 15.3521C30.4563 15.7681 30.8163 16.2641 31.0563 16.8401C31.3123 17.4161 31.4403 18.0241 31.4403 18.6641C31.4403 19.1441 31.3763 19.5761 31.2483 19.9601C31.1203 20.3441 30.9523 20.6881 30.7443 20.9921C30.5523 21.2801 30.3203 21.5281 30.0483 21.7361C29.7923 21.9441 29.5203 22.1201 29.2323 22.2641C30.0003 22.5841 30.6003 23.0881 31.0323 23.7761C31.4643 24.4481 31.6803 25.2881 31.6803 26.2961C31.6803 27.0001 31.5523 27.6481 31.2963 28.2401C31.0403 28.8321 30.6643 29.3521 30.1683 29.8001C29.6883 30.2481 29.1043 30.6001 28.4163 30.8561C27.7283 31.0961 26.9523 31.2161 26.0883 31.2161Z" fill="black"/>
<path d="M126.238 166.784C127.102 166.784 127.878 166.904 128.566 167.144C129.254 167.4 129.846 167.744 130.342 168.176C130.822 168.624 131.19 169.136 131.446 169.712C131.702 170.304 131.83 170.936 131.83 171.608L128.47 171.608C128.47 171.064 128.27 170.6 127.87 170.216C127.47 169.848 126.926 169.664 126.238 169.664C125.55 169.664 125.006 169.864 124.606 170.264C124.206 170.664 124.006 171.2 124.006 171.872C124.006 172.608 124.23 173.176 124.678 173.576C125.11 173.992 125.79 174.2 126.718 174.2L128.182 174.2L128.182 177.08L126.718 177.08C125.854 177.08 125.23 177.256 124.846 177.608C124.446 177.96 124.246 178.488 124.246 179.192C124.246 179.8 124.422 180.272 124.774 180.608C125.126 180.96 125.614 181.136 126.238 181.136C126.862 181.136 127.35 180.976 127.702 180.656C128.054 180.336 128.23 179.92 128.23 179.408L131.59 179.408C131.59 180.032 131.478 180.624 131.254 181.184C131.014 181.744 130.67 182.232 130.222 182.648C129.758 183.08 129.198 183.416 128.542 183.656C127.87 183.896 127.102 184.016 126.238 184.016C125.422 184.016 124.686 183.888 124.03 183.632C123.374 183.392 122.814 183.064 122.35 182.648C121.87 182.232 121.51 181.736 121.27 181.16C121.014 180.584 120.886 179.976 120.886 179.336C120.886 178.856 120.95 178.424 121.078 178.04C121.206 177.656 121.374 177.312 121.582 177.008C121.774 176.72 122.006 176.472 122.278 176.264C122.534 176.056 122.806 175.88 123.094 175.736C122.326 175.416 121.726 174.912 121.294 174.224C120.862 173.552 120.646 172.712 120.646 171.704C120.646 171 120.774 170.352 121.03 169.76C121.286 169.168 121.662 168.648 122.158 168.2C122.638 167.752 123.222 167.4 123.91 167.144C124.598 166.904 125.374 166.784 126.238 166.784Z" fill="black"/>
<path d="M31.4677 59.4897H21.0896C22.6732 58.0012 24.0739 56.4698 25.1395 54.6648C24.4735 55.2505 23.7466 55.7152 22.8812 55.9373C20.8659 56.4518 19.0969 55.9999 17.6918 54.4908C16.3084 53.004 15.9776 51.2273 16.6915 49.3461C17.4123 47.4477 18.8679 46.3622 20.9251 46.1281C21.3516 46.0792 21.4474 46.0141 21.3516 45.5596C20.7744 42.8638 22.4607 40.2357 25.1142 39.6295C27.8766 38.9984 30.5292 40.5556 31.2709 43.2505C31.492 44.0248 31.5025 44.8427 31.3014 45.6222C31.2143 45.9652 31.2422 46.0758 31.6357 46.1144C33.712 46.3185 35.205 47.3791 35.9476 49.2869C36.6902 51.1948 36.3333 52.9971 34.9325 54.5414C33.268 56.3754 30.3002 56.6575 28.2378 55.2067C28.0872 55.1004 27.9183 54.8252 27.7373 55.0052C27.6093 55.133 27.8896 55.2925 27.9854 55.434C28.9073 56.7827 29.9955 57.9823 31.1708 59.1081C31.2831 59.2153 31.4163 59.3019 31.539 59.3988C31.519 59.4288 31.492 59.4588 31.4677 59.4897Z" fill="black"/>
<path d="M120.858 138.51L131.236 138.51C129.653 139.999 128.252 141.53 127.186 143.335C127.852 142.749 128.579 142.285 129.445 142.062C131.46 141.548 133.229 142 134.634 143.509C136.018 144.996 136.348 146.772 135.634 148.654C134.914 150.552 133.458 151.638 131.401 151.872C130.974 151.921 130.879 151.986 130.974 152.44C131.551 155.136 129.865 157.764 127.212 158.37C124.449 159.001 121.797 157.444 121.055 154.749C120.834 153.975 120.823 153.157 121.025 152.378C121.112 152.035 121.084 151.924 120.69 151.885C118.614 151.681 117.121 150.621 116.378 148.713C115.636 146.805 115.993 145.003 117.393 143.458C119.058 141.624 122.026 141.342 124.088 142.793C124.239 142.899 124.408 143.175 124.589 142.995C124.717 142.867 124.436 142.707 124.341 142.566C123.419 141.217 122.33 140.017 121.155 138.892C121.043 138.784 120.91 138.698 120.787 138.601C120.807 138.571 120.834 138.541 120.858 138.51Z" fill="black"/>
</g>
<defs>
<filter id="filter0_d_0_927" x="0" y="6.10352e-05" width="152" height="206" filterUnits="userSpaceOnUse" color-interpolation-filters="sRGB">
<feFlood flood-opacity="0" result="BackgroundImageFix"/>
<feColorMatrix in="SourceAlpha" type="matrix" values="0 0 0 0 0 0 0 0 0 0 0 0 0 0 0 0 0 0 127 0" result="hardAlpha"/>
<feOffset dy="4"/>
<feGaussianBlur stdDeviation="2"/>
<feComposite in2="hardAlpha" operator="out"/>
<feColorMatrix type="matrix" values="0 0 0 0 0 0 0 0 0 0 0 0 0 0 0 0 0 0 0.25 0"/>
<feBlend mode="normal" in2="BackgroundImageFix" result="effect1_dropShadow_0_927"/>
<feBlend mode="normal" in="SourceGraphic" in2="effect1_dropShadow_0_927" result="shape"/>
</filter>
<filter id="filter1_d_0_927" x="0" y="6.10352e-05" width="152" height="206" filterUnits="userSpaceOnUse" color-interpolation-filters="sRGB">
<feFlood flood-opacity="0" result="BackgroundImageFix"/>
<feColorMatrix in="SourceAlpha" type="matrix" values="0 0 0 0 0 0 0 0 0 0 0 0 0 0 0 0 0 0 127 0" result="hardAlpha"/>
<feOffset dy="4"/>
<feGaussianBlur stdDeviation="2"/>
<feComposite in2="hardAlpha" operator="out"/>
<feColorMatrix type="matrix" values="0 0 0 0 0 0 0 0 0 0 0 0 0 0 0 0 0 0 0.25 0"/>
<feBlend mode="normal" in2="BackgroundImageFix" result="effect1_dropShadow_0_927"/>
<feBlend mode="normal" in="SourceGraphic" in2="effect1_dropShadow_0_927" result="shape"/>
</filter>
</defs>
</svg>
