<svg width="152" height="206" viewBox="0 0 152 206" fill="none" xmlns="http://www.w3.org/2000/svg">
<g filter="url(#filter0_d_0_939)">
<g filter="url(#filter1_d_0_939)">
<path d="M4 10.0001C4 4.47721 8.47715 6.10352e-05 14 6.10352e-05H138C143.523 6.10352e-05 148 4.47721 148 10.0001V188C148 193.523 143.523 198 138 198H14C8.47715 198 4 193.523 4 188V10.0001Z" fill="white"/>
<path d="M4.5 10.0001C4.5 4.75335 8.7533 0.500061 14 0.500061H138C143.247 0.500061 147.5 4.75336 147.5 10.0001V188C147.5 193.247 143.247 197.5 138 197.5H14C8.75329 197.5 4.5 193.247 4.5 188V10.0001Z" stroke="#C5C5C5"/>
</g>
<path d="M26.3523 31.2161C25.5043 31.2161 24.7523 31.1041 24.0963 30.8801C23.4563 30.6401 22.9123 30.3201 22.4643 29.9201C22.0163 29.5041 21.6643 29.0321 21.4083 28.5041C21.1523 27.9761 20.9923 27.4081 20.9283 26.8001H24.3603C24.4723 27.2641 24.6803 27.6401 24.9843 27.9281C25.3043 28.2001 25.7603 28.3361 26.3523 28.3361C26.9443 28.3361 27.4243 28.1041 27.7923 27.6401C28.1763 27.1761 28.3683 26.3601 28.3683 25.1921C28.3683 24.0241 28.1763 23.2081 27.7923 22.7441C27.4243 22.2641 26.9443 22.0241 26.3523 22.0241C25.8723 22.0241 25.4723 22.1841 25.1523 22.5041C24.8323 22.8081 24.5843 23.1681 24.4083 23.5841H21.3843V14.2001H31.0803V17.0561H24.6483V20.2481C24.9043 19.9921 25.2563 19.7521 25.7043 19.5281C26.1523 19.2881 26.6803 19.1681 27.2883 19.1681C27.9443 19.1681 28.5443 19.2881 29.0883 19.5281C29.6483 19.7681 30.1283 20.1361 30.5283 20.6321C30.9283 21.1121 31.2403 21.7361 31.4643 22.5041C31.6883 23.2561 31.8003 24.1521 31.8003 25.1921C31.8003 27.2721 31.3363 28.8001 30.4083 29.7761C29.4963 30.7361 28.1443 31.2161 26.3523 31.2161Z" fill="black"/>
<path d="M125.974 166.784C126.822 166.784 127.574 166.896 128.23 167.12C128.87 167.36 129.414 167.68 129.862 168.08C130.31 168.496 130.662 168.968 130.918 169.496C131.174 170.024 131.334 170.592 131.398 171.2L127.966 171.2C127.854 170.736 127.646 170.36 127.342 170.072C127.022 169.8 126.566 169.664 125.974 169.664C125.382 169.664 124.902 169.896 124.534 170.36C124.15 170.824 123.958 171.64 123.958 172.808C123.958 173.976 124.15 174.792 124.534 175.256C124.902 175.736 125.382 175.976 125.974 175.976C126.454 175.976 126.854 175.816 127.174 175.496C127.494 175.192 127.742 174.832 127.918 174.416L130.942 174.416L130.942 183.8L121.246 183.8L121.246 180.944L127.678 180.944L127.678 177.752C127.422 178.008 127.07 178.248 126.622 178.472C126.174 178.712 125.646 178.832 125.038 178.832C124.382 178.832 123.782 178.712 123.238 178.472C122.678 178.232 122.198 177.864 121.798 177.368C121.398 176.888 121.086 176.264 120.862 175.496C120.638 174.744 120.526 173.848 120.526 172.808C120.526 170.728 120.99 169.2 121.918 168.224C122.83 167.264 124.182 166.784 125.974 166.784Z" fill="black"/>
<path d="M31.4677 59.4897H21.0896C22.6732 58.0012 24.0739 56.4698 25.1395 54.6648C24.4735 55.2505 23.7466 55.7152 22.8812 55.9373C20.8659 56.4518 19.0969 55.9999 17.6918 54.4908C16.3084 53.004 15.9776 51.2273 16.6915 49.3461C17.4123 47.4477 18.8679 46.3622 20.9251 46.1281C21.3516 46.0792 21.4474 46.0141 21.3516 45.5596C20.7744 42.8638 22.4607 40.2357 25.1142 39.6295C27.8766 38.9984 30.5292 40.5556 31.2709 43.2505C31.492 44.0248 31.5025 44.8427 31.3014 45.6222C31.2143 45.9652 31.2422 46.0758 31.6357 46.1144C33.712 46.3185 35.205 47.3791 35.9476 49.2869C36.6902 51.1948 36.3333 52.9971 34.9325 54.5414C33.268 56.3754 30.3002 56.6575 28.2378 55.2067C28.0872 55.1004 27.9183 54.8252 27.7373 55.0052C27.6093 55.133 27.8896 55.2925 27.9854 55.434C28.9073 56.7827 29.9955 57.9823 31.1708 59.1081C31.2831 59.2153 31.4163 59.3019 31.539 59.3988C31.519 59.4288 31.492 59.4588 31.4677 59.4897Z" fill="black"/>
<path d="M120.858 138.51L131.236 138.51C129.653 139.999 128.252 141.53 127.186 143.335C127.852 142.749 128.579 142.285 129.445 142.062C131.46 141.548 133.229 142 134.634 143.509C136.018 144.996 136.348 146.772 135.634 148.654C134.914 150.552 133.458 151.638 131.401 151.872C130.974 151.921 130.879 151.986 130.974 152.44C131.551 155.136 129.865 157.764 127.212 158.37C124.449 159.001 121.797 157.444 121.055 154.749C120.834 153.975 120.823 153.157 121.025 152.378C121.112 152.035 121.084 151.924 120.69 151.885C118.614 151.681 117.121 150.621 116.378 148.713C115.636 146.805 115.993 145.003 117.393 143.458C119.058 141.624 122.026 141.342 124.088 142.793C124.239 142.899 124.408 143.175 124.589 142.995C124.717 142.867 124.436 142.707 124.341 142.566C123.419 141.217 122.33 140.017 121.155 138.892C121.043 138.784 120.91 138.698 120.787 138.601C120.807 138.571 120.834 138.541 120.858 138.51Z" fill="black"/>
</g>
<defs>
<filter id="filter0_d_0_939" x="0" y="6.10352e-05" width="152" height="206" filterUnits="userSpaceOnUse" color-interpolation-filters="sRGB">
<feFlood flood-opacity="0" result="BackgroundImageFix"/>
<feColorMatrix in="SourceAlpha" type="matrix" values="0 0 0 0 0 0 0 0 0 0 0 0 0 0 0 0 0 0 127 0" result="hardAlpha"/>
<feOffset dy="4"/>
<feGaussianBlur stdDeviation="2"/>
<feComposite in2="hardAlpha" operator="out"/>
<feColorMatrix type="matrix" values="0 0 0 0 0 0 0 0 0 0 0 0 0 0 0 0 0 0 0.25 0"/>
<feBlend mode="normal" in2="BackgroundImageFix" result="effect1_dropShadow_0_939"/>
<feBlend mode="normal" in="SourceGraphic" in2="effect1_dropShadow_0_939" result="shape"/>
</filter>
<filter id="filter1_d_0_939" x="0" y="6.10352e-05" width="152" height="206" filterUnits="userSpaceOnUse" color-interpolation-filters="sRGB">
<feFlood flood-opacity="0" result="BackgroundImageFix"/>
<feColorMatrix in="SourceAlpha" type="matrix" values="0 0 0 0 0 0 0 0 0 0 0 0 0 0 0 0 0 0 127 0" result="hardAlpha"/>
<feOffset dy="4"/>
<feGaussianBlur stdDeviation="2"/>
<feComposite in2="hardAlpha" operator="out"/>
<feColorMatrix type="matrix" values="0 0 0 0 0 0 0 0 0 0 0 0 0 0 0 0 0 0 0.25 0"/>
<feBlend mode="normal" in2="BackgroundImageFix" result="effect1_dropShadow_0_939"/>
<feBlend mode="normal" in="SourceGraphic" in2="effect1_dropShadow_0_939" result="shape"/>
</filter>
</defs>
</svg>
