<svg width="152" height="206" viewBox="0 0 152 206" fill="none" xmlns="http://www.w3.org/2000/svg">
<g filter="url(#filter0_d_0_945)">
<g filter="url(#filter1_d_0_945)">
<path d="M4 10.0001C4 4.47721 8.47715 6.10352e-05 14 6.10352e-05H138C143.523 6.10352e-05 148 4.47721 148 10.0001V188C148 193.523 143.523 198 138 198H14C8.47715 198 4 193.523 4 188V10.0001Z" fill="white"/>
<path d="M4.5 10.0001C4.5 4.75335 8.7533 0.500061 14 0.500061H138C143.247 0.500061 147.5 4.75336 147.5 10.0001V188C147.5 193.247 143.247 197.5 138 197.5H14C8.75329 197.5 4.5 193.247 4.5 188V10.0001Z" stroke="#C5C5C5"/>
</g>
<path d="M26.3283 31.2161C24.5523 31.2161 23.1763 30.7281 22.2003 29.7521C21.2243 28.7601 20.7363 27.2801 20.7363 25.3121V20.9681C20.7363 19.7041 20.8483 18.6321 21.0723 17.7521C21.3123 16.8561 21.6643 16.1361 22.1283 15.5921C22.6083 15.0321 23.1923 14.6241 23.8803 14.3681C24.5843 14.1121 25.4003 13.9841 26.3283 13.9841C27.7683 13.9841 28.9363 14.2961 29.8323 14.9201C30.7283 15.5441 31.3283 16.5921 31.6323 18.0641H28.1283C27.9843 17.5841 27.7523 17.2641 27.4323 17.1041C27.1283 16.9281 26.7603 16.8401 26.3283 16.8401C25.9443 16.8401 25.6083 16.8881 25.3203 16.9841C25.0323 17.0801 24.7843 17.2641 24.5763 17.5361C24.3683 17.7921 24.2083 18.1601 24.0963 18.6401C24.0003 19.1041 23.9523 19.7041 23.9523 20.4401V20.9921C24.3043 20.6721 24.7283 20.4241 25.2243 20.2481C25.7363 20.0721 26.3523 19.9841 27.0723 19.9841C27.7603 19.9841 28.4003 20.1041 28.9923 20.3441C29.5843 20.5841 30.0963 20.9361 30.5283 21.4001C30.9603 21.8481 31.2963 22.4001 31.5363 23.0561C31.7923 23.6961 31.9203 24.4161 31.9203 25.2161V25.9841C31.9203 27.6001 31.4243 28.8801 30.4323 29.8241C29.4563 30.7521 28.0883 31.2161 26.3283 31.2161ZM26.3283 28.3361C27.0163 28.3361 27.5443 28.1441 27.9123 27.7601C28.2963 27.3601 28.4883 26.7681 28.4883 25.9841V25.2161C28.4883 24.4161 28.2963 23.8241 27.9123 23.4401C27.5443 23.0401 27.0163 22.8401 26.3283 22.8401C25.6403 22.8401 25.1043 23.0321 24.7203 23.4161C24.3523 23.8001 24.1683 24.3521 24.1683 25.0721V25.9841C24.1683 26.7681 24.3523 27.3601 24.7203 27.7601C25.1043 28.1441 25.6403 28.3361 26.3283 28.3361Z" fill="black"/>
<path d="M125.998 166.784C127.774 166.784 129.15 167.272 130.126 168.248C131.102 169.24 131.59 170.72 131.59 172.688L131.59 177.032C131.59 178.296 131.478 179.368 131.254 180.248C131.014 181.144 130.662 181.864 130.198 182.408C129.718 182.968 129.134 183.376 128.446 183.632C127.742 183.888 126.926 184.016 125.998 184.016C124.558 184.016 123.39 183.704 122.494 183.08C121.598 182.456 120.998 181.408 120.694 179.936L124.198 179.936C124.342 180.416 124.574 180.736 124.894 180.896C125.198 181.072 125.566 181.16 125.998 181.16C126.382 181.16 126.718 181.112 127.006 181.016C127.294 180.92 127.542 180.736 127.75 180.464C127.958 180.208 128.118 179.84 128.23 179.36C128.326 178.896 128.374 178.296 128.374 177.56L128.374 177.008C128.022 177.328 127.598 177.576 127.102 177.752C126.59 177.928 125.974 178.016 125.254 178.016C124.566 178.016 123.926 177.896 123.334 177.656C122.742 177.416 122.23 177.064 121.798 176.6C121.366 176.152 121.03 175.6 120.79 174.944C120.534 174.304 120.406 173.584 120.406 172.784L120.406 172.016C120.406 170.4 120.902 169.12 121.894 168.176C122.87 167.248 124.238 166.784 125.998 166.784ZM125.998 169.664C125.31 169.664 124.782 169.856 124.414 170.24C124.03 170.64 123.838 171.232 123.838 172.016L123.838 172.784C123.838 173.584 124.03 174.176 124.414 174.56C124.782 174.96 125.31 175.16 125.998 175.16C126.686 175.16 127.222 174.968 127.606 174.584C127.974 174.2 128.158 173.648 128.158 172.928L128.158 172.016C128.158 171.232 127.974 170.64 127.606 170.24C127.222 169.856 126.686 169.664 125.998 169.664Z" fill="black"/>
<path d="M31.4677 59.4897H21.0896C22.6732 58.0012 24.0739 56.4698 25.1395 54.6648C24.4735 55.2505 23.7466 55.7152 22.8812 55.9373C20.8659 56.4518 19.0969 55.9999 17.6918 54.4908C16.3084 53.004 15.9776 51.2273 16.6915 49.3461C17.4123 47.4477 18.8679 46.3622 20.9251 46.1281C21.3516 46.0792 21.4474 46.0141 21.3516 45.5596C20.7744 42.8638 22.4607 40.2357 25.1142 39.6295C27.8766 38.9984 30.5292 40.5556 31.2709 43.2505C31.492 44.0248 31.5025 44.8427 31.3014 45.6222C31.2143 45.9652 31.2422 46.0758 31.6357 46.1144C33.712 46.3185 35.205 47.3791 35.9476 49.2869C36.6902 51.1948 36.3333 52.9971 34.9325 54.5414C33.268 56.3754 30.3002 56.6575 28.2378 55.2067C28.0872 55.1004 27.9183 54.8252 27.7373 55.0052C27.6093 55.133 27.8896 55.2925 27.9854 55.434C28.9073 56.7827 29.9955 57.9823 31.1708 59.1081C31.2831 59.2153 31.4163 59.3019 31.539 59.3988C31.519 59.4288 31.492 59.4588 31.4677 59.4897Z" fill="black"/>
<path d="M120.858 138.51L131.236 138.51C129.653 139.999 128.252 141.53 127.186 143.335C127.852 142.749 128.579 142.285 129.445 142.062C131.46 141.548 133.229 142 134.634 143.509C136.018 144.996 136.348 146.772 135.634 148.654C134.914 150.552 133.458 151.638 131.401 151.872C130.974 151.921 130.879 151.986 130.974 152.44C131.551 155.136 129.865 157.764 127.212 158.37C124.449 159.001 121.797 157.444 121.055 154.749C120.834 153.975 120.823 153.157 121.025 152.378C121.112 152.035 121.084 151.924 120.69 151.885C118.614 151.681 117.121 150.621 116.378 148.713C115.636 146.805 115.993 145.003 117.393 143.458C119.058 141.624 122.026 141.342 124.088 142.793C124.239 142.899 124.408 143.175 124.589 142.995C124.717 142.867 124.436 142.707 124.341 142.566C123.419 141.217 122.33 140.017 121.155 138.892C121.043 138.784 120.91 138.698 120.787 138.601C120.807 138.571 120.834 138.541 120.858 138.51Z" fill="black"/>
</g>
<defs>
<filter id="filter0_d_0_945" x="0" y="6.10352e-05" width="152" height="206" filterUnits="userSpaceOnUse" color-interpolation-filters="sRGB">
<feFlood flood-opacity="0" result="BackgroundImageFix"/>
<feColorMatrix in="SourceAlpha" type="matrix" values="0 0 0 0 0 0 0 0 0 0 0 0 0 0 0 0 0 0 127 0" result="hardAlpha"/>
<feOffset dy="4"/>
<feGaussianBlur stdDeviation="2"/>
<feComposite in2="hardAlpha" operator="out"/>
<feColorMatrix type="matrix" values="0 0 0 0 0 0 0 0 0 0 0 0 0 0 0 0 0 0 0.25 0"/>
<feBlend mode="normal" in2="BackgroundImageFix" result="effect1_dropShadow_0_945"/>
<feBlend mode="normal" in="SourceGraphic" in2="effect1_dropShadow_0_945" result="shape"/>
</filter>
<filter id="filter1_d_0_945" x="0" y="6.10352e-05" width="152" height="206" filterUnits="userSpaceOnUse" color-interpolation-filters="sRGB">
<feFlood flood-opacity="0" result="BackgroundImageFix"/>
<feColorMatrix in="SourceAlpha" type="matrix" values="0 0 0 0 0 0 0 0 0 0 0 0 0 0 0 0 0 0 127 0" result="hardAlpha"/>
<feOffset dy="4"/>
<feGaussianBlur stdDeviation="2"/>
<feComposite in2="hardAlpha" operator="out"/>
<feColorMatrix type="matrix" values="0 0 0 0 0 0 0 0 0 0 0 0 0 0 0 0 0 0 0.25 0"/>
<feBlend mode="normal" in2="BackgroundImageFix" result="effect1_dropShadow_0_945"/>
<feBlend mode="normal" in="SourceGraphic" in2="effect1_dropShadow_0_945" result="shape"/>
</filter>
</defs>
</svg>
