<svg width="152" height="206" viewBox="0 0 152 206" fill="none" xmlns="http://www.w3.org/2000/svg">
<g filter="url(#filter0_d_0_951)">
<g filter="url(#filter1_d_0_951)">
<path d="M4 10.0001C4 4.47721 8.47715 6.10352e-05 14 6.10352e-05H138C143.523 6.10352e-05 148 4.47721 148 10.0001V188C148 193.523 143.523 198 138 198H14C8.47715 198 4 193.523 4 188V10.0001Z" fill="white"/>
<path d="M4.5 10.0001C4.5 4.75335 8.7533 0.500061 14 0.500061H138C143.247 0.500061 147.5 4.75336 147.5 10.0001V188C147.5 193.247 143.247 197.5 138 197.5H14C8.75329 197.5 4.5 193.247 4.5 188V10.0001Z" stroke="#C5C5C5"/>
</g>
<path d="M28.3443 17.0561H20.9523V14.2001H31.7043V16.6481L26.6163 31.0001H23.1363L28.3443 17.0561Z" fill="black"/>
<path d="M123.982 180.944L131.374 180.944L131.374 183.8L120.622 183.8L120.622 181.352L125.71 167L129.19 167L123.982 180.944Z" fill="black"/>
<path d="M31.4677 59.4897H21.0896C22.6732 58.0012 24.0739 56.4698 25.1395 54.6648C24.4735 55.2505 23.7466 55.7152 22.8812 55.9373C20.8659 56.4518 19.0969 55.9999 17.6918 54.4908C16.3084 53.004 15.9776 51.2273 16.6915 49.3461C17.4123 47.4477 18.8679 46.3622 20.9251 46.1281C21.3516 46.0792 21.4474 46.0141 21.3516 45.5596C20.7744 42.8638 22.4607 40.2357 25.1142 39.6295C27.8766 38.9984 30.5292 40.5556 31.2709 43.2505C31.492 44.0248 31.5025 44.8427 31.3014 45.6222C31.2143 45.9652 31.2422 46.0758 31.6357 46.1144C33.712 46.3185 35.205 47.3791 35.9476 49.2869C36.6902 51.1948 36.3333 52.9971 34.9325 54.5414C33.268 56.3754 30.3002 56.6575 28.2378 55.2067C28.0872 55.1004 27.9183 54.8252 27.7373 55.0052C27.6093 55.133 27.8896 55.2925 27.9854 55.434C28.9073 56.7827 29.9955 57.9823 31.1708 59.1081C31.2831 59.2153 31.4163 59.3019 31.539 59.3988C31.519 59.4288 31.492 59.4588 31.4677 59.4897Z" fill="black"/>
<path d="M120.858 138.51L131.236 138.51C129.653 139.999 128.252 141.53 127.186 143.335C127.852 142.749 128.579 142.285 129.445 142.062C131.46 141.548 133.229 142 134.634 143.509C136.018 144.996 136.348 146.772 135.634 148.654C134.914 150.552 133.458 151.638 131.401 151.872C130.974 151.921 130.879 151.986 130.974 152.44C131.551 155.136 129.865 157.764 127.212 158.37C124.449 159.001 121.797 157.444 121.055 154.749C120.834 153.975 120.823 153.157 121.025 152.378C121.112 152.035 121.084 151.924 120.69 151.885C118.614 151.681 117.121 150.621 116.378 148.713C115.636 146.805 115.993 145.003 117.393 143.458C119.058 141.624 122.026 141.342 124.088 142.793C124.239 142.899 124.408 143.175 124.589 142.995C124.717 142.867 124.436 142.707 124.341 142.566C123.419 141.217 122.33 140.017 121.155 138.892C121.043 138.784 120.91 138.698 120.787 138.601C120.807 138.571 120.834 138.541 120.858 138.51Z" fill="black"/>
</g>
<defs>
<filter id="filter0_d_0_951" x="0" y="6.10352e-05" width="152" height="206" filterUnits="userSpaceOnUse" color-interpolation-filters="sRGB">
<feFlood flood-opacity="0" result="BackgroundImageFix"/>
<feColorMatrix in="SourceAlpha" type="matrix" values="0 0 0 0 0 0 0 0 0 0 0 0 0 0 0 0 0 0 127 0" result="hardAlpha"/>
<feOffset dy="4"/>
<feGaussianBlur stdDeviation="2"/>
<feComposite in2="hardAlpha" operator="out"/>
<feColorMatrix type="matrix" values="0 0 0 0 0 0 0 0 0 0 0 0 0 0 0 0 0 0 0.25 0"/>
<feBlend mode="normal" in2="BackgroundImageFix" result="effect1_dropShadow_0_951"/>
<feBlend mode="normal" in="SourceGraphic" in2="effect1_dropShadow_0_951" result="shape"/>
</filter>
<filter id="filter1_d_0_951" x="0" y="6.10352e-05" width="152" height="206" filterUnits="userSpaceOnUse" color-interpolation-filters="sRGB">
<feFlood flood-opacity="0" result="BackgroundImageFix"/>
<feColorMatrix in="SourceAlpha" type="matrix" values="0 0 0 0 0 0 0 0 0 0 0 0 0 0 0 0 0 0 127 0" result="hardAlpha"/>
<feOffset dy="4"/>
<feGaussianBlur stdDeviation="2"/>
<feComposite in2="hardAlpha" operator="out"/>
<feColorMatrix type="matrix" values="0 0 0 0 0 0 0 0 0 0 0 0 0 0 0 0 0 0 0.25 0"/>
<feBlend mode="normal" in2="BackgroundImageFix" result="effect1_dropShadow_0_951"/>
<feBlend mode="normal" in="SourceGraphic" in2="effect1_dropShadow_0_951" result="shape"/>
</filter>
</defs>
</svg>
