<svg width="152" height="206" viewBox="0 0 152 206" fill="none" xmlns="http://www.w3.org/2000/svg">
<g filter="url(#filter0_d_0_957)">
<g filter="url(#filter1_d_0_957)">
<path d="M4 10.0001C4 4.47721 8.47715 6.10352e-05 14 6.10352e-05H138C143.523 6.10352e-05 148 4.47721 148 10.0001V188C148 193.523 143.523 198 138 198H14C8.47715 198 4 193.523 4 188V10.0001Z" fill="white"/>
<path d="M4.5 10.0001C4.5 4.75335 8.7533 0.500061 14 0.500061H138C143.247 0.500061 147.5 4.75336 147.5 10.0001V188C147.5 193.247 143.247 197.5 138 197.5H14C8.75329 197.5 4.5 193.247 4.5 188V10.0001Z" stroke="#C5C5C5"/>
</g>
<path d="M26.3283 31.2161C25.4163 31.2161 24.6083 31.0961 23.9043 30.8561C23.2003 30.6161 22.6083 30.2881 22.1283 29.8721C21.6483 29.4401 21.2803 28.9361 21.0243 28.3601C20.7843 27.7681 20.6643 27.1361 20.6643 26.4641C20.6643 25.5041 20.8803 24.6961 21.3123 24.0401C21.7603 23.3681 22.3683 22.8081 23.1363 22.3601C22.5283 21.9921 22.0243 21.4881 21.6243 20.8481C21.2403 20.1921 21.0483 19.4321 21.0483 18.5681C21.0483 17.9281 21.1683 17.3361 21.4083 16.7921C21.6643 16.2321 22.0163 15.7441 22.4643 15.3281C22.9283 14.9121 23.4803 14.5841 24.1203 14.3441C24.7763 14.1041 25.5123 13.9841 26.3283 13.9841C27.1443 13.9841 27.8723 14.1041 28.5123 14.3441C29.1683 14.5841 29.7203 14.9121 30.1683 15.3281C30.6323 15.7441 30.9843 16.2321 31.2243 16.7921C31.4803 17.3361 31.6083 17.9281 31.6083 18.5681C31.6083 19.4321 31.4083 20.1921 31.0083 20.8481C30.6243 21.4881 30.1283 21.9921 29.5203 22.3601C30.2883 22.8081 30.8883 23.3681 31.3203 24.0401C31.7683 24.6961 31.9923 25.5041 31.9923 26.4641C31.9923 27.1361 31.8643 27.7681 31.6083 28.3601C31.3683 28.9361 31.0083 29.4401 30.5283 29.8721C30.0483 30.2881 29.4563 30.6161 28.7523 30.8561C28.0483 31.0961 27.2403 31.2161 26.3283 31.2161ZM26.3283 28.4321C27.0483 28.4321 27.6243 28.2241 28.0563 27.8081C28.5043 27.3761 28.7283 26.8721 28.7283 26.2961C28.7283 25.5761 28.5043 24.9681 28.0563 24.4721C27.6083 23.9761 27.0323 23.6641 26.3283 23.5361C25.6243 23.6641 25.0483 23.9761 24.6003 24.4721C24.1523 24.9681 23.9283 25.5761 23.9283 26.2961C23.9283 26.8721 24.1443 27.3761 24.5763 27.8081C25.0243 28.2241 25.6083 28.4321 26.3283 28.4321ZM26.3283 16.7681C25.7203 16.7681 25.2323 16.9521 24.8643 17.3201C24.4963 17.6721 24.3123 18.1441 24.3123 18.7361C24.3123 19.0721 24.3683 19.3761 24.4803 19.6481C24.6083 19.9201 24.7683 20.1601 24.9603 20.3681C25.1523 20.5761 25.3683 20.7521 25.6083 20.8961C25.8483 21.0241 26.0883 21.1201 26.3283 21.1841C26.5683 21.1201 26.8083 21.0241 27.0483 20.8961C27.2883 20.7521 27.5043 20.5761 27.6963 20.3681C27.8883 20.1601 28.0403 19.9201 28.1523 19.6481C28.2803 19.3761 28.3443 19.0721 28.3443 18.7361C28.3443 18.1441 28.1603 17.6721 27.7923 17.3201C27.4243 16.9521 26.9363 16.7681 26.3283 16.7681Z" fill="black"/>
<path d="M125.998 166.784C126.91 166.784 127.718 166.904 128.422 167.144C129.126 167.384 129.718 167.712 130.198 168.128C130.678 168.56 131.046 169.064 131.302 169.64C131.542 170.232 131.662 170.864 131.662 171.536C131.662 172.496 131.446 173.304 131.014 173.96C130.566 174.632 129.958 175.192 129.19 175.64C129.798 176.008 130.302 176.512 130.702 177.152C131.086 177.808 131.278 178.568 131.278 179.432C131.278 180.072 131.158 180.664 130.918 181.208C130.662 181.768 130.31 182.256 129.862 182.672C129.398 183.088 128.846 183.416 128.206 183.656C127.55 183.896 126.814 184.016 125.998 184.016C125.182 184.016 124.454 183.896 123.814 183.656C123.158 183.416 122.606 183.088 122.158 182.672C121.694 182.256 121.342 181.768 121.102 181.208C120.846 180.664 120.718 180.072 120.718 179.432C120.718 178.568 120.918 177.808 121.318 177.152C121.702 176.512 122.198 176.008 122.806 175.64C122.038 175.192 121.438 174.632 121.006 173.96C120.558 173.304 120.334 172.496 120.334 171.536C120.334 170.864 120.462 170.232 120.718 169.64C120.958 169.064 121.318 168.56 121.798 168.128C122.278 167.712 122.87 167.384 123.574 167.144C124.278 166.904 125.086 166.784 125.998 166.784ZM125.998 169.568C125.278 169.568 124.702 169.776 124.27 170.192C123.822 170.624 123.598 171.128 123.598 171.704C123.598 172.424 123.822 173.032 124.27 173.528C124.718 174.024 125.294 174.336 125.998 174.464C126.702 174.336 127.278 174.024 127.726 173.528C128.174 173.032 128.398 172.424 128.398 171.704C128.398 171.128 128.182 170.624 127.75 170.192C127.302 169.776 126.718 169.568 125.998 169.568ZM125.998 181.232C126.606 181.232 127.094 181.048 127.462 180.68C127.83 180.328 128.014 179.856 128.014 179.264C128.014 178.928 127.958 178.624 127.846 178.352C127.718 178.08 127.558 177.84 127.366 177.632C127.174 177.424 126.958 177.248 126.718 177.104C126.478 176.976 126.238 176.88 125.998 176.816C125.758 176.88 125.518 176.976 125.278 177.104C125.038 177.248 124.822 177.424 124.63 177.632C124.438 177.84 124.286 178.08 124.174 178.352C124.046 178.624 123.982 178.928 123.982 179.264C123.982 179.856 124.166 180.328 124.534 180.68C124.902 181.048 125.39 181.232 125.998 181.232Z" fill="black"/>
<path d="M31.4677 59.4897H21.0896C22.6732 58.0012 24.0739 56.4698 25.1395 54.6648C24.4735 55.2505 23.7466 55.7152 22.8812 55.9373C20.8659 56.4518 19.0969 55.9999 17.6918 54.4908C16.3084 53.004 15.9776 51.2273 16.6915 49.3461C17.4123 47.4477 18.8679 46.3622 20.9251 46.1281C21.3516 46.0792 21.4474 46.0141 21.3516 45.5596C20.7744 42.8638 22.4607 40.2357 25.1142 39.6295C27.8766 38.9984 30.5292 40.5556 31.2709 43.2505C31.492 44.0248 31.5025 44.8427 31.3014 45.6222C31.2143 45.9652 31.2422 46.0758 31.6357 46.1144C33.712 46.3185 35.205 47.3791 35.9476 49.2869C36.6902 51.1948 36.3333 52.9971 34.9325 54.5414C33.268 56.3754 30.3002 56.6575 28.2378 55.2067C28.0872 55.1004 27.9183 54.8252 27.7373 55.0052C27.6093 55.133 27.8896 55.2925 27.9854 55.434C28.9073 56.7827 29.9955 57.9823 31.1708 59.1081C31.2831 59.2153 31.4163 59.3019 31.539 59.3988C31.519 59.4288 31.492 59.4588 31.4677 59.4897Z" fill="black"/>
<path d="M120.858 138.51L131.236 138.51C129.653 139.999 128.252 141.53 127.186 143.335C127.852 142.749 128.579 142.285 129.445 142.062C131.46 141.548 133.229 142 134.634 143.509C136.018 144.996 136.348 146.772 135.634 148.654C134.914 150.552 133.458 151.638 131.401 151.872C130.974 151.921 130.879 151.986 130.974 152.44C131.551 155.136 129.865 157.764 127.212 158.37C124.449 159.001 121.797 157.444 121.055 154.749C120.834 153.975 120.823 153.157 121.025 152.378C121.112 152.035 121.084 151.924 120.69 151.885C118.614 151.681 117.121 150.621 116.378 148.713C115.636 146.805 115.993 145.003 117.393 143.458C119.058 141.624 122.026 141.342 124.088 142.793C124.239 142.899 124.408 143.175 124.589 142.995C124.717 142.867 124.436 142.707 124.341 142.566C123.419 141.217 122.33 140.017 121.155 138.892C121.043 138.784 120.91 138.698 120.787 138.601C120.807 138.571 120.834 138.541 120.858 138.51Z" fill="black"/>
</g>
<defs>
<filter id="filter0_d_0_957" x="0" y="6.10352e-05" width="152" height="206" filterUnits="userSpaceOnUse" color-interpolation-filters="sRGB">
<feFlood flood-opacity="0" result="BackgroundImageFix"/>
<feColorMatrix in="SourceAlpha" type="matrix" values="0 0 0 0 0 0 0 0 0 0 0 0 0 0 0 0 0 0 127 0" result="hardAlpha"/>
<feOffset dy="4"/>
<feGaussianBlur stdDeviation="2"/>
<feComposite in2="hardAlpha" operator="out"/>
<feColorMatrix type="matrix" values="0 0 0 0 0 0 0 0 0 0 0 0 0 0 0 0 0 0 0.25 0"/>
<feBlend mode="normal" in2="BackgroundImageFix" result="effect1_dropShadow_0_957"/>
<feBlend mode="normal" in="SourceGraphic" in2="effect1_dropShadow_0_957" result="shape"/>
</filter>
<filter id="filter1_d_0_957" x="0" y="6.10352e-05" width="152" height="206" filterUnits="userSpaceOnUse" color-interpolation-filters="sRGB">
<feFlood flood-opacity="0" result="BackgroundImageFix"/>
<feColorMatrix in="SourceAlpha" type="matrix" values="0 0 0 0 0 0 0 0 0 0 0 0 0 0 0 0 0 0 127 0" result="hardAlpha"/>
<feOffset dy="4"/>
<feGaussianBlur stdDeviation="2"/>
<feComposite in2="hardAlpha" operator="out"/>
<feColorMatrix type="matrix" values="0 0 0 0 0 0 0 0 0 0 0 0 0 0 0 0 0 0 0.25 0"/>
<feBlend mode="normal" in2="BackgroundImageFix" result="effect1_dropShadow_0_957"/>
<feBlend mode="normal" in="SourceGraphic" in2="effect1_dropShadow_0_957" result="shape"/>
</filter>
</defs>
</svg>
