<svg width="152" height="206" viewBox="0 0 152 206" fill="none" xmlns="http://www.w3.org/2000/svg">
<g filter="url(#filter0_d_0_963)">
<g filter="url(#filter1_d_0_963)">
<path d="M4 10.0001C4 4.47721 8.47715 6.10352e-05 14 6.10352e-05H138C143.523 6.10352e-05 148 4.47721 148 10.0001V188C148 193.523 143.523 198 138 198H14C8.47715 198 4 193.523 4 188V10.0001Z" fill="white"/>
<path d="M4.5 10.0001C4.5 4.75335 8.7533 0.500061 14 0.500061H138C143.247 0.500061 147.5 4.75336 147.5 10.0001V188C147.5 193.247 143.247 197.5 138 197.5H14C8.75329 197.5 4.5 193.247 4.5 188V10.0001Z" stroke="#C5C5C5"/>
</g>
<path d="M26.3283 31.2161C24.8883 31.2161 23.7203 30.9041 22.8243 30.2801C21.9283 29.6561 21.3283 28.6081 21.0243 27.1361H24.5283C24.6723 27.6161 24.8963 27.9441 25.2003 28.1201C25.5203 28.2801 25.8963 28.3601 26.3283 28.3601C26.7123 28.3601 27.0483 28.3121 27.3363 28.2161C27.6243 28.1201 27.8723 27.9441 28.0803 27.6881C28.2883 27.4161 28.4403 27.0481 28.5363 26.5841C28.6483 26.1041 28.7043 25.4961 28.7043 24.7601V24.2081C28.3523 24.5281 27.9203 24.7761 27.4083 24.9521C26.9123 25.1281 26.3043 25.2161 25.5843 25.2161C24.8963 25.2161 24.2563 25.0961 23.6643 24.8561C23.0723 24.6161 22.5603 24.2721 22.1283 23.8241C21.6963 23.3601 21.3523 22.8081 21.0963 22.1681C20.8563 21.5121 20.7363 20.7841 20.7363 19.9841V19.2161C20.7363 17.6001 21.2243 16.3281 22.2003 15.4001C23.1923 14.4561 24.5683 13.9841 26.3283 13.9841C28.1043 13.9841 29.4803 14.4801 30.4563 15.4721C31.4323 16.4481 31.9203 17.9201 31.9203 19.8881V24.2321C31.9203 25.4961 31.8003 26.5761 31.5603 27.4721C31.3203 28.3521 30.9683 29.0721 30.5043 29.6321C30.0403 30.1761 29.4563 30.5761 28.7523 30.8321C28.0643 31.0881 27.2563 31.2161 26.3283 31.2161ZM26.3283 22.3601C27.0163 22.3601 27.5443 22.1681 27.9123 21.7841C28.2963 21.4001 28.4883 20.8481 28.4883 20.1281V19.2161C28.4883 18.4321 28.2963 17.8481 27.9123 17.4641C27.5443 17.0641 27.0163 16.8641 26.3283 16.8641C25.6403 16.8641 25.1043 17.0641 24.7203 17.4641C24.3523 17.8481 24.1683 18.4321 24.1683 19.2161V19.9841C24.1683 20.7841 24.3523 21.3841 24.7203 21.7841C25.1043 22.1681 25.6403 22.3601 26.3283 22.3601Z" fill="black"/>
<path d="M125.998 166.784C127.438 166.784 128.606 167.096 129.502 167.72C130.398 168.344 130.998 169.392 131.302 170.864L127.798 170.864C127.654 170.384 127.43 170.056 127.126 169.88C126.806 169.72 126.43 169.64 125.998 169.64C125.614 169.64 125.278 169.688 124.99 169.784C124.702 169.88 124.454 170.056 124.246 170.312C124.038 170.584 123.886 170.952 123.79 171.416C123.678 171.896 123.622 172.504 123.622 173.24L123.622 173.792C123.974 173.472 124.406 173.224 124.918 173.048C125.414 172.872 126.022 172.784 126.742 172.784C127.43 172.784 128.07 172.904 128.662 173.144C129.254 173.384 129.766 173.728 130.198 174.176C130.63 174.64 130.974 175.192 131.23 175.832C131.47 176.488 131.59 177.216 131.59 178.016L131.59 178.784C131.59 180.4 131.102 181.672 130.126 182.6C129.134 183.544 127.758 184.016 125.998 184.016C124.222 184.016 122.846 183.52 121.87 182.528C120.894 181.552 120.406 180.08 120.406 178.112L120.406 173.768C120.406 172.504 120.526 171.424 120.766 170.528C121.006 169.648 121.358 168.928 121.822 168.368C122.286 167.824 122.87 167.424 123.574 167.168C124.262 166.912 125.07 166.784 125.998 166.784ZM125.998 175.64C125.31 175.64 124.782 175.832 124.414 176.216C124.03 176.6 123.838 177.152 123.838 177.872L123.838 178.784C123.838 179.568 124.03 180.152 124.414 180.536C124.782 180.936 125.31 181.136 125.998 181.136C126.686 181.136 127.222 180.936 127.606 180.536C127.974 180.152 128.158 179.568 128.158 178.784L128.158 178.016C128.158 177.216 127.974 176.616 127.606 176.216C127.222 175.832 126.686 175.64 125.998 175.64Z" fill="black"/>
<path d="M31.4677 59.4897H21.0896C22.6732 58.0012 24.0739 56.4698 25.1395 54.6648C24.4735 55.2505 23.7466 55.7152 22.8812 55.9373C20.8659 56.4518 19.0969 55.9999 17.6918 54.4908C16.3084 53.004 15.9776 51.2273 16.6915 49.3461C17.4123 47.4477 18.8679 46.3622 20.9251 46.1281C21.3516 46.0792 21.4474 46.0141 21.3516 45.5596C20.7744 42.8638 22.4607 40.2357 25.1142 39.6295C27.8766 38.9984 30.5292 40.5556 31.2709 43.2505C31.492 44.0248 31.5025 44.8427 31.3014 45.6222C31.2143 45.9652 31.2422 46.0758 31.6357 46.1144C33.712 46.3185 35.205 47.3791 35.9476 49.2869C36.6902 51.1948 36.3333 52.9971 34.9325 54.5414C33.268 56.3754 30.3002 56.6575 28.2378 55.2067C28.0872 55.1004 27.9183 54.8252 27.7373 55.0052C27.6093 55.133 27.8896 55.2925 27.9854 55.434C28.9073 56.7827 29.9955 57.9823 31.1708 59.1081C31.2831 59.2153 31.4163 59.3019 31.539 59.3988C31.519 59.4288 31.492 59.4588 31.4677 59.4897Z" fill="black"/>
<path d="M120.858 138.51L131.236 138.51C129.653 139.999 128.252 141.53 127.186 143.335C127.852 142.749 128.579 142.285 129.445 142.062C131.46 141.548 133.229 142 134.634 143.509C136.018 144.996 136.348 146.772 135.634 148.654C134.914 150.552 133.458 151.638 131.401 151.872C130.974 151.921 130.879 151.986 130.974 152.44C131.551 155.136 129.865 157.764 127.212 158.37C124.449 159.001 121.797 157.444 121.055 154.749C120.834 153.975 120.823 153.157 121.025 152.378C121.112 152.035 121.084 151.924 120.69 151.885C118.614 151.681 117.121 150.621 116.378 148.713C115.636 146.805 115.993 145.003 117.393 143.458C119.058 141.624 122.026 141.342 124.088 142.793C124.239 142.899 124.408 143.175 124.589 142.995C124.717 142.867 124.436 142.707 124.341 142.566C123.419 141.217 122.33 140.017 121.155 138.892C121.043 138.784 120.91 138.698 120.787 138.601C120.807 138.571 120.834 138.541 120.858 138.51Z" fill="black"/>
</g>
<defs>
<filter id="filter0_d_0_963" x="0" y="6.10352e-05" width="152" height="206" filterUnits="userSpaceOnUse" color-interpolation-filters="sRGB">
<feFlood flood-opacity="0" result="BackgroundImageFix"/>
<feColorMatrix in="SourceAlpha" type="matrix" values="0 0 0 0 0 0 0 0 0 0 0 0 0 0 0 0 0 0 127 0" result="hardAlpha"/>
<feOffset dy="4"/>
<feGaussianBlur stdDeviation="2"/>
<feComposite in2="hardAlpha" operator="out"/>
<feColorMatrix type="matrix" values="0 0 0 0 0 0 0 0 0 0 0 0 0 0 0 0 0 0 0.25 0"/>
<feBlend mode="normal" in2="BackgroundImageFix" result="effect1_dropShadow_0_963"/>
<feBlend mode="normal" in="SourceGraphic" in2="effect1_dropShadow_0_963" result="shape"/>
</filter>
<filter id="filter1_d_0_963" x="0" y="6.10352e-05" width="152" height="206" filterUnits="userSpaceOnUse" color-interpolation-filters="sRGB">
<feFlood flood-opacity="0" result="BackgroundImageFix"/>
<feColorMatrix in="SourceAlpha" type="matrix" values="0 0 0 0 0 0 0 0 0 0 0 0 0 0 0 0 0 0 127 0" result="hardAlpha"/>
<feOffset dy="4"/>
<feGaussianBlur stdDeviation="2"/>
<feComposite in2="hardAlpha" operator="out"/>
<feColorMatrix type="matrix" values="0 0 0 0 0 0 0 0 0 0 0 0 0 0 0 0 0 0 0.25 0"/>
<feBlend mode="normal" in2="BackgroundImageFix" result="effect1_dropShadow_0_963"/>
<feBlend mode="normal" in="SourceGraphic" in2="effect1_dropShadow_0_963" result="shape"/>
</filter>
</defs>
</svg>
