<svg width="152" height="206" viewBox="0 0 152 206" fill="none" xmlns="http://www.w3.org/2000/svg">
<g filter="url(#filter0_d_0_981)">
<g filter="url(#filter1_d_0_981)">
<path d="M4 10.0001C4 4.47721 8.47715 6.10352e-05 14 6.10352e-05H138C143.523 6.10352e-05 148 4.47721 148 10.0001V188C148 193.523 143.523 198 138 198H14C8.47715 198 4 193.523 4 188V10.0001Z" fill="white"/>
<path d="M4.5 10.0001C4.5 4.75335 8.7533 0.500061 14 0.500061H138C143.247 0.500061 147.5 4.75336 147.5 10.0001V188C147.5 193.247 143.247 197.5 138 197.5H14C8.75329 197.5 4.5 193.247 4.5 188V10.0001Z" stroke="#C5C5C5"/>
</g>
<path d="M30.3309 30.3041C29.8349 30.6241 29.2829 30.8561 28.6749 31.0001C28.0669 31.1441 27.4109 31.2161 26.7069 31.2161C24.6429 31.2161 23.0109 30.5761 21.8109 29.2961C20.6269 28.0001 20.0349 26.0161 20.0349 23.3441V21.4241C20.0349 18.9761 20.6269 17.1281 21.8109 15.8801C23.0109 14.6161 24.6429 13.9841 26.7069 13.9841C28.7709 13.9841 30.3949 14.6161 31.5789 15.8801C32.7789 17.1281 33.3789 18.9761 33.3789 21.4241V23.3441C33.3789 24.4161 33.2749 25.3761 33.0669 26.2241C32.8749 27.0561 32.5949 27.7841 32.2269 28.4081L33.8109 30.0161L31.9389 31.8881L30.3309 30.3041ZM26.7069 28.2641C26.9469 28.2641 27.1709 28.2401 27.3789 28.1921C27.6029 28.1441 27.8029 28.0641 27.9789 27.9521L26.2749 26.2241L28.1709 24.3521L29.6349 25.8401C29.8429 25.2001 29.9469 24.3681 29.9469 23.3441V21.4241C29.9469 19.8081 29.6589 18.6561 29.0829 17.9681C28.5069 17.2801 27.7149 16.9361 26.7069 16.9361C25.6989 16.9361 24.9069 17.2801 24.3309 17.9681C23.7549 18.6561 23.4669 19.8081 23.4669 21.4241V23.3441C23.4669 24.2721 23.5389 25.0561 23.6829 25.6961C23.8429 26.3201 24.0589 26.8241 24.3309 27.2081C24.6029 27.5921 24.9389 27.8641 25.3389 28.0241C25.7389 28.1841 26.1949 28.2641 26.7069 28.2641Z" fill="black"/>
<path d="M121.995 167.696C122.491 167.376 123.043 167.144 123.651 167C124.259 166.856 124.915 166.784 125.619 166.784C127.683 166.784 129.315 167.424 130.515 168.704C131.699 170 132.291 171.984 132.291 174.656L132.291 176.576C132.291 179.024 131.699 180.872 130.515 182.12C129.315 183.384 127.683 184.016 125.619 184.016C123.555 184.016 121.931 183.384 120.747 182.12C119.547 180.872 118.947 179.024 118.947 176.576L118.947 174.656C118.947 173.584 119.051 172.624 119.259 171.776C119.451 170.944 119.731 170.216 120.099 169.592L118.515 167.984L120.387 166.112L121.995 167.696ZM125.619 169.736C125.379 169.736 125.155 169.76 124.947 169.808C124.723 169.856 124.523 169.936 124.347 170.048L126.051 171.776L124.155 173.648L122.691 172.16C122.483 172.8 122.379 173.632 122.379 174.656L122.379 176.576C122.379 178.192 122.667 179.344 123.243 180.032C123.819 180.72 124.611 181.064 125.619 181.064C126.627 181.064 127.419 180.72 127.995 180.032C128.571 179.344 128.859 178.192 128.859 176.576L128.859 174.656C128.859 173.728 128.787 172.944 128.643 172.304C128.483 171.68 128.267 171.176 127.995 170.792C127.723 170.408 127.387 170.136 126.987 169.976C126.587 169.816 126.131 169.736 125.619 169.736Z" fill="black"/>
<path d="M31.4677 59.4897H21.0896C22.6732 58.0012 24.0739 56.4698 25.1395 54.6648C24.4735 55.2505 23.7466 55.7152 22.8812 55.9373C20.8659 56.4518 19.0969 55.9999 17.6918 54.4908C16.3084 53.004 15.9776 51.2273 16.6915 49.3461C17.4123 47.4477 18.8679 46.3622 20.9251 46.1281C21.3516 46.0792 21.4474 46.0141 21.3516 45.5596C20.7744 42.8638 22.4607 40.2357 25.1142 39.6295C27.8766 38.9984 30.5292 40.5556 31.2709 43.2505C31.492 44.0248 31.5025 44.8427 31.3014 45.6222C31.2143 45.9652 31.2422 46.0758 31.6357 46.1144C33.712 46.3185 35.205 47.3791 35.9476 49.2869C36.6902 51.1948 36.3333 52.9971 34.9325 54.5414C33.268 56.3754 30.3002 56.6575 28.2378 55.2067C28.0872 55.1004 27.9183 54.8252 27.7373 55.0052C27.6093 55.133 27.8896 55.2925 27.9854 55.434C28.9073 56.7827 29.9955 57.9823 31.1708 59.1081C31.2831 59.2153 31.4163 59.3019 31.539 59.3988C31.519 59.4288 31.492 59.4588 31.4677 59.4897Z" fill="black"/>
<path d="M120.858 138.51L131.236 138.51C129.653 139.999 128.252 141.53 127.186 143.335C127.852 142.749 128.579 142.285 129.445 142.062C131.46 141.548 133.229 142 134.634 143.509C136.018 144.996 136.348 146.772 135.634 148.654C134.914 150.552 133.458 151.638 131.401 151.872C130.974 151.921 130.879 151.986 130.974 152.44C131.551 155.136 129.865 157.764 127.212 158.37C124.449 159.001 121.797 157.444 121.055 154.749C120.834 153.975 120.823 153.157 121.025 152.378C121.112 152.035 121.084 151.924 120.69 151.885C118.614 151.681 117.121 150.621 116.378 148.713C115.636 146.805 115.993 145.003 117.393 143.458C119.058 141.624 122.026 141.342 124.088 142.793C124.239 142.899 124.408 143.175 124.589 142.995C124.717 142.867 124.436 142.707 124.341 142.566C123.419 141.217 122.33 140.017 121.155 138.892C121.043 138.784 120.91 138.698 120.787 138.601C120.807 138.571 120.834 138.541 120.858 138.51Z" fill="black"/>
</g>
<defs>
<filter id="filter0_d_0_981" x="0" y="6.10352e-05" width="152" height="206" filterUnits="userSpaceOnUse" color-interpolation-filters="sRGB">
<feFlood flood-opacity="0" result="BackgroundImageFix"/>
<feColorMatrix in="SourceAlpha" type="matrix" values="0 0 0 0 0 0 0 0 0 0 0 0 0 0 0 0 0 0 127 0" result="hardAlpha"/>
<feOffset dy="4"/>
<feGaussianBlur stdDeviation="2"/>
<feComposite in2="hardAlpha" operator="out"/>
<feColorMatrix type="matrix" values="0 0 0 0 0 0 0 0 0 0 0 0 0 0 0 0 0 0 0.25 0"/>
<feBlend mode="normal" in2="BackgroundImageFix" result="effect1_dropShadow_0_981"/>
<feBlend mode="normal" in="SourceGraphic" in2="effect1_dropShadow_0_981" result="shape"/>
</filter>
<filter id="filter1_d_0_981" x="0" y="6.10352e-05" width="152" height="206" filterUnits="userSpaceOnUse" color-interpolation-filters="sRGB">
<feFlood flood-opacity="0" result="BackgroundImageFix"/>
<feColorMatrix in="SourceAlpha" type="matrix" values="0 0 0 0 0 0 0 0 0 0 0 0 0 0 0 0 0 0 127 0" result="hardAlpha"/>
<feOffset dy="4"/>
<feGaussianBlur stdDeviation="2"/>
<feComposite in2="hardAlpha" operator="out"/>
<feColorMatrix type="matrix" values="0 0 0 0 0 0 0 0 0 0 0 0 0 0 0 0 0 0 0.25 0"/>
<feBlend mode="normal" in2="BackgroundImageFix" result="effect1_dropShadow_0_981"/>
<feBlend mode="normal" in="SourceGraphic" in2="effect1_dropShadow_0_981" result="shape"/>
</filter>
</defs>
</svg>
