<svg width="152" height="206" viewBox="0 0 152 206" fill="none" xmlns="http://www.w3.org/2000/svg">
<g filter="url(#filter0_d_0_875)">
<g filter="url(#filter1_d_0_875)">
<path d="M4 10.0001C4 4.47721 8.47715 6.10352e-05 14 6.10352e-05H138C143.523 6.10352e-05 148 4.47721 148 10.0001V188C148 193.523 143.523 198 138 198H14C8.47715 198 4 193.523 4 188V10.0001Z" fill="white"/>
<path d="M4.5 10.0001C4.5 4.75335 8.7533 0.500061 14 0.500061H138C143.247 0.500061 147.5 4.75336 147.5 10.0001V188C147.5 193.247 143.247 197.5 138 197.5H14C8.75329 197.5 4.5 193.247 4.5 188V10.0001Z" stroke="#C5C5C5"/>
</g>
<path d="M27.2903 55.2635C28.1527 56.8461 29.3438 58.1825 30.598 59.4713C30.9213 59.8033 31.2615 60.1179 31.6452 60.4897H21.0008C22.5889 58.9574 24.0838 57.419 25.2056 55.5105C24.9321 55.4724 24.8583 55.5773 24.7668 55.644C22.7177 57.1295 19.9554 57.042 18.099 55.4308C16.1805 53.7624 15.7808 51.1519 17.0865 48.9367C17.996 47.3931 19.3194 46.2187 20.658 45.0565C22.0711 43.8292 23.5678 42.6965 24.8646 41.3392C25.412 40.778 25.8918 40.1574 26.2946 39.4897C27.8507 42.1695 30.5385 43.655 32.759 45.6129C33.9385 46.6529 35.0586 47.738 35.7558 49.1663C37.3546 52.4407 35.4485 56.0877 31.8113 56.6485C30.2356 56.892 28.8278 56.4431 27.6091 55.4351L27.3427 55.215C27.332 55.176 27.316 55.1361 27.2681 55.1673C27.2565 55.1716 27.2814 55.228 27.2903 55.2635Z" fill="black"/>
<path d="M15.4786 28.1441H19.3186V17.6321L15.6466 19.9361V16.5281L19.3186 14.2001H22.7506V28.1441H25.8706V31.0001H15.4786V28.1441Z" fill="black"/>
<path d="M33.4259 31.2161C32.4819 31.2161 31.6579 31.0881 30.9539 30.8321C30.2499 30.5761 29.6579 30.1521 29.1779 29.5601C28.7139 28.9681 28.3619 28.2001 28.1219 27.2561C27.8819 26.2961 27.7619 25.1201 27.7619 23.7281V21.3281C27.7619 19.9681 27.8819 18.8241 28.1219 17.8961C28.3619 16.9521 28.7139 16.1921 29.1779 15.6161C29.6579 15.0401 30.2499 14.6241 30.9539 14.3681C31.6579 14.1121 32.4819 13.9841 33.4259 13.9841C34.3699 13.9841 35.1939 14.1121 35.8979 14.3681C36.6019 14.6241 37.1859 15.0401 37.6499 15.6161C38.1299 16.1921 38.4899 16.9521 38.7299 17.8961C38.9699 18.8241 39.0899 19.9681 39.0899 21.3281V23.7281C39.0899 25.1201 38.9699 26.2961 38.7299 27.2561C38.4899 28.2001 38.1299 28.9681 37.6499 29.5601C37.1859 30.1521 36.6019 30.5761 35.8979 30.8321C35.1939 31.0881 34.3699 31.2161 33.4259 31.2161ZM33.4259 28.3361C33.7939 28.3361 34.1139 28.2801 34.3859 28.1681C34.6739 28.0401 34.9059 27.8081 35.0819 27.4721C35.2739 27.1361 35.4179 26.6721 35.5139 26.0801C35.6099 25.4721 35.6579 24.6881 35.6579 23.7281V21.3281C35.6579 20.4001 35.6099 19.6481 35.5139 19.0721C35.4179 18.4801 35.2739 18.0241 35.0819 17.7041C34.9059 17.3681 34.6739 17.1441 34.3859 17.0321C34.1139 16.9041 33.7939 16.8401 33.4259 16.8401C33.0579 16.8401 32.7299 16.9041 32.4419 17.0321C32.1699 17.1441 31.9379 17.3681 31.7459 17.7041C31.5699 18.0241 31.4339 18.4801 31.3379 19.0721C31.2419 19.6481 31.1939 20.4001 31.1939 21.3281V23.7281C31.1939 24.6881 31.2419 25.4721 31.3379 26.0801C31.4339 26.6721 31.5699 27.1361 31.7459 27.4721C31.9379 27.8081 32.1699 28.0401 32.4419 28.1681C32.7299 28.2801 33.0579 28.3361 33.4259 28.3361Z" fill="black"/>
<path d="M125.036 142.736C124.173 141.154 122.982 139.817 121.728 138.528C121.405 138.196 121.064 137.882 120.681 137.51L131.325 137.51C129.737 139.042 128.242 140.581 127.12 142.489C127.394 142.527 127.468 142.422 127.559 142.356C129.608 140.87 132.371 140.958 134.227 142.569C136.145 144.237 136.545 146.848 135.239 149.063C134.33 150.607 133.006 151.781 131.668 152.943C130.255 154.171 128.758 155.303 127.461 156.661C126.914 157.222 126.434 157.842 126.031 158.51C124.475 155.83 121.787 154.345 119.567 152.387C118.387 151.347 117.267 150.262 116.57 148.833C114.971 145.559 116.877 141.912 120.515 141.351C122.09 141.108 123.498 141.557 124.717 142.565L124.983 142.785C124.994 142.824 125.01 142.864 125.058 142.832C125.069 142.828 125.045 142.772 125.036 142.736Z" fill="black"/>
<path d="M136.847 169.856L133.007 169.856L133.007 180.368L136.679 178.064L136.679 181.472L133.007 183.8L129.575 183.8L129.575 169.856L126.455 169.856L126.455 167L136.847 167L136.847 169.856Z" fill="black"/>
<path d="M118.9 166.784C119.844 166.784 120.668 166.912 121.372 167.168C122.076 167.424 122.668 167.848 123.148 168.44C123.612 169.032 123.964 169.8 124.204 170.744C124.444 171.704 124.564 172.88 124.564 174.272L124.564 176.672C124.564 178.032 124.444 179.176 124.204 180.104C123.964 181.048 123.612 181.808 123.148 182.384C122.668 182.96 122.076 183.376 121.372 183.632C120.668 183.888 119.844 184.016 118.9 184.016C117.956 184.016 117.132 183.888 116.428 183.632C115.724 183.376 115.14 182.96 114.676 182.384C114.196 181.808 113.836 181.048 113.596 180.104C113.356 179.176 113.236 178.032 113.236 176.672L113.236 174.272C113.236 172.88 113.356 171.704 113.596 170.744C113.836 169.8 114.196 169.032 114.676 168.44C115.14 167.848 115.724 167.424 116.428 167.168C117.132 166.912 117.956 166.784 118.9 166.784ZM118.9 169.664C118.532 169.664 118.212 169.72 117.94 169.832C117.652 169.96 117.42 170.192 117.244 170.528C117.052 170.864 116.908 171.328 116.812 171.92C116.716 172.528 116.668 173.312 116.668 174.272L116.668 176.672C116.668 177.6 116.716 178.352 116.812 178.928C116.908 179.52 117.052 179.976 117.244 180.296C117.42 180.632 117.652 180.856 117.94 180.968C118.212 181.096 118.532 181.16 118.9 181.16C119.268 181.16 119.596 181.096 119.884 180.968C120.156 180.856 120.388 180.632 120.58 180.296C120.756 179.976 120.892 179.52 120.988 178.928C121.084 178.352 121.132 177.6 121.132 176.672L121.132 174.272C121.132 173.312 121.084 172.528 120.988 171.92C120.892 171.328 120.756 170.864 120.58 170.528C120.388 170.192 120.156 169.96 119.884 169.832C119.596 169.72 119.268 169.664 118.9 169.664Z" fill="black"/>
</g>
<defs>
<filter id="filter0_d_0_875" x="0" y="6.10352e-05" width="152" height="206" filterUnits="userSpaceOnUse" color-interpolation-filters="sRGB">
<feFlood flood-opacity="0" result="BackgroundImageFix"/>
<feColorMatrix in="SourceAlpha" type="matrix" values="0 0 0 0 0 0 0 0 0 0 0 0 0 0 0 0 0 0 127 0" result="hardAlpha"/>
<feOffset dy="4"/>
<feGaussianBlur stdDeviation="2"/>
<feComposite in2="hardAlpha" operator="out"/>
<feColorMatrix type="matrix" values="0 0 0 0 0 0 0 0 0 0 0 0 0 0 0 0 0 0 0.25 0"/>
<feBlend mode="normal" in2="BackgroundImageFix" result="effect1_dropShadow_0_875"/>
<feBlend mode="normal" in="SourceGraphic" in2="effect1_dropShadow_0_875" result="shape"/>
</filter>
<filter id="filter1_d_0_875" x="0" y="6.10352e-05" width="152" height="206" filterUnits="userSpaceOnUse" color-interpolation-filters="sRGB">
<feFlood flood-opacity="0" result="BackgroundImageFix"/>
<feColorMatrix in="SourceAlpha" type="matrix" values="0 0 0 0 0 0 0 0 0 0 0 0 0 0 0 0 0 0 127 0" result="hardAlpha"/>
<feOffset dy="4"/>
<feGaussianBlur stdDeviation="2"/>
<feComposite in2="hardAlpha" operator="out"/>
<feColorMatrix type="matrix" values="0 0 0 0 0 0 0 0 0 0 0 0 0 0 0 0 0 0 0.25 0"/>
<feBlend mode="normal" in2="BackgroundImageFix" result="effect1_dropShadow_0_875"/>
<feBlend mode="normal" in="SourceGraphic" in2="effect1_dropShadow_0_875" result="shape"/>
</filter>
</defs>
</svg>
