<svg width="152" height="206" viewBox="0 0 152 206" fill="none" xmlns="http://www.w3.org/2000/svg">
<g filter="url(#filter0_d_0_811)">
<g filter="url(#filter1_d_0_811)">
<path d="M4 10.0001C4 4.47721 8.47715 6.10352e-05 14 6.10352e-05H138C143.523 6.10352e-05 148 4.47721 148 10.0001V188C148 193.523 143.523 198 138 198H14C8.47715 198 4 193.523 4 188V10.0001Z" fill="white"/>
<path d="M4.5 10.0001C4.5 4.75335 8.7533 0.500061 14 0.500061H138C143.247 0.500061 147.5 4.75336 147.5 10.0001V188C147.5 193.247 143.247 197.5 138 197.5H14C8.75329 197.5 4.5 193.247 4.5 188V10.0001Z" stroke="#C5C5C5"/>
</g>
<path d="M27.2903 55.2635C28.1527 56.8461 29.3438 58.1825 30.598 59.4713C30.9213 59.8033 31.2615 60.1179 31.6452 60.4897H21.0008C22.589 58.9574 24.0838 57.419 25.2056 55.5105C24.9321 55.4724 24.8583 55.5773 24.7669 55.644C22.7178 57.1295 19.9554 57.042 18.099 55.4308C16.1805 53.7624 15.7808 51.1519 17.0865 48.9367C17.996 47.3931 19.3194 46.2187 20.658 45.0565C22.0711 43.8292 23.5678 42.6965 24.8646 41.3392C25.412 40.778 25.8918 40.1574 26.2946 39.4897C27.8507 42.1695 30.5385 43.655 32.759 45.6129C33.9386 46.6529 35.0586 47.738 35.7558 49.1663C37.3546 52.4407 35.4485 56.0877 31.8113 56.6485C30.2356 56.892 28.8278 56.4431 27.6091 55.4351L27.3427 55.215C27.332 55.176 27.316 55.1361 27.2681 55.1673C27.2565 55.1716 27.2814 55.228 27.2903 55.2635Z" fill="black"/>
<path d="M20.9043 28.8161L26.5923 22.2641C27.2163 21.5441 27.6883 20.9361 28.0083 20.4401C28.3283 19.9281 28.4883 19.4401 28.4883 18.9761C28.4883 18.3041 28.3043 17.7841 27.9363 17.4161C27.5683 17.0481 27.0723 16.8641 26.4483 16.8641C25.8243 16.8641 25.3283 17.0481 24.9603 17.4161C24.5923 17.7841 24.4083 18.3041 24.4083 18.9761H21.1443C21.1443 18.2881 21.2723 17.6481 21.5283 17.0561C21.8003 16.4481 22.1683 15.9201 22.6323 15.4721C23.1123 15.0081 23.6723 14.6481 24.3123 14.3921C24.9683 14.1201 25.6803 13.9841 26.4483 13.9841C27.2163 13.9841 27.9203 14.1201 28.5603 14.3921C29.2163 14.6481 29.7763 15.0081 30.2403 15.4721C30.7203 15.9201 31.0883 16.4481 31.3443 17.0561C31.6163 17.6481 31.7523 18.2881 31.7523 18.9761C31.7523 19.8721 31.4803 20.7441 30.9363 21.5921C30.4083 22.4241 29.7523 23.2801 28.9683 24.1601L25.3923 28.1441H31.7523V31.0001H20.9043V28.8161Z" fill="black"/>
<path d="M125.036 142.736C124.173 141.154 122.982 139.817 121.728 138.528C121.405 138.196 121.064 137.882 120.681 137.51L131.325 137.51C129.737 139.042 128.242 140.581 127.12 142.489C127.394 142.527 127.468 142.422 127.559 142.356C129.608 140.87 132.371 140.958 134.227 142.569C136.145 144.237 136.545 146.848 135.239 149.063C134.33 150.607 133.006 151.781 131.668 152.943C130.255 154.171 128.758 155.303 127.461 156.661C126.914 157.222 126.434 157.842 126.031 158.51C124.475 155.83 121.787 154.345 119.567 152.387C118.387 151.347 117.267 150.262 116.57 148.833C114.971 145.559 116.877 141.912 120.515 141.351C122.09 141.108 123.498 141.557 124.717 142.565L124.983 142.785C124.994 142.824 125.01 142.864 125.058 142.832C125.069 142.828 125.045 142.772 125.036 142.736Z" fill="black"/>
<path d="M131.422 169.184L125.734 175.736C125.11 176.456 124.638 177.064 124.318 177.56C123.998 178.072 123.838 178.56 123.838 179.024C123.838 179.696 124.022 180.216 124.39 180.584C124.758 180.952 125.254 181.136 125.878 181.136C126.502 181.136 126.998 180.952 127.366 180.584C127.734 180.216 127.918 179.696 127.918 179.024L131.182 179.024C131.182 179.712 131.054 180.352 130.798 180.944C130.526 181.552 130.158 182.08 129.694 182.528C129.214 182.992 128.654 183.352 128.014 183.608C127.358 183.88 126.646 184.016 125.878 184.016C125.11 184.016 124.406 183.88 123.766 183.608C123.11 183.352 122.55 182.992 122.086 182.528C121.606 182.08 121.238 181.552 120.982 180.944C120.71 180.352 120.574 179.712 120.574 179.024C120.574 178.128 120.846 177.256 121.39 176.408C121.918 175.576 122.574 174.72 123.358 173.84L126.934 169.856L120.574 169.856L120.574 167L131.422 167L131.422 169.184Z" fill="black"/>
</g>
<defs>
<filter id="filter0_d_0_811" x="0" y="6.10352e-05" width="152" height="206" filterUnits="userSpaceOnUse" color-interpolation-filters="sRGB">
<feFlood flood-opacity="0" result="BackgroundImageFix"/>
<feColorMatrix in="SourceAlpha" type="matrix" values="0 0 0 0 0 0 0 0 0 0 0 0 0 0 0 0 0 0 127 0" result="hardAlpha"/>
<feOffset dy="4"/>
<feGaussianBlur stdDeviation="2"/>
<feComposite in2="hardAlpha" operator="out"/>
<feColorMatrix type="matrix" values="0 0 0 0 0 0 0 0 0 0 0 0 0 0 0 0 0 0 0.25 0"/>
<feBlend mode="normal" in2="BackgroundImageFix" result="effect1_dropShadow_0_811"/>
<feBlend mode="normal" in="SourceGraphic" in2="effect1_dropShadow_0_811" result="shape"/>
</filter>
<filter id="filter1_d_0_811" x="0" y="6.10352e-05" width="152" height="206" filterUnits="userSpaceOnUse" color-interpolation-filters="sRGB">
<feFlood flood-opacity="0" result="BackgroundImageFix"/>
<feColorMatrix in="SourceAlpha" type="matrix" values="0 0 0 0 0 0 0 0 0 0 0 0 0 0 0 0 0 0 127 0" result="hardAlpha"/>
<feOffset dy="4"/>
<feGaussianBlur stdDeviation="2"/>
<feComposite in2="hardAlpha" operator="out"/>
<feColorMatrix type="matrix" values="0 0 0 0 0 0 0 0 0 0 0 0 0 0 0 0 0 0 0.25 0"/>
<feBlend mode="normal" in2="BackgroundImageFix" result="effect1_dropShadow_0_811"/>
<feBlend mode="normal" in="SourceGraphic" in2="effect1_dropShadow_0_811" result="shape"/>
</filter>
</defs>
</svg>
