<svg width="152" height="206" viewBox="0 0 152 206" fill="none" xmlns="http://www.w3.org/2000/svg">
<g filter="url(#filter0_d_0_819)">
<g filter="url(#filter1_d_0_819)">
<path d="M4 10.0001C4 4.47721 8.47715 6.10352e-05 14 6.10352e-05H138C143.523 6.10352e-05 148 4.47721 148 10.0001V188C148 193.523 143.523 198 138 198H14C8.47715 198 4 193.523 4 188V10.0001Z" fill="white"/>
<path d="M4.5 10.0001C4.5 4.75335 8.7533 0.500061 14 0.500061H138C143.247 0.500061 147.5 4.75336 147.5 10.0001V188C147.5 193.247 143.247 197.5 138 197.5H14C8.75329 197.5 4.5 193.247 4.5 188V10.0001Z" stroke="#C5C5C5"/>
</g>
<path d="M27.2903 55.2635C28.1527 56.8461 29.3438 58.1825 30.598 59.4713C30.9213 59.8033 31.2615 60.1179 31.6452 60.4897H21.0008C22.589 58.9574 24.0838 57.419 25.2056 55.5105C24.9321 55.4724 24.8583 55.5773 24.7669 55.644C22.7178 57.1295 19.9554 57.042 18.099 55.4308C16.1805 53.7624 15.7808 51.1519 17.0865 48.9367C17.996 47.3931 19.3194 46.2187 20.658 45.0565C22.0711 43.8292 23.5678 42.6965 24.8646 41.3392C25.412 40.778 25.8918 40.1574 26.2946 39.4897C27.8507 42.1695 30.5385 43.655 32.759 45.6129C33.9386 46.6529 35.0586 47.738 35.7558 49.1663C37.3546 52.4407 35.4485 56.0877 31.8113 56.6485C30.2356 56.892 28.8278 56.4431 27.6091 55.4351L27.3427 55.215C27.332 55.176 27.316 55.1361 27.2681 55.1673C27.2565 55.1716 27.2814 55.228 27.2903 55.2635Z" fill="black"/>
<path d="M26.0883 31.2161C25.2243 31.2161 24.4483 31.0961 23.7603 30.8561C23.0723 30.6001 22.4803 30.2561 21.9843 29.8241C21.5043 29.3761 21.1363 28.8641 20.8803 28.2881C20.6243 27.6961 20.4963 27.0641 20.4963 26.3921H23.8563C23.8563 26.9361 24.0563 27.4001 24.4563 27.7841C24.8563 28.1521 25.4003 28.3361 26.0883 28.3361C26.7763 28.3361 27.3203 28.1361 27.7203 27.7361C28.1203 27.3361 28.3203 26.8001 28.3203 26.1281C28.3203 25.3921 28.0963 24.8241 27.6483 24.4241C27.2163 24.0081 26.5363 23.8001 25.6083 23.8001H24.1443V20.9201H25.6083C26.4723 20.9201 27.0963 20.7441 27.4803 20.3921C27.8803 20.0401 28.0803 19.5121 28.0803 18.8081C28.0803 18.2001 27.9043 17.7281 27.5523 17.3921C27.2003 17.0401 26.7123 16.8641 26.0883 16.8641C25.4643 16.8641 24.9763 17.0241 24.6243 17.3441C24.2723 17.6641 24.0963 18.0801 24.0963 18.5921H20.7363C20.7363 17.9681 20.8483 17.3761 21.0723 16.8161C21.3123 16.2561 21.6563 15.7681 22.1043 15.3521C22.5683 14.9201 23.1283 14.5841 23.7843 14.3441C24.4563 14.1041 25.2243 13.9841 26.0883 13.9841C26.9043 13.9841 27.6403 14.1121 28.2963 14.3681C28.9523 14.6081 29.5123 14.9361 29.9763 15.3521C30.4563 15.7681 30.8163 16.2641 31.0563 16.8401C31.3123 17.4161 31.4403 18.0241 31.4403 18.6641C31.4403 19.1441 31.3763 19.5761 31.2483 19.9601C31.1203 20.3441 30.9523 20.6881 30.7443 20.9921C30.5523 21.2801 30.3203 21.5281 30.0483 21.7361C29.7923 21.9441 29.5203 22.1201 29.2323 22.2641C30.0003 22.5841 30.6003 23.0881 31.0323 23.7761C31.4643 24.4481 31.6803 25.2881 31.6803 26.2961C31.6803 27.0001 31.5523 27.6481 31.2963 28.2401C31.0403 28.8321 30.6643 29.3521 30.1683 29.8001C29.6883 30.2481 29.1043 30.6001 28.4163 30.8561C27.7283 31.0961 26.9523 31.2161 26.0883 31.2161Z" fill="black"/>
<path d="M125.036 142.736C124.173 141.154 122.982 139.817 121.728 138.528C121.405 138.196 121.064 137.882 120.681 137.51L131.325 137.51C129.737 139.042 128.242 140.581 127.12 142.489C127.394 142.527 127.468 142.422 127.559 142.356C129.608 140.87 132.371 140.958 134.227 142.569C136.145 144.237 136.545 146.848 135.239 149.063C134.33 150.607 133.006 151.781 131.668 152.943C130.255 154.171 128.758 155.303 127.461 156.661C126.914 157.222 126.434 157.842 126.031 158.51C124.475 155.83 121.787 154.345 119.567 152.387C118.387 151.347 117.267 150.262 116.57 148.833C114.971 145.559 116.877 141.912 120.515 141.351C122.09 141.108 123.498 141.557 124.717 142.565L124.983 142.785C124.994 142.824 125.01 142.864 125.058 142.832C125.069 142.828 125.045 142.772 125.036 142.736Z" fill="black"/>
<path d="M126.238 166.784C127.102 166.784 127.878 166.904 128.566 167.144C129.254 167.4 129.846 167.744 130.342 168.176C130.822 168.624 131.19 169.136 131.446 169.712C131.702 170.304 131.83 170.936 131.83 171.608L128.47 171.608C128.47 171.064 128.27 170.6 127.87 170.216C127.47 169.848 126.926 169.664 126.238 169.664C125.55 169.664 125.006 169.864 124.606 170.264C124.206 170.664 124.006 171.2 124.006 171.872C124.006 172.608 124.23 173.176 124.678 173.576C125.11 173.992 125.79 174.2 126.718 174.2L128.182 174.2L128.182 177.08L126.718 177.08C125.854 177.08 125.23 177.256 124.846 177.608C124.446 177.96 124.246 178.488 124.246 179.192C124.246 179.8 124.422 180.272 124.774 180.608C125.126 180.96 125.614 181.136 126.238 181.136C126.862 181.136 127.35 180.976 127.702 180.656C128.054 180.336 128.23 179.92 128.23 179.408L131.59 179.408C131.59 180.032 131.478 180.624 131.254 181.184C131.014 181.744 130.67 182.232 130.222 182.648C129.758 183.08 129.198 183.416 128.542 183.656C127.87 183.896 127.102 184.016 126.238 184.016C125.422 184.016 124.686 183.888 124.03 183.632C123.374 183.392 122.814 183.064 122.35 182.648C121.87 182.232 121.51 181.736 121.27 181.16C121.014 180.584 120.886 179.976 120.886 179.336C120.886 178.856 120.95 178.424 121.078 178.04C121.206 177.656 121.374 177.312 121.582 177.008C121.774 176.72 122.006 176.472 122.278 176.264C122.534 176.056 122.806 175.88 123.094 175.736C122.326 175.416 121.726 174.912 121.294 174.224C120.862 173.552 120.646 172.712 120.646 171.704C120.646 171 120.774 170.352 121.03 169.76C121.286 169.168 121.662 168.648 122.158 168.2C122.638 167.752 123.222 167.4 123.91 167.144C124.598 166.904 125.374 166.784 126.238 166.784Z" fill="black"/>
</g>
<defs>
<filter id="filter0_d_0_819" x="0" y="6.10352e-05" width="152" height="206" filterUnits="userSpaceOnUse" color-interpolation-filters="sRGB">
<feFlood flood-opacity="0" result="BackgroundImageFix"/>
<feColorMatrix in="SourceAlpha" type="matrix" values="0 0 0 0 0 0 0 0 0 0 0 0 0 0 0 0 0 0 127 0" result="hardAlpha"/>
<feOffset dy="4"/>
<feGaussianBlur stdDeviation="2"/>
<feComposite in2="hardAlpha" operator="out"/>
<feColorMatrix type="matrix" values="0 0 0 0 0 0 0 0 0 0 0 0 0 0 0 0 0 0 0.25 0"/>
<feBlend mode="normal" in2="BackgroundImageFix" result="effect1_dropShadow_0_819"/>
<feBlend mode="normal" in="SourceGraphic" in2="effect1_dropShadow_0_819" result="shape"/>
</filter>
<filter id="filter1_d_0_819" x="0" y="6.10352e-05" width="152" height="206" filterUnits="userSpaceOnUse" color-interpolation-filters="sRGB">
<feFlood flood-opacity="0" result="BackgroundImageFix"/>
<feColorMatrix in="SourceAlpha" type="matrix" values="0 0 0 0 0 0 0 0 0 0 0 0 0 0 0 0 0 0 127 0" result="hardAlpha"/>
<feOffset dy="4"/>
<feGaussianBlur stdDeviation="2"/>
<feComposite in2="hardAlpha" operator="out"/>
<feColorMatrix type="matrix" values="0 0 0 0 0 0 0 0 0 0 0 0 0 0 0 0 0 0 0.25 0"/>
<feBlend mode="normal" in2="BackgroundImageFix" result="effect1_dropShadow_0_819"/>
<feBlend mode="normal" in="SourceGraphic" in2="effect1_dropShadow_0_819" result="shape"/>
</filter>
</defs>
</svg>
