<svg width="152" height="206" viewBox="0 0 152 206" fill="none" xmlns="http://www.w3.org/2000/svg">
<g filter="url(#filter0_d_0_835)">
<g filter="url(#filter1_d_0_835)">
<path d="M4 10.0001C4 4.47721 8.47715 6.10352e-05 14 6.10352e-05H138C143.523 6.10352e-05 148 4.47721 148 10.0001V188C148 193.523 143.523 198 138 198H14C8.47715 198 4 193.523 4 188V10.0001Z" fill="white"/>
<path d="M4.5 10.0001C4.5 4.75335 8.7533 0.500061 14 0.500061H138C143.247 0.500061 147.5 4.75336 147.5 10.0001V188C147.5 193.247 143.247 197.5 138 197.5H14C8.75329 197.5 4.5 193.247 4.5 188V10.0001Z" stroke="#C5C5C5"/>
</g>
<path d="M27.2903 55.2635C28.1527 56.8461 29.3438 58.1825 30.598 59.4713C30.9213 59.8033 31.2615 60.1179 31.6452 60.4897H21.0008C22.589 58.9574 24.0838 57.419 25.2056 55.5105C24.9321 55.4724 24.8583 55.5773 24.7669 55.644C22.7178 57.1295 19.9554 57.042 18.099 55.4308C16.1805 53.7624 15.7808 51.1519 17.0865 48.9367C17.996 47.3931 19.3194 46.2187 20.658 45.0565C22.0711 43.8292 23.5678 42.6965 24.8646 41.3392C25.412 40.778 25.8918 40.1574 26.2946 39.4897C27.8507 42.1695 30.5385 43.655 32.759 45.6129C33.9386 46.6529 35.0586 47.738 35.7558 49.1663C37.3546 52.4407 35.4485 56.0877 31.8113 56.6485C30.2356 56.892 28.8278 56.4431 27.6091 55.4351L27.3427 55.215C27.332 55.176 27.316 55.1361 27.2681 55.1673C27.2565 55.1716 27.2814 55.228 27.2903 55.2635Z" fill="black"/>
<path d="M26.3523 31.2161C25.5043 31.2161 24.7523 31.1041 24.0963 30.8801C23.4563 30.6401 22.9123 30.3201 22.4643 29.9201C22.0163 29.5041 21.6643 29.0321 21.4083 28.5041C21.1523 27.9761 20.9923 27.4081 20.9283 26.8001H24.3603C24.4723 27.2641 24.6803 27.6401 24.9843 27.9281C25.3043 28.2001 25.7603 28.3361 26.3523 28.3361C26.9443 28.3361 27.4243 28.1041 27.7923 27.6401C28.1763 27.1761 28.3683 26.3601 28.3683 25.1921C28.3683 24.0241 28.1763 23.2081 27.7923 22.7441C27.4243 22.2641 26.9443 22.0241 26.3523 22.0241C25.8723 22.0241 25.4723 22.1841 25.1523 22.5041C24.8323 22.8081 24.5843 23.1681 24.4083 23.5841H21.3843V14.2001H31.0803V17.0561H24.6483V20.2481C24.9043 19.9921 25.2563 19.7521 25.7043 19.5281C26.1523 19.2881 26.6803 19.1681 27.2883 19.1681C27.9443 19.1681 28.5443 19.2881 29.0883 19.5281C29.6483 19.7681 30.1283 20.1361 30.5283 20.6321C30.9283 21.1121 31.2403 21.7361 31.4643 22.5041C31.6883 23.2561 31.8003 24.1521 31.8003 25.1921C31.8003 27.2721 31.3363 28.8001 30.4083 29.7761C29.4963 30.7361 28.1443 31.2161 26.3523 31.2161Z" fill="black"/>
<path d="M125.036 142.736C124.173 141.154 122.982 139.817 121.728 138.528C121.405 138.196 121.064 137.882 120.681 137.51L131.325 137.51C129.737 139.042 128.242 140.581 127.12 142.489C127.394 142.527 127.468 142.422 127.559 142.356C129.608 140.87 132.371 140.958 134.227 142.569C136.145 144.237 136.545 146.848 135.239 149.063C134.33 150.607 133.006 151.781 131.668 152.943C130.255 154.171 128.758 155.303 127.461 156.661C126.914 157.222 126.434 157.842 126.031 158.51C124.475 155.83 121.787 154.345 119.567 152.387C118.387 151.347 117.267 150.262 116.57 148.833C114.971 145.559 116.877 141.912 120.515 141.351C122.09 141.108 123.498 141.557 124.717 142.565L124.983 142.785C124.994 142.824 125.01 142.864 125.058 142.832C125.069 142.828 125.045 142.772 125.036 142.736Z" fill="black"/>
<path d="M125.974 166.784C126.822 166.784 127.574 166.896 128.23 167.12C128.87 167.36 129.414 167.68 129.862 168.08C130.31 168.496 130.662 168.968 130.918 169.496C131.174 170.024 131.334 170.592 131.398 171.2L127.966 171.2C127.854 170.736 127.646 170.36 127.342 170.072C127.022 169.8 126.566 169.664 125.974 169.664C125.382 169.664 124.902 169.896 124.534 170.36C124.15 170.824 123.958 171.64 123.958 172.808C123.958 173.976 124.15 174.792 124.534 175.256C124.902 175.736 125.382 175.976 125.974 175.976C126.454 175.976 126.854 175.816 127.174 175.496C127.494 175.192 127.742 174.832 127.918 174.416L130.942 174.416L130.942 183.8L121.246 183.8L121.246 180.944L127.678 180.944L127.678 177.752C127.422 178.008 127.07 178.248 126.622 178.472C126.174 178.712 125.646 178.832 125.038 178.832C124.382 178.832 123.782 178.712 123.238 178.472C122.678 178.232 122.198 177.864 121.798 177.368C121.398 176.888 121.086 176.264 120.862 175.496C120.638 174.744 120.526 173.848 120.526 172.808C120.526 170.728 120.99 169.2 121.918 168.224C122.83 167.264 124.182 166.784 125.974 166.784Z" fill="black"/>
</g>
<defs>
<filter id="filter0_d_0_835" x="0" y="6.10352e-05" width="152" height="206" filterUnits="userSpaceOnUse" color-interpolation-filters="sRGB">
<feFlood flood-opacity="0" result="BackgroundImageFix"/>
<feColorMatrix in="SourceAlpha" type="matrix" values="0 0 0 0 0 0 0 0 0 0 0 0 0 0 0 0 0 0 127 0" result="hardAlpha"/>
<feOffset dy="4"/>
<feGaussianBlur stdDeviation="2"/>
<feComposite in2="hardAlpha" operator="out"/>
<feColorMatrix type="matrix" values="0 0 0 0 0 0 0 0 0 0 0 0 0 0 0 0 0 0 0.25 0"/>
<feBlend mode="normal" in2="BackgroundImageFix" result="effect1_dropShadow_0_835"/>
<feBlend mode="normal" in="SourceGraphic" in2="effect1_dropShadow_0_835" result="shape"/>
</filter>
<filter id="filter1_d_0_835" x="0" y="6.10352e-05" width="152" height="206" filterUnits="userSpaceOnUse" color-interpolation-filters="sRGB">
<feFlood flood-opacity="0" result="BackgroundImageFix"/>
<feColorMatrix in="SourceAlpha" type="matrix" values="0 0 0 0 0 0 0 0 0 0 0 0 0 0 0 0 0 0 127 0" result="hardAlpha"/>
<feOffset dy="4"/>
<feGaussianBlur stdDeviation="2"/>
<feComposite in2="hardAlpha" operator="out"/>
<feColorMatrix type="matrix" values="0 0 0 0 0 0 0 0 0 0 0 0 0 0 0 0 0 0 0.25 0"/>
<feBlend mode="normal" in2="BackgroundImageFix" result="effect1_dropShadow_0_835"/>
<feBlend mode="normal" in="SourceGraphic" in2="effect1_dropShadow_0_835" result="shape"/>
</filter>
</defs>
</svg>
