<svg width="152" height="206" viewBox="0 0 152 206" fill="none" xmlns="http://www.w3.org/2000/svg">
<g filter="url(#filter0_d_0_843)">
<g filter="url(#filter1_d_0_843)">
<path d="M4 10.0001C4 4.47721 8.47715 6.10352e-05 14 6.10352e-05H138C143.523 6.10352e-05 148 4.47721 148 10.0001V188C148 193.523 143.523 198 138 198H14C8.47715 198 4 193.523 4 188V10.0001Z" fill="white"/>
<path d="M4.5 10.0001C4.5 4.75335 8.7533 0.500061 14 0.500061H138C143.247 0.500061 147.5 4.75336 147.5 10.0001V188C147.5 193.247 143.247 197.5 138 197.5H14C8.75329 197.5 4.5 193.247 4.5 188V10.0001Z" stroke="#C5C5C5"/>
</g>
<path d="M27.2903 55.2635C28.1527 56.8461 29.3438 58.1825 30.598 59.4713C30.9213 59.8033 31.2615 60.1179 31.6452 60.4897H21.0008C22.589 58.9574 24.0838 57.419 25.2056 55.5105C24.9321 55.4724 24.8583 55.5773 24.7669 55.644C22.7178 57.1295 19.9554 57.042 18.099 55.4308C16.1805 53.7624 15.7808 51.1519 17.0865 48.9367C17.996 47.3931 19.3194 46.2187 20.658 45.0565C22.0711 43.8292 23.5678 42.6965 24.8646 41.3392C25.412 40.778 25.8918 40.1574 26.2946 39.4897C27.8507 42.1695 30.5385 43.655 32.759 45.6129C33.9386 46.6529 35.0586 47.738 35.7558 49.1663C37.3546 52.4407 35.4485 56.0877 31.8113 56.6485C30.2356 56.892 28.8278 56.4431 27.6091 55.4351L27.3427 55.215C27.332 55.176 27.316 55.1361 27.2681 55.1673C27.2565 55.1716 27.2814 55.228 27.2903 55.2635Z" fill="black"/>
<path d="M26.3283 31.2161C24.5523 31.2161 23.1763 30.7281 22.2003 29.7521C21.2243 28.7601 20.7363 27.2801 20.7363 25.3121V20.9681C20.7363 19.7041 20.8483 18.6321 21.0723 17.7521C21.3123 16.8561 21.6643 16.1361 22.1283 15.5921C22.6083 15.0321 23.1923 14.6241 23.8803 14.3681C24.5843 14.1121 25.4003 13.9841 26.3283 13.9841C27.7683 13.9841 28.9363 14.2961 29.8323 14.9201C30.7283 15.5441 31.3283 16.5921 31.6323 18.0641H28.1283C27.9843 17.5841 27.7523 17.2641 27.4323 17.1041C27.1283 16.9281 26.7603 16.8401 26.3283 16.8401C25.9443 16.8401 25.6083 16.8881 25.3203 16.9841C25.0323 17.0801 24.7843 17.2641 24.5763 17.5361C24.3683 17.7921 24.2083 18.1601 24.0963 18.6401C24.0003 19.1041 23.9523 19.7041 23.9523 20.4401V20.9921C24.3043 20.6721 24.7283 20.4241 25.2243 20.2481C25.7363 20.0721 26.3523 19.9841 27.0723 19.9841C27.7603 19.9841 28.4003 20.1041 28.9923 20.3441C29.5843 20.5841 30.0963 20.9361 30.5283 21.4001C30.9603 21.8481 31.2963 22.4001 31.5363 23.0561C31.7923 23.6961 31.9203 24.4161 31.9203 25.2161V25.9841C31.9203 27.6001 31.4243 28.8801 30.4323 29.8241C29.4563 30.7521 28.0883 31.2161 26.3283 31.2161ZM26.3283 28.3361C27.0163 28.3361 27.5443 28.1441 27.9123 27.7601C28.2963 27.3601 28.4883 26.7681 28.4883 25.9841V25.2161C28.4883 24.4161 28.2963 23.8241 27.9123 23.4401C27.5443 23.0401 27.0163 22.8401 26.3283 22.8401C25.6403 22.8401 25.1043 23.0321 24.7203 23.4161C24.3523 23.8001 24.1683 24.3521 24.1683 25.0721V25.9841C24.1683 26.7681 24.3523 27.3601 24.7203 27.7601C25.1043 28.1441 25.6403 28.3361 26.3283 28.3361Z" fill="black"/>
<path d="M125.036 142.736C124.173 141.154 122.982 139.817 121.728 138.528C121.405 138.196 121.064 137.882 120.681 137.51L131.325 137.51C129.737 139.042 128.242 140.581 127.12 142.489C127.394 142.527 127.468 142.422 127.559 142.356C129.608 140.87 132.371 140.958 134.227 142.569C136.145 144.237 136.545 146.848 135.239 149.063C134.33 150.607 133.006 151.781 131.668 152.943C130.255 154.171 128.758 155.303 127.461 156.661C126.914 157.222 126.434 157.842 126.031 158.51C124.475 155.83 121.787 154.345 119.567 152.387C118.387 151.347 117.267 150.262 116.57 148.833C114.971 145.559 116.877 141.912 120.515 141.351C122.09 141.108 123.498 141.557 124.717 142.565L124.983 142.785C124.994 142.824 125.01 142.864 125.058 142.832C125.069 142.828 125.045 142.772 125.036 142.736Z" fill="black"/>
<path d="M125.998 166.784C127.774 166.784 129.15 167.272 130.126 168.248C131.102 169.24 131.59 170.72 131.59 172.688L131.59 177.032C131.59 178.296 131.478 179.368 131.254 180.248C131.014 181.144 130.662 181.864 130.198 182.408C129.718 182.968 129.134 183.376 128.446 183.632C127.742 183.888 126.926 184.016 125.998 184.016C124.558 184.016 123.39 183.704 122.494 183.08C121.598 182.456 120.998 181.408 120.694 179.936L124.198 179.936C124.342 180.416 124.574 180.736 124.894 180.896C125.198 181.072 125.566 181.16 125.998 181.16C126.382 181.16 126.718 181.112 127.006 181.016C127.294 180.92 127.542 180.736 127.75 180.464C127.958 180.208 128.118 179.84 128.23 179.36C128.326 178.896 128.374 178.296 128.374 177.56L128.374 177.008C128.022 177.328 127.598 177.576 127.102 177.752C126.59 177.928 125.974 178.016 125.254 178.016C124.566 178.016 123.926 177.896 123.334 177.656C122.742 177.416 122.23 177.064 121.798 176.6C121.366 176.152 121.03 175.6 120.79 174.944C120.534 174.304 120.406 173.584 120.406 172.784L120.406 172.016C120.406 170.4 120.902 169.12 121.894 168.176C122.87 167.248 124.238 166.784 125.998 166.784ZM125.998 169.664C125.31 169.664 124.782 169.856 124.414 170.24C124.03 170.64 123.838 171.232 123.838 172.016L123.838 172.784C123.838 173.584 124.03 174.176 124.414 174.56C124.782 174.96 125.31 175.16 125.998 175.16C126.686 175.16 127.222 174.968 127.606 174.584C127.974 174.2 128.158 173.648 128.158 172.928L128.158 172.016C128.158 171.232 127.974 170.64 127.606 170.24C127.222 169.856 126.686 169.664 125.998 169.664Z" fill="black"/>
</g>
<defs>
<filter id="filter0_d_0_843" x="0" y="6.10352e-05" width="152" height="206" filterUnits="userSpaceOnUse" color-interpolation-filters="sRGB">
<feFlood flood-opacity="0" result="BackgroundImageFix"/>
<feColorMatrix in="SourceAlpha" type="matrix" values="0 0 0 0 0 0 0 0 0 0 0 0 0 0 0 0 0 0 127 0" result="hardAlpha"/>
<feOffset dy="4"/>
<feGaussianBlur stdDeviation="2"/>
<feComposite in2="hardAlpha" operator="out"/>
<feColorMatrix type="matrix" values="0 0 0 0 0 0 0 0 0 0 0 0 0 0 0 0 0 0 0.25 0"/>
<feBlend mode="normal" in2="BackgroundImageFix" result="effect1_dropShadow_0_843"/>
<feBlend mode="normal" in="SourceGraphic" in2="effect1_dropShadow_0_843" result="shape"/>
</filter>
<filter id="filter1_d_0_843" x="0" y="6.10352e-05" width="152" height="206" filterUnits="userSpaceOnUse" color-interpolation-filters="sRGB">
<feFlood flood-opacity="0" result="BackgroundImageFix"/>
<feColorMatrix in="SourceAlpha" type="matrix" values="0 0 0 0 0 0 0 0 0 0 0 0 0 0 0 0 0 0 127 0" result="hardAlpha"/>
<feOffset dy="4"/>
<feGaussianBlur stdDeviation="2"/>
<feComposite in2="hardAlpha" operator="out"/>
<feColorMatrix type="matrix" values="0 0 0 0 0 0 0 0 0 0 0 0 0 0 0 0 0 0 0.25 0"/>
<feBlend mode="normal" in2="BackgroundImageFix" result="effect1_dropShadow_0_843"/>
<feBlend mode="normal" in="SourceGraphic" in2="effect1_dropShadow_0_843" result="shape"/>
</filter>
</defs>
</svg>
