<svg width="152" height="206" viewBox="0 0 152 206" fill="none" xmlns="http://www.w3.org/2000/svg">
<g filter="url(#filter0_d_0_859)">
<g filter="url(#filter1_d_0_859)">
<path d="M4 10.0001C4 4.47721 8.47715 6.10352e-05 14 6.10352e-05H138C143.523 6.10352e-05 148 4.47721 148 10.0001V188C148 193.523 143.523 198 138 198H14C8.47715 198 4 193.523 4 188V10.0001Z" fill="white"/>
<path d="M4.5 10.0001C4.5 4.75335 8.7533 0.500061 14 0.500061H138C143.247 0.500061 147.5 4.75336 147.5 10.0001V188C147.5 193.247 143.247 197.5 138 197.5H14C8.75329 197.5 4.5 193.247 4.5 188V10.0001Z" stroke="#C5C5C5"/>
</g>
<path d="M27.2903 55.2635C28.1527 56.8461 29.3438 58.1825 30.598 59.4713C30.9213 59.8033 31.2615 60.1179 31.6452 60.4897H21.0008C22.589 58.9574 24.0838 57.419 25.2056 55.5105C24.9321 55.4724 24.8583 55.5773 24.7669 55.644C22.7178 57.1295 19.9554 57.042 18.099 55.4308C16.1805 53.7624 15.7808 51.1519 17.0865 48.9367C17.996 47.3931 19.3194 46.2187 20.658 45.0565C22.0711 43.8292 23.5678 42.6965 24.8646 41.3392C25.412 40.778 25.8918 40.1574 26.2946 39.4897C27.8507 42.1695 30.5385 43.655 32.759 45.6129C33.9386 46.6529 35.0586 47.738 35.7558 49.1663C37.3546 52.4407 35.4485 56.0877 31.8113 56.6485C30.2356 56.892 28.8278 56.4431 27.6091 55.4351L27.3427 55.215C27.332 55.176 27.316 55.1361 27.2681 55.1673C27.2565 55.1716 27.2814 55.228 27.2903 55.2635Z" fill="black"/>
<path d="M26.3283 31.2161C25.4163 31.2161 24.6083 31.0961 23.9043 30.8561C23.2003 30.6161 22.6083 30.2881 22.1283 29.8721C21.6483 29.4401 21.2803 28.9361 21.0243 28.3601C20.7843 27.7681 20.6643 27.1361 20.6643 26.4641C20.6643 25.5041 20.8803 24.6961 21.3123 24.0401C21.7603 23.3681 22.3683 22.8081 23.1363 22.3601C22.5283 21.9921 22.0243 21.4881 21.6243 20.8481C21.2403 20.1921 21.0483 19.4321 21.0483 18.5681C21.0483 17.9281 21.1683 17.3361 21.4083 16.7921C21.6643 16.2321 22.0163 15.7441 22.4643 15.3281C22.9283 14.9121 23.4803 14.5841 24.1203 14.3441C24.7763 14.1041 25.5123 13.9841 26.3283 13.9841C27.1443 13.9841 27.8723 14.1041 28.5123 14.3441C29.1683 14.5841 29.7203 14.9121 30.1683 15.3281C30.6323 15.7441 30.9843 16.2321 31.2243 16.7921C31.4803 17.3361 31.6083 17.9281 31.6083 18.5681C31.6083 19.4321 31.4083 20.1921 31.0083 20.8481C30.6243 21.4881 30.1283 21.9921 29.5203 22.3601C30.2883 22.8081 30.8883 23.3681 31.3203 24.0401C31.7683 24.6961 31.9923 25.5041 31.9923 26.4641C31.9923 27.1361 31.8643 27.7681 31.6083 28.3601C31.3683 28.9361 31.0083 29.4401 30.5283 29.8721C30.0483 30.2881 29.4563 30.6161 28.7523 30.8561C28.0483 31.0961 27.2403 31.2161 26.3283 31.2161ZM26.3283 28.4321C27.0483 28.4321 27.6243 28.2241 28.0563 27.8081C28.5043 27.3761 28.7283 26.8721 28.7283 26.2961C28.7283 25.5761 28.5043 24.9681 28.0563 24.4721C27.6083 23.9761 27.0323 23.6641 26.3283 23.5361C25.6243 23.6641 25.0483 23.9761 24.6003 24.4721C24.1523 24.9681 23.9283 25.5761 23.9283 26.2961C23.9283 26.8721 24.1443 27.3761 24.5763 27.8081C25.0243 28.2241 25.6083 28.4321 26.3283 28.4321ZM26.3283 16.7681C25.7203 16.7681 25.2323 16.9521 24.8643 17.3201C24.4963 17.6721 24.3123 18.1441 24.3123 18.7361C24.3123 19.0721 24.3683 19.3761 24.4803 19.6481C24.6083 19.9201 24.7683 20.1601 24.9603 20.3681C25.1523 20.5761 25.3683 20.7521 25.6083 20.8961C25.8483 21.0241 26.0883 21.1201 26.3283 21.1841C26.5683 21.1201 26.8083 21.0241 27.0483 20.8961C27.2883 20.7521 27.5043 20.5761 27.6963 20.3681C27.8883 20.1601 28.0403 19.9201 28.1523 19.6481C28.2803 19.3761 28.3443 19.0721 28.3443 18.7361C28.3443 18.1441 28.1603 17.6721 27.7923 17.3201C27.4243 16.9521 26.9363 16.7681 26.3283 16.7681Z" fill="black"/>
<path d="M125.036 142.736C124.173 141.154 122.982 139.817 121.728 138.528C121.405 138.196 121.064 137.882 120.681 137.51L131.325 137.51C129.737 139.042 128.242 140.581 127.12 142.489C127.394 142.527 127.468 142.422 127.559 142.356C129.608 140.87 132.371 140.958 134.227 142.569C136.145 144.237 136.545 146.848 135.239 149.063C134.33 150.607 133.006 151.781 131.668 152.943C130.255 154.171 128.758 155.303 127.461 156.661C126.914 157.222 126.434 157.842 126.031 158.51C124.475 155.83 121.787 154.345 119.567 152.387C118.387 151.347 117.267 150.262 116.57 148.833C114.971 145.559 116.877 141.912 120.515 141.351C122.09 141.108 123.498 141.557 124.717 142.565L124.983 142.785C124.994 142.824 125.01 142.864 125.058 142.832C125.069 142.828 125.045 142.772 125.036 142.736Z" fill="black"/>
<path d="M125.998 166.784C126.91 166.784 127.718 166.904 128.422 167.144C129.126 167.384 129.718 167.712 130.198 168.128C130.678 168.56 131.046 169.064 131.302 169.64C131.542 170.232 131.662 170.864 131.662 171.536C131.662 172.496 131.446 173.304 131.014 173.96C130.566 174.632 129.958 175.192 129.19 175.64C129.798 176.008 130.302 176.512 130.702 177.152C131.086 177.808 131.278 178.568 131.278 179.432C131.278 180.072 131.158 180.664 130.918 181.208C130.662 181.768 130.31 182.256 129.862 182.672C129.398 183.088 128.846 183.416 128.206 183.656C127.55 183.896 126.814 184.016 125.998 184.016C125.182 184.016 124.454 183.896 123.814 183.656C123.158 183.416 122.606 183.088 122.158 182.672C121.694 182.256 121.342 181.768 121.102 181.208C120.846 180.664 120.718 180.072 120.718 179.432C120.718 178.568 120.918 177.808 121.318 177.152C121.702 176.512 122.198 176.008 122.806 175.64C122.038 175.192 121.438 174.632 121.006 173.96C120.558 173.304 120.334 172.496 120.334 171.536C120.334 170.864 120.462 170.232 120.718 169.64C120.958 169.064 121.318 168.56 121.798 168.128C122.278 167.712 122.87 167.384 123.574 167.144C124.278 166.904 125.086 166.784 125.998 166.784ZM125.998 169.568C125.278 169.568 124.702 169.776 124.27 170.192C123.822 170.624 123.598 171.128 123.598 171.704C123.598 172.424 123.822 173.032 124.27 173.528C124.718 174.024 125.294 174.336 125.998 174.464C126.702 174.336 127.278 174.024 127.726 173.528C128.174 173.032 128.398 172.424 128.398 171.704C128.398 171.128 128.182 170.624 127.75 170.192C127.302 169.776 126.718 169.568 125.998 169.568ZM125.998 181.232C126.606 181.232 127.094 181.048 127.462 180.68C127.83 180.328 128.014 179.856 128.014 179.264C128.014 178.928 127.958 178.624 127.846 178.352C127.718 178.08 127.558 177.84 127.366 177.632C127.174 177.424 126.958 177.248 126.718 177.104C126.478 176.976 126.238 176.88 125.998 176.816C125.758 176.88 125.518 176.976 125.278 177.104C125.038 177.248 124.822 177.424 124.63 177.632C124.438 177.84 124.286 178.08 124.174 178.352C124.046 178.624 123.982 178.928 123.982 179.264C123.982 179.856 124.166 180.328 124.534 180.68C124.902 181.048 125.39 181.232 125.998 181.232Z" fill="black"/>
</g>
<defs>
<filter id="filter0_d_0_859" x="0" y="6.10352e-05" width="152" height="206" filterUnits="userSpaceOnUse" color-interpolation-filters="sRGB">
<feFlood flood-opacity="0" result="BackgroundImageFix"/>
<feColorMatrix in="SourceAlpha" type="matrix" values="0 0 0 0 0 0 0 0 0 0 0 0 0 0 0 0 0 0 127 0" result="hardAlpha"/>
<feOffset dy="4"/>
<feGaussianBlur stdDeviation="2"/>
<feComposite in2="hardAlpha" operator="out"/>
<feColorMatrix type="matrix" values="0 0 0 0 0 0 0 0 0 0 0 0 0 0 0 0 0 0 0.25 0"/>
<feBlend mode="normal" in2="BackgroundImageFix" result="effect1_dropShadow_0_859"/>
<feBlend mode="normal" in="SourceGraphic" in2="effect1_dropShadow_0_859" result="shape"/>
</filter>
<filter id="filter1_d_0_859" x="0" y="6.10352e-05" width="152" height="206" filterUnits="userSpaceOnUse" color-interpolation-filters="sRGB">
<feFlood flood-opacity="0" result="BackgroundImageFix"/>
<feColorMatrix in="SourceAlpha" type="matrix" values="0 0 0 0 0 0 0 0 0 0 0 0 0 0 0 0 0 0 127 0" result="hardAlpha"/>
<feOffset dy="4"/>
<feGaussianBlur stdDeviation="2"/>
<feComposite in2="hardAlpha" operator="out"/>
<feColorMatrix type="matrix" values="0 0 0 0 0 0 0 0 0 0 0 0 0 0 0 0 0 0 0.25 0"/>
<feBlend mode="normal" in2="BackgroundImageFix" result="effect1_dropShadow_0_859"/>
<feBlend mode="normal" in="SourceGraphic" in2="effect1_dropShadow_0_859" result="shape"/>
</filter>
</defs>
</svg>
