<svg width="152" height="206" viewBox="0 0 152 206" fill="none" xmlns="http://www.w3.org/2000/svg">
<g filter="url(#filter0_d_0_867)">
<g filter="url(#filter1_d_0_867)">
<path d="M4 10.0001C4 4.47721 8.47715 6.10352e-05 14 6.10352e-05H138C143.523 6.10352e-05 148 4.47721 148 10.0001V188C148 193.523 143.523 198 138 198H14C8.47715 198 4 193.523 4 188V10.0001Z" fill="white"/>
<path d="M4.5 10.0001C4.5 4.75335 8.7533 0.500061 14 0.500061H138C143.247 0.500061 147.5 4.75336 147.5 10.0001V188C147.5 193.247 143.247 197.5 138 197.5H14C8.75329 197.5 4.5 193.247 4.5 188V10.0001Z" stroke="#C5C5C5"/>
</g>
<path d="M27.2903 55.2635C28.1527 56.8461 29.3438 58.1825 30.598 59.4713C30.9213 59.8033 31.2615 60.1179 31.6452 60.4897H21.0008C22.589 58.9574 24.0838 57.419 25.2056 55.5105C24.9321 55.4724 24.8583 55.5773 24.7669 55.644C22.7178 57.1295 19.9554 57.042 18.099 55.4308C16.1805 53.7624 15.7808 51.1519 17.0865 48.9367C17.996 47.3931 19.3194 46.2187 20.658 45.0565C22.0711 43.8292 23.5678 42.6965 24.8646 41.3392C25.412 40.778 25.8918 40.1574 26.2946 39.4897C27.8507 42.1695 30.5385 43.655 32.759 45.6129C33.9386 46.6529 35.0586 47.738 35.7558 49.1663C37.3546 52.4407 35.4485 56.0877 31.8113 56.6485C30.2356 56.892 28.8278 56.4431 27.6091 55.4351L27.3427 55.215C27.332 55.176 27.316 55.1361 27.2681 55.1673C27.2565 55.1716 27.2814 55.228 27.2903 55.2635Z" fill="black"/>
<path d="M26.3283 31.2161C24.8883 31.2161 23.7203 30.9041 22.8243 30.2801C21.9283 29.6561 21.3283 28.6081 21.0243 27.1361H24.5283C24.6723 27.6161 24.8963 27.9441 25.2003 28.1201C25.5203 28.2801 25.8963 28.3601 26.3283 28.3601C26.7123 28.3601 27.0483 28.3121 27.3363 28.2161C27.6243 28.1201 27.8723 27.9441 28.0803 27.6881C28.2883 27.4161 28.4403 27.0481 28.5363 26.5841C28.6483 26.1041 28.7043 25.4961 28.7043 24.7601V24.2081C28.3523 24.5281 27.9203 24.7761 27.4083 24.9521C26.9123 25.1281 26.3043 25.2161 25.5843 25.2161C24.8963 25.2161 24.2563 25.0961 23.6643 24.8561C23.0723 24.6161 22.5603 24.2721 22.1283 23.8241C21.6963 23.3601 21.3523 22.8081 21.0963 22.1681C20.8563 21.5121 20.7363 20.7841 20.7363 19.9841V19.2161C20.7363 17.6001 21.2243 16.3281 22.2003 15.4001C23.1923 14.4561 24.5683 13.9841 26.3283 13.9841C28.1043 13.9841 29.4803 14.4801 30.4563 15.4721C31.4323 16.4481 31.9203 17.9201 31.9203 19.8881V24.2321C31.9203 25.4961 31.8003 26.5761 31.5603 27.4721C31.3203 28.3521 30.9683 29.0721 30.5043 29.6321C30.0403 30.1761 29.4563 30.5761 28.7523 30.8321C28.0643 31.0881 27.2563 31.2161 26.3283 31.2161ZM26.3283 22.3601C27.0163 22.3601 27.5443 22.1681 27.9123 21.7841C28.2963 21.4001 28.4883 20.8481 28.4883 20.1281V19.2161C28.4883 18.4321 28.2963 17.8481 27.9123 17.4641C27.5443 17.0641 27.0163 16.8641 26.3283 16.8641C25.6403 16.8641 25.1043 17.0641 24.7203 17.4641C24.3523 17.8481 24.1683 18.4321 24.1683 19.2161V19.9841C24.1683 20.7841 24.3523 21.3841 24.7203 21.7841C25.1043 22.1681 25.6403 22.3601 26.3283 22.3601Z" fill="black"/>
<path d="M125.036 142.736C124.173 141.154 122.982 139.817 121.728 138.528C121.405 138.196 121.064 137.882 120.681 137.51L131.325 137.51C129.737 139.042 128.242 140.581 127.12 142.489C127.394 142.527 127.468 142.422 127.559 142.356C129.608 140.87 132.371 140.958 134.227 142.569C136.145 144.237 136.545 146.848 135.239 149.063C134.33 150.607 133.006 151.781 131.668 152.943C130.255 154.171 128.758 155.303 127.461 156.661C126.914 157.222 126.434 157.842 126.031 158.51C124.475 155.83 121.787 154.345 119.567 152.387C118.387 151.347 117.267 150.262 116.57 148.833C114.971 145.559 116.877 141.912 120.515 141.351C122.09 141.108 123.498 141.557 124.717 142.565L124.983 142.785C124.994 142.824 125.01 142.864 125.058 142.832C125.069 142.828 125.045 142.772 125.036 142.736Z" fill="black"/>
<path d="M125.998 166.784C127.438 166.784 128.606 167.096 129.502 167.72C130.398 168.344 130.998 169.392 131.302 170.864L127.798 170.864C127.654 170.384 127.43 170.056 127.126 169.88C126.806 169.72 126.43 169.64 125.998 169.64C125.614 169.64 125.278 169.688 124.99 169.784C124.702 169.88 124.454 170.056 124.246 170.312C124.038 170.584 123.886 170.952 123.79 171.416C123.678 171.896 123.622 172.504 123.622 173.24L123.622 173.792C123.974 173.472 124.406 173.224 124.918 173.048C125.414 172.872 126.022 172.784 126.742 172.784C127.43 172.784 128.07 172.904 128.662 173.144C129.254 173.384 129.766 173.728 130.198 174.176C130.63 174.64 130.974 175.192 131.23 175.832C131.47 176.488 131.59 177.216 131.59 178.016L131.59 178.784C131.59 180.4 131.102 181.672 130.126 182.6C129.134 183.544 127.758 184.016 125.998 184.016C124.222 184.016 122.846 183.52 121.87 182.528C120.894 181.552 120.406 180.08 120.406 178.112L120.406 173.768C120.406 172.504 120.526 171.424 120.766 170.528C121.006 169.648 121.358 168.928 121.822 168.368C122.286 167.824 122.87 167.424 123.574 167.168C124.262 166.912 125.07 166.784 125.998 166.784ZM125.998 175.64C125.31 175.64 124.782 175.832 124.414 176.216C124.03 176.6 123.838 177.152 123.838 177.872L123.838 178.784C123.838 179.568 124.03 180.152 124.414 180.536C124.782 180.936 125.31 181.136 125.998 181.136C126.686 181.136 127.222 180.936 127.606 180.536C127.974 180.152 128.158 179.568 128.158 178.784L128.158 178.016C128.158 177.216 127.974 176.616 127.606 176.216C127.222 175.832 126.686 175.64 125.998 175.64Z" fill="black"/>
</g>
<defs>
<filter id="filter0_d_0_867" x="0" y="6.10352e-05" width="152" height="206" filterUnits="userSpaceOnUse" color-interpolation-filters="sRGB">
<feFlood flood-opacity="0" result="BackgroundImageFix"/>
<feColorMatrix in="SourceAlpha" type="matrix" values="0 0 0 0 0 0 0 0 0 0 0 0 0 0 0 0 0 0 127 0" result="hardAlpha"/>
<feOffset dy="4"/>
<feGaussianBlur stdDeviation="2"/>
<feComposite in2="hardAlpha" operator="out"/>
<feColorMatrix type="matrix" values="0 0 0 0 0 0 0 0 0 0 0 0 0 0 0 0 0 0 0.25 0"/>
<feBlend mode="normal" in2="BackgroundImageFix" result="effect1_dropShadow_0_867"/>
<feBlend mode="normal" in="SourceGraphic" in2="effect1_dropShadow_0_867" result="shape"/>
</filter>
<filter id="filter1_d_0_867" x="0" y="6.10352e-05" width="152" height="206" filterUnits="userSpaceOnUse" color-interpolation-filters="sRGB">
<feFlood flood-opacity="0" result="BackgroundImageFix"/>
<feColorMatrix in="SourceAlpha" type="matrix" values="0 0 0 0 0 0 0 0 0 0 0 0 0 0 0 0 0 0 127 0" result="hardAlpha"/>
<feOffset dy="4"/>
<feGaussianBlur stdDeviation="2"/>
<feComposite in2="hardAlpha" operator="out"/>
<feColorMatrix type="matrix" values="0 0 0 0 0 0 0 0 0 0 0 0 0 0 0 0 0 0 0.25 0"/>
<feBlend mode="normal" in2="BackgroundImageFix" result="effect1_dropShadow_0_867"/>
<feBlend mode="normal" in="SourceGraphic" in2="effect1_dropShadow_0_867" result="shape"/>
</filter>
</defs>
</svg>
