<svg width="152" height="206" viewBox="0 0 152 206" fill="none" xmlns="http://www.w3.org/2000/svg">
<g filter="url(#filter0_d_0_883)">
<g filter="url(#filter1_d_0_883)">
<path d="M4 10.0001C4 4.47721 8.47715 6.10352e-05 14 6.10352e-05H138C143.523 6.10352e-05 148 4.47721 148 10.0001V188C148 193.523 143.523 198 138 198H14C8.47715 198 4 193.523 4 188V10.0001Z" fill="white"/>
<path d="M4.5 10.0001C4.5 4.75335 8.7533 0.500061 14 0.500061H138C143.247 0.500061 147.5 4.75336 147.5 10.0001V188C147.5 193.247 143.247 197.5 138 197.5H14C8.75329 197.5 4.5 193.247 4.5 188V10.0001Z" stroke="#C5C5C5"/>
</g>
<path d="M27.2903 55.2635C28.1527 56.8461 29.3438 58.1825 30.598 59.4713C30.9213 59.8033 31.2615 60.1179 31.6452 60.4897H21.0008C22.589 58.9574 24.0838 57.419 25.2056 55.5105C24.9321 55.4724 24.8583 55.5773 24.7669 55.644C22.7178 57.1295 19.9554 57.042 18.099 55.4308C16.1805 53.7624 15.7808 51.1519 17.0865 48.9367C17.996 47.3931 19.3194 46.2187 20.658 45.0565C22.0711 43.8292 23.5678 42.6965 24.8646 41.3392C25.412 40.778 25.8918 40.1574 26.2946 39.4897C27.8507 42.1695 30.5385 43.655 32.759 45.6129C33.9386 46.6529 35.0586 47.738 35.7558 49.1663C37.3546 52.4407 35.4485 56.0877 31.8113 56.6485C30.2356 56.892 28.8278 56.4431 27.6091 55.4351L27.3427 55.215C27.332 55.176 27.316 55.1361 27.2681 55.1673C27.2565 55.1716 27.2814 55.228 27.2903 55.2635Z" fill="black"/>
<path d="M26.0095 31.2161C24.2015 31.2161 22.8575 30.7761 21.9775 29.8961C21.0975 29.0001 20.6255 27.7281 20.5615 26.0801H23.9935C24.0575 26.8001 24.2495 27.3441 24.5695 27.7121C24.8895 28.0801 25.3695 28.2641 26.0095 28.2641C26.3615 28.2641 26.6655 28.2161 26.9215 28.1201C27.1935 28.0081 27.4175 27.8321 27.5935 27.5921C27.7695 27.3361 27.9055 27.0001 28.0015 26.5841C28.0975 26.1521 28.1455 25.6241 28.1455 25.0001V14.2001H31.5775V25.0001C31.5775 27.1921 31.1135 28.7761 30.1855 29.7521C29.2735 30.7281 27.8815 31.2161 26.0095 31.2161Z" fill="black"/>
<path d="M125.036 142.736C124.173 141.154 122.982 139.817 121.728 138.528C121.405 138.196 121.064 137.882 120.681 137.51L131.325 137.51C129.737 139.042 128.242 140.581 127.12 142.489C127.394 142.527 127.468 142.422 127.559 142.356C129.608 140.87 132.371 140.958 134.227 142.569C136.145 144.237 136.545 146.848 135.239 149.063C134.33 150.607 133.006 151.781 131.668 152.943C130.255 154.171 128.758 155.303 127.461 156.661C126.914 157.222 126.434 157.842 126.031 158.51C124.475 155.83 121.787 154.345 119.567 152.387C118.387 151.347 117.267 150.262 116.57 148.833C114.971 145.559 116.877 141.912 120.515 141.351C122.09 141.108 123.498 141.557 124.717 142.565L124.983 142.785C124.994 142.824 125.01 142.864 125.058 142.832C125.069 142.828 125.045 142.772 125.036 142.736Z" fill="black"/>
<path d="M126.316 166.784C128.124 166.784 129.468 167.224 130.348 168.104C131.228 169 131.7 170.272 131.764 171.92L128.332 171.92C128.268 171.2 128.076 170.656 127.756 170.288C127.436 169.92 126.956 169.736 126.316 169.736C125.964 169.736 125.66 169.784 125.404 169.88C125.132 169.992 124.908 170.168 124.732 170.408C124.556 170.664 124.42 171 124.324 171.416C124.228 171.848 124.18 172.376 124.18 173L124.18 183.8L120.748 183.8L120.748 173C120.748 170.808 121.212 169.224 122.14 168.248C123.052 167.272 124.444 166.784 126.316 166.784Z" fill="black"/>
</g>
<defs>
<filter id="filter0_d_0_883" x="0" y="6.10352e-05" width="152" height="206" filterUnits="userSpaceOnUse" color-interpolation-filters="sRGB">
<feFlood flood-opacity="0" result="BackgroundImageFix"/>
<feColorMatrix in="SourceAlpha" type="matrix" values="0 0 0 0 0 0 0 0 0 0 0 0 0 0 0 0 0 0 127 0" result="hardAlpha"/>
<feOffset dy="4"/>
<feGaussianBlur stdDeviation="2"/>
<feComposite in2="hardAlpha" operator="out"/>
<feColorMatrix type="matrix" values="0 0 0 0 0 0 0 0 0 0 0 0 0 0 0 0 0 0 0.25 0"/>
<feBlend mode="normal" in2="BackgroundImageFix" result="effect1_dropShadow_0_883"/>
<feBlend mode="normal" in="SourceGraphic" in2="effect1_dropShadow_0_883" result="shape"/>
</filter>
<filter id="filter1_d_0_883" x="0" y="6.10352e-05" width="152" height="206" filterUnits="userSpaceOnUse" color-interpolation-filters="sRGB">
<feFlood flood-opacity="0" result="BackgroundImageFix"/>
<feColorMatrix in="SourceAlpha" type="matrix" values="0 0 0 0 0 0 0 0 0 0 0 0 0 0 0 0 0 0 127 0" result="hardAlpha"/>
<feOffset dy="4"/>
<feGaussianBlur stdDeviation="2"/>
<feComposite in2="hardAlpha" operator="out"/>
<feColorMatrix type="matrix" values="0 0 0 0 0 0 0 0 0 0 0 0 0 0 0 0 0 0 0.25 0"/>
<feBlend mode="normal" in2="BackgroundImageFix" result="effect1_dropShadow_0_883"/>
<feBlend mode="normal" in="SourceGraphic" in2="effect1_dropShadow_0_883" result="shape"/>
</filter>
</defs>
</svg>
