<svg width="152" height="206" viewBox="0 0 152 206" fill="none" xmlns="http://www.w3.org/2000/svg">
<g filter="url(#filter0_d_0_899)">
<g filter="url(#filter1_d_0_899)">
<path d="M4 10.0001C4 4.47721 8.47715 6.10352e-05 14 6.10352e-05H138C143.523 6.10352e-05 148 4.47721 148 10.0001V188C148 193.523 143.523 198 138 198H14C8.47715 198 4 193.523 4 188V10.0001Z" fill="white"/>
<path d="M4.5 10.0001C4.5 4.75335 8.7533 0.500061 14 0.500061H138C143.247 0.500061 147.5 4.75336 147.5 10.0001V188C147.5 193.247 143.247 197.5 138 197.5H14C8.75329 197.5 4.5 193.247 4.5 188V10.0001Z" stroke="#C5C5C5"/>
</g>
<path d="M27.2903 55.2635C28.1527 56.8461 29.3438 58.1825 30.598 59.4713C30.9213 59.8033 31.2615 60.1179 31.6452 60.4897H21.0008C22.589 58.9574 24.0838 57.419 25.2056 55.5105C24.9321 55.4724 24.8583 55.5773 24.7669 55.644C22.7178 57.1295 19.9554 57.042 18.099 55.4308C16.1805 53.7624 15.7808 51.1519 17.0865 48.9367C17.996 47.3931 19.3194 46.2187 20.658 45.0565C22.0711 43.8292 23.5678 42.6965 24.8646 41.3392C25.412 40.778 25.8918 40.1574 26.2946 39.4897C27.8507 42.1695 30.5385 43.655 32.759 45.6129C33.9386 46.6529 35.0586 47.738 35.7558 49.1663C37.3546 52.4407 35.4485 56.0877 31.8113 56.6485C30.2356 56.892 28.8278 56.4431 27.6091 55.4351L27.3427 55.215C27.332 55.176 27.316 55.1361 27.2681 55.1673C27.2565 55.1716 27.2814 55.228 27.2903 55.2635Z" fill="black"/>
<path d="M20.5763 14.2001H24.0083V21.4961L29.4323 14.2001H33.4163L28.1843 20.9921L34.4723 31.0001H30.4163L25.9283 23.5121L24.0083 25.9361V31.0001H20.5763V14.2001Z" fill="black"/>
<path d="M125.036 142.736C124.173 141.154 122.982 139.817 121.728 138.528C121.405 138.196 121.064 137.882 120.681 137.51L131.325 137.51C129.737 139.042 128.242 140.581 127.12 142.489C127.394 142.527 127.468 142.422 127.559 142.356C129.608 140.87 132.371 140.958 134.227 142.569C136.145 144.237 136.545 146.848 135.239 149.063C134.33 150.607 133.006 151.781 131.668 152.943C130.255 154.171 128.758 155.303 127.461 156.661C126.914 157.222 126.434 157.842 126.031 158.51C124.475 155.83 121.787 154.345 119.567 152.387C118.387 151.347 117.267 150.262 116.57 148.833C114.971 145.559 116.877 141.912 120.515 141.351C122.09 141.108 123.498 141.557 124.717 142.565L124.983 142.785C124.994 142.824 125.01 142.864 125.058 142.832C125.069 142.828 125.045 142.772 125.036 142.736Z" fill="black"/>
<path d="M131.75 183.8L128.318 183.8L128.318 176.504L122.894 183.8L118.91 183.8L124.142 177.008L117.854 167L121.91 167L126.398 174.488L128.318 172.064L128.318 167L131.75 167L131.75 183.8Z" fill="black"/>
</g>
<defs>
<filter id="filter0_d_0_899" x="0" y="6.10352e-05" width="152" height="206" filterUnits="userSpaceOnUse" color-interpolation-filters="sRGB">
<feFlood flood-opacity="0" result="BackgroundImageFix"/>
<feColorMatrix in="SourceAlpha" type="matrix" values="0 0 0 0 0 0 0 0 0 0 0 0 0 0 0 0 0 0 127 0" result="hardAlpha"/>
<feOffset dy="4"/>
<feGaussianBlur stdDeviation="2"/>
<feComposite in2="hardAlpha" operator="out"/>
<feColorMatrix type="matrix" values="0 0 0 0 0 0 0 0 0 0 0 0 0 0 0 0 0 0 0.25 0"/>
<feBlend mode="normal" in2="BackgroundImageFix" result="effect1_dropShadow_0_899"/>
<feBlend mode="normal" in="SourceGraphic" in2="effect1_dropShadow_0_899" result="shape"/>
</filter>
<filter id="filter1_d_0_899" x="0" y="6.10352e-05" width="152" height="206" filterUnits="userSpaceOnUse" color-interpolation-filters="sRGB">
<feFlood flood-opacity="0" result="BackgroundImageFix"/>
<feColorMatrix in="SourceAlpha" type="matrix" values="0 0 0 0 0 0 0 0 0 0 0 0 0 0 0 0 0 0 127 0" result="hardAlpha"/>
<feOffset dy="4"/>
<feGaussianBlur stdDeviation="2"/>
<feComposite in2="hardAlpha" operator="out"/>
<feColorMatrix type="matrix" values="0 0 0 0 0 0 0 0 0 0 0 0 0 0 0 0 0 0 0.25 0"/>
<feBlend mode="normal" in2="BackgroundImageFix" result="effect1_dropShadow_0_899"/>
<feBlend mode="normal" in="SourceGraphic" in2="effect1_dropShadow_0_899" result="shape"/>
</filter>
</defs>
</svg>
