<svg width="152" height="206" viewBox="0 0 152 206" fill="none" xmlns="http://www.w3.org/2000/svg">
<g filter="url(#filter0_d_0_891)">
<g filter="url(#filter1_d_0_891)">
<path d="M4 10.0001C4 4.47721 8.47715 6.10352e-05 14 6.10352e-05H138C143.523 6.10352e-05 148 4.47721 148 10.0001V188C148 193.523 143.523 198 138 198H14C8.47715 198 4 193.523 4 188V10.0001Z" fill="white"/>
<path d="M4.5 10.0001C4.5 4.75335 8.7533 0.500061 14 0.500061H138C143.247 0.500061 147.5 4.75336 147.5 10.0001V188C147.5 193.247 143.247 197.5 138 197.5H14C8.75329 197.5 4.5 193.247 4.5 188V10.0001Z" stroke="#C5C5C5"/>
</g>
<path d="M27.2903 55.2635C28.1527 56.8461 29.3438 58.1825 30.598 59.4713C30.9213 59.8033 31.2615 60.1179 31.6452 60.4897H21.0008C22.589 58.9574 24.0838 57.419 25.2056 55.5105C24.9321 55.4724 24.8583 55.5773 24.7669 55.644C22.7178 57.1295 19.9554 57.042 18.099 55.4308C16.1805 53.7624 15.7808 51.1519 17.0865 48.9367C17.996 47.3931 19.3194 46.2187 20.658 45.0565C22.0711 43.8292 23.5678 42.6965 24.8646 41.3392C25.412 40.778 25.8918 40.1574 26.2946 39.4897C27.8507 42.1695 30.5385 43.655 32.759 45.6129C33.9386 46.6529 35.0586 47.738 35.7558 49.1663C37.3546 52.4407 35.4485 56.0877 31.8113 56.6485C30.2356 56.892 28.8278 56.4431 27.6091 55.4351L27.3427 55.215C27.332 55.176 27.316 55.1361 27.2681 55.1673C27.2565 55.1716 27.2814 55.228 27.2903 55.2635Z" fill="black"/>
<path d="M30.3309 30.3041C29.8349 30.6241 29.2829 30.8561 28.6749 31.0001C28.0669 31.1441 27.4109 31.2161 26.7069 31.2161C24.6429 31.2161 23.0109 30.5761 21.8109 29.2961C20.6269 28.0001 20.0349 26.0161 20.0349 23.3441V21.4241C20.0349 18.9761 20.6269 17.1281 21.8109 15.8801C23.0109 14.6161 24.6429 13.9841 26.7069 13.9841C28.7709 13.9841 30.3949 14.6161 31.5789 15.8801C32.7789 17.1281 33.3789 18.9761 33.3789 21.4241V23.3441C33.3789 24.4161 33.2749 25.3761 33.0669 26.2241C32.8749 27.0561 32.5949 27.7841 32.2269 28.4081L33.8109 30.0161L31.9389 31.8881L30.3309 30.3041ZM26.7069 28.2641C26.9469 28.2641 27.1709 28.2401 27.3789 28.1921C27.6029 28.1441 27.8029 28.0641 27.9789 27.9521L26.2749 26.2241L28.1709 24.3521L29.6349 25.8401C29.8429 25.2001 29.9469 24.3681 29.9469 23.3441V21.4241C29.9469 19.8081 29.6589 18.6561 29.0829 17.9681C28.5069 17.2801 27.7149 16.9361 26.7069 16.9361C25.6989 16.9361 24.9069 17.2801 24.3309 17.9681C23.7549 18.6561 23.4669 19.8081 23.4669 21.4241V23.3441C23.4669 24.2721 23.5389 25.0561 23.6829 25.6961C23.8429 26.3201 24.0589 26.8241 24.3309 27.2081C24.6029 27.5921 24.9389 27.8641 25.3389 28.0241C25.7389 28.1841 26.1949 28.2641 26.7069 28.2641Z" fill="black"/>
<path d="M125.036 142.736C124.173 141.154 122.982 139.817 121.728 138.528C121.405 138.196 121.064 137.882 120.681 137.51L131.325 137.51C129.737 139.042 128.242 140.581 127.12 142.489C127.394 142.527 127.468 142.422 127.559 142.356C129.608 140.87 132.371 140.958 134.227 142.569C136.145 144.237 136.545 146.848 135.239 149.063C134.33 150.607 133.006 151.781 131.668 152.943C130.255 154.171 128.758 155.303 127.461 156.661C126.914 157.222 126.434 157.842 126.031 158.51C124.475 155.83 121.787 154.345 119.567 152.387C118.387 151.347 117.267 150.262 116.57 148.833C114.971 145.559 116.877 141.912 120.515 141.351C122.09 141.108 123.498 141.557 124.717 142.565L124.983 142.785C124.994 142.824 125.01 142.864 125.058 142.832C125.069 142.828 125.045 142.772 125.036 142.736Z" fill="black"/>
<path d="M121.995 167.696C122.491 167.376 123.043 167.144 123.651 167C124.259 166.856 124.915 166.784 125.619 166.784C127.683 166.784 129.315 167.424 130.515 168.704C131.699 170 132.291 171.984 132.291 174.656L132.291 176.576C132.291 179.024 131.699 180.872 130.515 182.12C129.315 183.384 127.683 184.016 125.619 184.016C123.555 184.016 121.931 183.384 120.747 182.12C119.547 180.872 118.947 179.024 118.947 176.576L118.947 174.656C118.947 173.584 119.051 172.624 119.259 171.776C119.451 170.944 119.731 170.216 120.099 169.592L118.515 167.984L120.387 166.112L121.995 167.696ZM125.619 169.736C125.379 169.736 125.155 169.76 124.947 169.808C124.723 169.856 124.523 169.936 124.347 170.048L126.051 171.776L124.155 173.648L122.691 172.16C122.483 172.8 122.379 173.632 122.379 174.656L122.379 176.576C122.379 178.192 122.667 179.344 123.243 180.032C123.819 180.72 124.611 181.064 125.619 181.064C126.627 181.064 127.419 180.72 127.995 180.032C128.571 179.344 128.859 178.192 128.859 176.576L128.859 174.656C128.859 173.728 128.787 172.944 128.643 172.304C128.483 171.68 128.267 171.176 127.995 170.792C127.723 170.408 127.387 170.136 126.987 169.976C126.587 169.816 126.131 169.736 125.619 169.736Z" fill="black"/>
</g>
<defs>
<filter id="filter0_d_0_891" x="0" y="6.10352e-05" width="152" height="206" filterUnits="userSpaceOnUse" color-interpolation-filters="sRGB">
<feFlood flood-opacity="0" result="BackgroundImageFix"/>
<feColorMatrix in="SourceAlpha" type="matrix" values="0 0 0 0 0 0 0 0 0 0 0 0 0 0 0 0 0 0 127 0" result="hardAlpha"/>
<feOffset dy="4"/>
<feGaussianBlur stdDeviation="2"/>
<feComposite in2="hardAlpha" operator="out"/>
<feColorMatrix type="matrix" values="0 0 0 0 0 0 0 0 0 0 0 0 0 0 0 0 0 0 0.25 0"/>
<feBlend mode="normal" in2="BackgroundImageFix" result="effect1_dropShadow_0_891"/>
<feBlend mode="normal" in="SourceGraphic" in2="effect1_dropShadow_0_891" result="shape"/>
</filter>
<filter id="filter1_d_0_891" x="0" y="6.10352e-05" width="152" height="206" filterUnits="userSpaceOnUse" color-interpolation-filters="sRGB">
<feFlood flood-opacity="0" result="BackgroundImageFix"/>
<feColorMatrix in="SourceAlpha" type="matrix" values="0 0 0 0 0 0 0 0 0 0 0 0 0 0 0 0 0 0 127 0" result="hardAlpha"/>
<feOffset dy="4"/>
<feGaussianBlur stdDeviation="2"/>
<feComposite in2="hardAlpha" operator="out"/>
<feColorMatrix type="matrix" values="0 0 0 0 0 0 0 0 0 0 0 0 0 0 0 0 0 0 0.25 0"/>
<feBlend mode="normal" in2="BackgroundImageFix" result="effect1_dropShadow_0_891"/>
<feBlend mode="normal" in="SourceGraphic" in2="effect1_dropShadow_0_891" result="shape"/>
</filter>
</defs>
</svg>
