<svg width="50" height="50" viewBox="0 0 50 50" fill="none" xmlns="http://www.w3.org/2000/svg">
<path fill-rule="evenodd" clip-rule="evenodd" d="M40.9943 0.00579805C44.5722 -0.123889 47.7459 1.94655 49.5528 3.75349C50.1491 4.34971 50.1491 5.31637 49.5528 5.91259C48.9566 6.50881 47.99 6.50881 47.3937 5.91259C45.8928 4.41164 43.494 2.97063 41.1049 3.05723C38.921 3.13639 36.1543 4.53248 33.8498 10.0056C33.5226 10.7827 32.6274 11.1475 31.8503 10.8203C31.0732 10.4931 30.7085 9.59784 31.0357 8.82074C33.6167 2.69085 37.2113 0.142923 40.9943 0.00579805Z" fill="#F82F2F"/>
<path d="M28.8013 3.86514C29.2229 3.13493 30.1567 2.88474 30.8869 3.30633L38.8199 7.88648C39.5501 8.30807 39.8003 9.24179 39.3787 9.97201L35.5419 16.6176L24.9645 10.5107L28.8013 3.86514Z" fill="url(#paint0_linear_14_266)"/>
<path d="M41.2214 28.4972C41.2214 39.8801 31.9936 49.1078 20.6107 49.1078C9.22771 49.1078 0 39.8801 0 28.4972C0 17.1142 9.22771 7.88647 20.6107 7.88647C31.9936 7.88647 41.2214 17.1142 41.2214 28.4972Z" fill="#1F2430"/>
<path d="M28.2443 24.2987C28.2443 31.2549 22.6051 36.8941 15.6489 36.8941C8.69263 36.8941 3.05347 31.2549 3.05347 24.2987C3.05347 17.3424 8.69263 11.7032 15.6489 11.7032C22.6051 11.7032 28.2443 17.3424 28.2443 24.2987Z" fill="url(#paint1_radial_14_266)"/>
<defs>
<linearGradient id="paint0_linear_14_266" x1="34.8534" y1="5.5964" x2="30.2532" y2="13.5642" gradientUnits="userSpaceOnUse">
<stop stop-color="#573434"/>
<stop offset="1" stop-color="#1F2430"/>
</linearGradient>
<radialGradient id="paint1_radial_14_266" cx="0" cy="0" r="1" gradientUnits="userSpaceOnUse" gradientTransform="translate(15.6489 24.2987) rotate(90) scale(12.5954)">
<stop stop-color="#573434"/>
<stop offset="1" stop-color="#1F2430"/>
</radialGradient>
</defs>
</svg>
