<svg width="17" height="12" viewBox="0 0 17 12" fill="none" xmlns="http://www.w3.org/2000/svg">
<path d="M13.7112 1.00502C12.6946 0.529349 11.6191 0.191364 10.5131 0C10.3753 0.24906 10.2144 0.584047 10.1034 0.850547C8.91096 0.671245 7.72948 0.671245 6.55897 0.850547C6.44803 0.584107 6.28344 0.24906 6.14441 0C5.03735 0.191452 3.96092 0.530298 2.94381 1.0075C0.919841 4.06604 0.371158 7.04853 0.645469 9.98881C1.9879 10.9913 3.28885 11.6003 4.56788 11.9988C4.88575 11.5617 5.16674 11.0989 5.40795 10.6152C4.94872 10.4404 4.50601 10.2249 4.08508 9.97137C4.19585 9.88927 4.30401 9.8037 4.40941 9.7148C6.96008 10.9078 9.73153 10.9078 12.2518 9.7148C12.3577 9.80311 12.4658 9.88866 12.5761 9.97137C12.1545 10.2256 11.7109 10.4414 11.2508 10.6165C11.4934 11.1021 11.7738 11.5653 12.0909 12C13.3711 11.6016 14.6733 10.9926 16.0157 9.98881C16.3376 6.58032 15.4658 3.62515 13.7112 1.00496V1.00502ZM5.75547 8.18059C4.98976 8.18059 4.36181 7.46575 4.36181 6.59528C4.36181 5.72481 4.97638 5.00875 5.75547 5.00875C6.53462 5.00875 7.16251 5.72354 7.14913 6.59528C7.15034 7.46575 6.53462 8.18059 5.75547 8.18059ZM10.9057 8.18059C10.14 8.18059 9.51208 7.46575 9.51208 6.59528C9.51208 5.72481 10.1266 5.00875 10.9057 5.00875C11.6848 5.00875 12.3127 5.72354 12.2993 6.59528C12.2993 7.46575 11.6848 8.18059 10.9057 8.18059Z" fill="white"/>
</svg>
