<svg width="234" height="50" viewBox="0 0 234 50" fill="none" xmlns="http://www.w3.org/2000/svg">
<path d="M49.7757 32.8381C49.7757 32.5346 49.7532 32.2262 49.7232 31.9202C49.7107 31.7866 49.6982 31.6579 49.6807 31.5317L49.3804 31.2354H49.3679C48.9825 30.8566 48.6372 30.5069 48.3019 30.1354C48.2494 30.0771 48.1994 30.0164 48.1518 29.9581C47.6846 29.4216 47.2809 28.836 46.9482 28.2122C46.8782 28.0835 46.8156 27.9523 46.7581 27.8236C46.4293 27.0247 46.2114 26.1868 46.11 25.3322L46.0424 24.8465C45.9549 24.0904 45.8043 23.3425 45.5921 22.61C45.5545 22.4886 45.512 22.3672 45.4669 22.2531C45.2551 21.6838 44.9323 21.1594 44.5161 20.7087C44.4906 20.6826 44.4722 20.6507 44.4625 20.6159C44.4529 20.5811 44.4524 20.5446 44.4611 20.5095C44.5086 20.3201 44.5661 20.1356 44.6287 19.9583C44.4535 19.8466 44.2784 19.7349 44.0982 19.6256L43.8255 19.4532C43.7029 19.4678 43.5753 19.4799 43.4402 19.4896C43.305 19.4994 43.1174 19.5066 42.9572 19.5066C42.2952 19.5079 41.637 19.4104 41.0055 19.2177C40.9004 19.1861 40.7928 19.1497 40.6852 19.106C40.4741 19.0394 40.2818 18.9263 40.1233 18.7754C39.9649 18.6246 39.8446 18.4402 39.7719 18.2366C39.7099 17.985 39.7078 17.723 39.7659 17.4705C39.824 17.218 39.9408 16.9817 40.1072 16.7796C40.2156 16.6388 40.3388 16.5094 40.475 16.3935C40.5725 16.3077 40.6744 16.2266 40.7803 16.1507L40.8128 16.1289C40.8529 15.9977 40.8879 15.8666 40.9204 15.7379C40.9204 15.7063 40.9379 15.6748 40.9455 15.6408C41.08 15.1211 41.1869 14.5951 41.2657 14.0648C41.2657 14.0162 41.2808 13.9701 41.2858 13.9215C41.3158 13.7127 41.3408 13.5038 41.3608 13.2974C41.3808 13.091 41.3958 12.9235 41.4059 12.7462C41.4059 12.7195 41.4059 12.6904 41.4059 12.6637C41.3258 12.4961 41.2407 12.3285 41.1556 12.1634C41.1546 12.1586 41.1546 12.1537 41.1556 12.1489C41.0255 11.906 40.8879 11.6899 40.7403 11.4762C40.3492 10.8921 39.8692 10.3689 39.3165 9.92451C38.5258 9.29558 37.565 8.89976 36.6342 8.54766C35.6099 8.15743 34.562 7.82819 33.4964 7.56176C32.4905 7.31287 31.4692 7.12713 30.4387 7.00568C30.3897 7.00023 30.3439 6.97915 30.3086 6.94575C30.2733 6.91235 30.2504 6.86852 30.2435 6.82112V6.82112C30.232 6.70369 30.1939 6.59017 30.1321 6.48861C30.0702 6.38705 29.9861 6.29994 29.8857 6.23347C29.6899 6.13076 29.4775 6.06097 29.2577 6.02706C28.9499 5.9615 28.6571 5.90565 28.3669 5.85951C27.6383 5.73758 26.9031 5.6565 26.1649 5.61668V5.61668C25.8521 5.59968 25.5419 5.5924 25.2341 5.5924C25.0564 5.5924 24.8813 5.5924 24.7061 5.5924C24.4059 5.5924 24.1031 5.62154 23.7803 5.6531H23.7578C23.7173 5.65334 23.6774 5.64284 23.6426 5.62272C23.6078 5.60261 23.5793 5.57365 23.5601 5.53897C23.5389 5.50082 23.5298 5.45745 23.5338 5.41427C23.5378 5.37109 23.5548 5.33001 23.5826 5.29614C23.6437 5.22724 23.6835 5.14311 23.6977 5.05331C23.7228 4.76434 23.41 4.52879 23.1322 4.35638L23.1122 4.34424C22.6602 4.06094 22.2056 3.77925 21.7485 3.49919L21.0654 3.08152L18.9936 1.81151C18.9085 1.76051 18.8235 1.70223 18.7434 1.64638C18.4608 1.42523 18.1308 1.2684 17.7775 1.18743H17.6674C17.2971 1.18743 16.9443 1.41569 16.629 1.61724L13.9842 3.31706C13.947 3.3408 13.9035 3.35347 13.8591 3.35349C13.8207 3.35289 13.7831 3.34375 13.749 3.32678C13.2485 3.05724 12.7481 2.79983 12.2476 2.55457L11.8398 2.35059C11.5595 2.20975 11.2868 2.07619 11.0216 1.94992C10.3485 1.62453 9.72543 1.33799 9.1324 1.08059C8.63196 0.864466 8.18157 0.679914 7.75619 0.517217C7.62608 0.466222 7.48845 0.415226 7.34583 0.371516C7.0881 0.280327 6.81685 0.230302 6.54262 0.223389H6.43753C6.01061 0.257483 5.60747 0.428327 5.29152 0.709052C5.02527 0.93483 4.78605 1.18898 4.57839 1.46669C4.15473 2.04224 3.79412 2.65914 3.50244 3.30735L3.2272 3.90229C3.01201 4.36852 2.79432 4.8469 2.54159 5.30828C2.42899 5.51469 2.30889 5.71867 2.18127 5.91536C2.01363 6.17762 1.83097 6.43745 1.65581 6.68514C1.34143 7.1126 1.05478 7.55866 0.797555 8.02071C0.678265 8.24291 0.576225 8.47342 0.492286 8.71035C0.443965 8.84721 0.403863 8.98667 0.372181 9.12802C0.278256 9.436 0.303163 9.76663 0.442242 10.0581C0.582366 10.3009 0.855107 10.4247 1.27548 10.4563C1.38307 10.4563 1.49817 10.4685 1.61828 10.4685C1.93899 10.4659 2.25917 10.4424 2.57662 10.398C3.47124 10.2893 4.33977 10.0313 5.14389 9.63554L5.21895 9.59669C5.25329 9.57776 5.29206 9.56773 5.33155 9.56755C5.39023 9.56814 5.44641 9.5907 5.48836 9.63051C5.53032 9.67033 5.55482 9.72433 5.55675 9.78124L5.58177 10.7793C5.58282 10.817 5.57367 10.8543 5.55524 10.8876C5.5368 10.9208 5.50971 10.9488 5.47668 10.9687C4.87074 11.3683 4.30597 11.8237 3.7902 12.3285C3.30029 12.7964 2.85864 13.3096 2.47153 13.8608C1.69928 14.9069 1.2639 16.1516 1.22043 17.4377C1.2175 17.8218 1.25608 18.2052 1.33553 18.5815C1.34796 18.6185 1.34796 18.6585 1.33553 18.6956C1.26797 18.885 1.20542 19.0695 1.15037 19.2492C0.8036 20.2614 0.645986 21.3255 0.684957 22.3915C0.691917 22.9057 0.840514 23.4088 1.11534 23.8485C1.17066 23.9388 1.247 24.0152 1.33825 24.0717C1.4295 24.1282 1.53311 24.1632 1.6408 24.1739H1.72087H1.7559C1.81523 24.1751 1.87177 24.1985 1.91373 24.2393C1.95569 24.28 1.97982 24.3348 1.9811 24.3924C1.98369 24.4361 1.98369 24.4799 1.9811 24.5235C1.93896 24.989 1.80562 25.4423 1.58825 25.8591C1.30395 26.4641 1.09561 27.1 0.967707 27.7532C0.917663 28.013 0.872624 28.302 0.83509 28.625C0.807566 28.8678 0.795052 29.1106 0.79255 29.3535C0.786347 29.6671 0.798042 29.9808 0.82758 30.2932C0.852873 30.0887 0.909377 29.8891 0.995232 29.7007C1.0573 29.564 1.13628 29.4352 1.23044 29.317C1.52534 28.9617 1.93538 28.7135 2.39396 28.6128L3.04203 28.4598C4.15802 28.1952 5.14639 27.9742 5.79446 27.4205C5.90733 27.3267 6.0089 27.2208 6.09723 27.1048C6.55513 26.5075 7.62107 26.2962 8.46432 26.2962C9.36511 26.2962 10.4486 26.539 10.8539 27.2214C10.8725 27.2495 10.8892 27.2787 10.904 27.3088C11.1122 27.8295 11.2469 28.3752 11.3043 28.9309C11.457 29.9703 11.527 31.1868 11.5545 31.9493C11.5721 32.3694 11.5771 32.6535 11.5796 32.6948C11.5793 32.7332 11.5691 32.7709 11.5498 32.8044C11.5306 32.838 11.503 32.8663 11.4695 32.8867C11.4294 32.911 10.4686 33.501 10.4686 35.2057C10.4685 35.2468 10.4565 35.2871 10.434 35.3219C10.4114 35.3567 10.3792 35.3846 10.341 35.4024C10.0596 35.534 9.77146 35.6515 9.47771 35.7545V35.7545C7.3108 36.5243 4.12299 37.0124 3.55499 37.0124C3.37679 37.0154 3.19889 37.0276 3.02202 37.0488H2.9995C2.97132 37.0485 2.94341 37.0436 2.91692 37.0342C2.60788 36.9165 2.33427 36.7253 2.12122 36.4782C1.77107 36.0471 1.57597 35.5166 1.56573 34.9677V34.9677C1.56577 34.9396 1.57085 34.9116 1.58075 34.8852C1.58075 34.8245 1.60327 34.6666 1.61077 34.4432C1.63329 33.8556 1.61077 32.8284 1.20041 32.0878C1.18039 32.0513 1.16038 32.0125 1.14286 31.9761C1.09949 31.8919 1.06196 31.8109 1.03026 31.7332L1.05278 31.8595L1.0753 31.9882C1.22043 32.894 1.34053 33.688 1.13786 34.3874C1.10316 34.5086 1.05709 34.6264 1.00023 34.7395C0.394699 35.9536 0.212039 36.4199 0.414718 37.8963C0.418493 37.9204 0.418493 37.945 0.414718 37.9691C0.414718 37.9691 0.414718 37.9691 0.414718 37.9691C0.285209 38.6146 0.258209 39.2754 0.334649 39.9288C0.386082 40.3919 0.487561 40.8485 0.637414 41.2911C0.837591 41.8763 1.12034 42.2235 1.48066 42.3182C1.54752 42.336 1.61653 42.3449 1.68584 42.345C1.88882 42.3369 2.08801 42.289 2.27135 42.2041L2.41898 42.1434C2.6998 42.0211 2.9881 41.9157 3.28225 41.8277C3.66862 41.7214 4.06521 41.6539 4.46579 41.6262C4.60091 41.6262 4.74103 41.6116 4.87865 41.6116H5.0413H5.18392H5.34907C5.38221 41.6115 5.41494 41.6186 5.44483 41.6325C5.47473 41.6464 5.50101 41.6666 5.52172 41.6917C5.93156 42.1825 6.22157 42.757 6.36997 43.3721C6.50914 43.9371 6.51853 44.5249 6.39749 45.0938C6.39749 45.1302 6.38248 45.1642 6.37498 45.2007C6.33494 45.3634 6.28239 45.5188 6.22985 45.6693C6.14494 45.8932 6.08455 46.1252 6.04969 46.3614C6.02003 46.6923 6.12011 47.0218 6.32993 47.2842C6.56106 47.5685 6.83425 47.8181 7.14065 48.0248C7.45911 48.2525 7.79929 48.4501 8.15654 48.6149C8.5572 48.8008 8.97642 48.9465 9.40765 49.0495C9.6154 49.1024 9.82588 49.1445 10.0382 49.1758C10.0724 49.1806 10.1049 49.1931 10.1333 49.2122L10.2234 49.2681C10.5187 49.4526 10.8433 49.5888 11.1842 49.6712C11.4593 49.7373 11.7416 49.7707 12.025 49.7708C12.1554 49.7707 12.2857 49.7634 12.4153 49.7489C12.7406 49.7272 13.0592 49.6491 13.3561 49.5182C13.3886 49.502 13.4247 49.4936 13.4612 49.4939C13.4886 49.4939 13.5158 49.4988 13.5413 49.5085C13.9897 49.67 14.4643 49.7523 14.9425 49.7513H14.9675C15.3272 49.7517 15.6854 49.7077 16.0335 49.6202L16.1386 49.5935C16.1603 49.5859 16.1831 49.5819 16.2061 49.5813C16.2244 49.579 16.2429 49.579 16.2612 49.5813C16.6579 49.6869 17.0661 49.7464 17.4773 49.7586C17.6659 49.7601 17.8541 49.7397 18.0378 49.6979C18.3151 49.6413 18.5759 49.5251 18.8009 49.3579C18.8411 49.328 18.8904 49.3118 18.9411 49.3118V49.3118C19.0887 49.3118 19.2463 49.3118 19.4415 49.3118H19.5341C19.9747 49.3195 20.4151 49.2894 20.8502 49.2219C21.2447 49.1611 21.626 49.0372 21.9787 48.8553C22.146 48.768 22.3022 48.662 22.4441 48.5396L22.4892 48.5032C22.5294 48.469 22.5809 48.4501 22.6343 48.4497H22.6743C22.8441 48.4434 23.0124 48.4157 23.1748 48.3672C23.6796 48.2432 24.1688 48.0657 24.6336 47.8378C24.9914 47.6557 25.7796 47.17 26.0448 46.3444C26.0837 46.225 26.1106 46.1022 26.1249 45.9777C26.1476 45.7681 26.1332 45.5562 26.0824 45.3512C26.0729 45.3172 26.0724 45.2814 26.0807 45.2471C26.089 45.2128 26.1059 45.181 26.1299 45.1545C26.1509 45.1308 26.177 45.1117 26.2064 45.0987C26.2358 45.0857 26.2678 45.0791 26.3 45.0792H26.3226C27.1361 45.1789 27.9358 45.3654 28.7072 45.6353C29.1626 45.7835 29.6155 45.9462 30.0534 46.1064C30.6264 46.3153 31.2194 46.5289 31.8049 46.7038C32.6187 46.9644 33.4679 47.106 34.3246 47.1239C34.5219 47.1245 34.7191 47.1139 34.9151 47.0923C36.0226 46.9859 37.0727 46.5634 37.9328 45.8782C38.3744 45.5243 38.7524 45.1017 39.0513 44.6276C39.1496 44.4751 39.2398 44.3179 39.3215 44.1565C39.3515 44.0958 39.3791 44.0351 39.4066 43.9768C39.4248 43.9383 39.4541 43.9056 39.4909 43.8828C39.5278 43.86 39.5706 43.8479 39.6143 43.8481H39.6418L40.2048 43.9185C40.7052 43.9792 41.2057 44.0399 41.7061 44.1152C42.119 44.1759 42.5394 44.2463 42.9572 44.3216L43.1299 44.3532H43.1474H43.1824C43.23 44.2876 43.2825 44.2196 43.3376 44.1516C43.4675 43.9916 43.6062 43.8384 43.7529 43.6927C44.1004 43.3635 44.4653 43.0522 44.8464 42.7602L44.919 42.7141C45.7571 42.0593 46.5129 41.3111 47.1709 40.4849C47.4751 40.0973 47.7542 39.6918 48.0067 39.2707C48.6975 38.1407 49.1984 36.9112 49.4905 35.6282C49.5781 35.2519 49.6456 34.8706 49.6957 34.4869C49.7639 33.94 49.7906 33.3889 49.7757 32.8381V32.8381ZM19.2038 29.7566C19.2255 29.5769 19.253 29.3947 19.2864 29.2102C19.356 28.7562 19.4785 28.3114 19.6517 27.8843C19.748 27.6567 19.8715 27.4407 20.0195 27.2408C20.252 26.9245 20.5581 26.6658 20.9128 26.4856C21.4251 26.2476 21.989 26.1326 22.5567 26.1505C22.7094 26.1505 22.8695 26.1505 23.0447 26.1675C23.3124 26.1869 23.5751 26.2185 23.8454 26.2549C23.8792 26.2593 23.9114 26.2712 23.9397 26.2898C23.9679 26.3083 23.9913 26.333 24.008 26.3618C24.3658 26.9567 25.0539 27.3015 25.7746 27.5225C26.0831 27.615 26.3962 27.692 26.7129 27.7532C27.451 27.901 28.197 28.0088 28.9474 28.0762C29.3202 28.1102 29.698 28.1345 30.0759 28.1466H30.4962C30.7139 28.1466 30.9416 28.1466 31.1643 28.1685C31.5369 28.1805 31.9002 28.2841 32.2203 28.4696C32.5026 28.6568 32.735 28.9065 32.8984 29.1981C33.2367 29.8053 33.3903 30.4933 33.3413 31.182C33.2917 31.9376 33.101 32.6782 32.7783 33.3675C32.528 33.9576 32.2002 34.5258 31.885 35.0867L31.8649 35.1231C31.6723 35.4631 31.5121 35.7497 31.3645 36.0508C31.3245 36.1236 31.2869 36.2013 31.2494 36.2766C31.1488 36.4946 31.0343 36.7062 30.9066 36.9104C30.8656 36.9717 30.8214 37.0309 30.774 37.0877C30.6051 37.3065 30.3762 37.4748 30.1134 37.5733C29.8543 37.6594 29.5814 37.6997 29.3077 37.6923H29.0875C27.8658 37.6225 26.6558 37.4222 25.4793 37.0949C25.2291 37.0318 24.9789 36.9614 24.7287 36.8861C24.0856 36.6991 23.4125 36.4806 22.6043 36.1989L22.2765 36.0848C21.7239 35.9103 21.1873 35.691 20.6726 35.4291C20.0745 35.1153 19.6192 34.5955 19.3965 33.9721C19.3764 33.9138 19.3564 33.8556 19.3389 33.7973C19.1779 33.2154 19.0988 32.615 19.1037 32.0125C19.1037 31.9833 19.1037 31.9566 19.1037 31.9275C19.0811 31.2024 19.1145 30.4768 19.2038 29.7566V29.7566Z" fill="white"/>
<path d="M6.93549 3.61816C7.03735 3.77753 7.19121 3.89924 7.37258 3.96393C7.55396 4.02862 7.75242 4.03256 7.93637 3.97513C8.86719 3.63516 8.17408 2.2923 7.49348 2.07133C7.38131 2.02933 7.25857 2.02171 7.1418 2.0495C7.02503 2.07729 6.91984 2.13915 6.84041 2.22674C6.83068 2.23705 6.82228 2.24846 6.81539 2.26074C6.79818 2.27022 6.78354 2.28353 6.77267 2.29957C6.7618 2.31561 6.755 2.33393 6.75283 2.35301V2.37972C6.72831 2.44051 6.71232 2.50421 6.70529 2.56913C6.69521 2.65029 6.7003 2.73255 6.7203 2.81196C6.70236 3.09602 6.7777 3.37829 6.93549 3.61816V3.61816Z" fill="#1B1219"/>
<path d="M49.9459 31.8984C49.9309 31.7381 49.9134 31.5803 49.8909 31.4127L49.5381 31.0655C49.1727 30.7085 48.8099 30.3491 48.4721 29.9654C47.8582 29.2906 47.3521 28.5301 46.9708 27.7095C46.1701 25.9587 46.3703 23.9578 45.6696 22.1681C45.4466 21.5721 45.1067 21.0238 44.6688 20.5533C44.7171 20.3539 44.7781 20.1577 44.8514 19.9656C44.8597 19.9331 44.8572 19.8989 44.8441 19.8679C44.8311 19.8369 44.8082 19.8108 44.7789 19.7932C44.5912 19.6742 44.401 19.5504 44.2109 19.4362L43.863 19.2177C43.7129 19.2396 43.5628 19.2541 43.4127 19.2663C42.6184 19.3233 41.8203 19.2335 41.0606 19.0016C40.6102 18.8632 40.1197 18.6495 39.9746 18.1687C39.922 17.9481 39.9214 17.7189 39.973 17.4981C40.0245 17.2773 40.1269 17.0707 40.2724 16.8938C40.3738 16.7646 40.4878 16.645 40.6127 16.5368C40.7053 16.4567 40.8003 16.3839 40.8979 16.3134L40.993 16.2479C41.0406 16.0925 41.0856 15.937 41.1256 15.7792C41.2751 15.2194 41.3921 14.6519 41.4759 14.0794C41.516 13.8196 41.546 13.5622 41.571 13.3023C41.591 13.1178 41.6061 12.9308 41.6186 12.7462V12.6054C41.531 12.4136 41.4334 12.2266 41.3308 12.042C40.8595 11.1612 40.2141 10.379 39.4316 9.73998C38.6209 9.09405 37.6551 8.6958 36.6792 8.3267C35.6468 7.93349 34.5905 7.60182 33.5164 7.33352C32.5096 7.08444 31.4875 6.89789 30.4562 6.77501C30.4393 6.62658 30.3893 6.48349 30.3098 6.35562C30.2304 6.22775 30.1232 6.11814 29.9958 6.03437C29.7792 5.9151 29.5431 5.83295 29.2977 5.79154C28.9974 5.7284 28.6972 5.67012 28.3944 5.62156C27.1691 5.41826 25.9263 5.33205 24.6836 5.36416C24.3684 5.36416 24.0556 5.39572 23.7428 5.42486C23.8293 5.32567 23.8841 5.20415 23.9005 5.07519C23.9405 4.66237 23.5526 4.3734 23.2349 4.17428L21.8486 3.31708L19.0962 1.61726C18.6959 1.37443 18.263 1.0199 17.7801 0.961617C17.2971 0.903337 16.8668 1.17045 16.4814 1.41814L13.8341 3.11796C13.2035 2.77314 12.5529 2.45989 11.9124 2.14664C11.0166 1.69983 10.1133 1.27001 9.19499 0.87177C8.73708 0.675077 8.27668 0.483239 7.80877 0.303543C7.36618 0.102895 6.88351 -0.000737452 6.39502 3.95015e-06C5.51924 0.0509986 4.86367 0.687218 4.36823 1.33072C3.32231 2.68572 2.88192 4.36855 1.96111 5.7964C1.50321 6.50546 0.960227 7.16839 0.567381 7.91631C0.3667 8.28216 0.217728 8.67259 0.124489 9.07705C0.0189593 9.43782 0.0518568 9.82349 0.217073 10.1625C0.328215 10.3201 0.477707 10.4487 0.652298 10.5368C0.826889 10.6249 1.02118 10.6698 1.21796 10.6676C1.66831 10.6927 2.12013 10.674 2.56664 10.6117C3.48512 10.4968 4.37686 10.2316 5.20397 9.8274L5.29155 9.78126L5.31657 10.7793C5.31657 10.7793 0.0994677 13.9944 1.07533 18.6203C-0.273361 22.3818 0.644948 24.5551 1.70839 24.3876C1.70839 25.5872 0.847628 26.0048 0.559874 28.5959C0.272121 31.1869 1.42063 33.2242 0.732527 34.6157C0.0944646 35.9027 -0.075685 36.4053 0.126994 37.9012C-0.100594 39.0508 -0.0213483 40.2378 0.357196 41.3494C0.51984 41.835 0.810095 42.3741 1.35808 42.5198C1.67632 42.5815 2.0067 42.5379 2.29641 42.396C2.61707 42.2545 2.9463 42.132 3.28228 42.0293C3.65301 41.9262 4.03367 41.8603 4.41828 41.8326C4.60344 41.8205 4.7861 41.818 4.97126 41.8326C5.07636 41.8326 5.18145 41.8447 5.28404 41.8472C5.66784 42.3056 5.93971 42.8423 6.07925 43.4172C6.21879 43.9921 6.22238 44.5902 6.08975 45.1667C5.95452 45.5561 5.84503 45.9536 5.76196 46.3566C5.72463 46.7412 5.8401 47.1251 6.08475 47.4299C6.32787 47.733 6.61729 47.9983 6.943 48.2167C7.27221 48.4542 7.62512 48.6592 7.99643 48.8286C8.61232 49.1097 9.266 49.3051 9.93814 49.409C10.281 49.6341 10.6622 49.7986 11.0641 49.8946C11.4918 49.9973 11.935 50.0252 12.3728 49.9772C12.726 49.9516 13.0717 49.8652 13.3937 49.7222C13.8671 49.8964 14.3687 49.9868 14.875 49.9893C15.2624 49.9919 15.6485 49.9454 16.0235 49.8509L16.1386 49.8193C16.7474 50.0026 17.3922 50.0434 18.0203 49.9383C18.3299 49.8731 18.6211 49.743 18.8735 49.5571H19.374C19.8596 49.5689 20.3453 49.538 20.8252 49.4648C21.2431 49.3983 21.6471 49.2663 22.0213 49.0738C22.2004 48.9787 22.3683 48.8647 22.5217 48.7339L22.5668 48.695C22.7719 48.6944 22.9759 48.665 23.1723 48.6076C23.6917 48.479 24.1951 48.2958 24.6736 48.0612C25.4818 47.6509 26.175 46.9418 26.2851 46.0287C26.3106 45.7939 26.2945 45.5565 26.2375 45.327C27.0345 45.4255 27.8182 45.6079 28.5746 45.8709C29.618 46.2109 30.6314 46.631 31.6823 46.9418C32.7099 47.2817 33.7974 47.4171 34.8801 47.34C36.0301 47.2304 37.1214 46.7946 38.0179 46.087C38.4784 45.7174 38.8732 45.2769 39.1864 44.783C39.3256 44.5656 39.4494 44.3393 39.5568 44.1055C40.2399 44.1929 40.9255 44.2682 41.6086 44.3726C42.0239 44.4333 42.4368 44.5038 42.8597 44.579L43.0774 44.6179L43.225 44.647C43.3001 44.5378 43.3801 44.4333 43.4602 44.3313C43.5848 44.1775 43.7185 44.0307 43.8605 43.8918C44.2373 43.5367 44.6323 43.2004 45.0441 42.8841C45.8972 42.2205 46.6651 41.4598 47.3311 40.6184C48.7271 38.8379 49.6135 36.7311 49.9009 34.5112C50.0157 33.6446 50.0308 32.7682 49.9459 31.8984V31.8984ZM38.163 11.1775C38.5099 11.2265 38.8422 11.3462 39.138 11.5287C39.4339 11.7111 39.6866 11.9523 39.8795 12.2363C39.9436 12.3304 39.9997 12.4295 40.0472 12.5325H39.9796C39.6669 12.5957 39.3541 12.6685 39.0438 12.7535C38.6932 12.8494 38.3482 12.9637 38.0104 13.0959C37.9528 13.0449 37.8978 12.9964 37.8452 12.9429C37.6468 12.7535 37.4596 12.5533 37.2847 12.3431C37.0343 12.0424 36.8044 11.7261 36.5966 11.3961C37.0872 11.1816 37.6301 11.1058 38.163 11.1775V11.1775ZM37.0295 23.0447C37.8886 22.5775 38.667 21.9826 39.3366 21.2818C39.5136 21.0918 39.6806 20.8932 39.837 20.6868C39.8366 20.9864 39.8039 21.2851 39.7394 21.578C39.6023 22.1425 39.3606 22.6781 39.0263 23.1589C38.6774 23.6366 38.3533 24.1309 38.0554 24.6401C37.7902 25.1258 37.575 25.6479 37.3423 26.1554C37.2122 26.4371 37.0796 26.7139 36.9319 26.9859C36.8694 26.8742 36.8068 26.7625 36.7493 26.6483C36.5966 26.3424 36.454 26.0316 36.3239 25.7134C36.0297 25.0672 35.8276 24.385 35.7234 23.6858C35.7234 23.6858 35.7234 23.6639 35.7234 23.6542C36.1732 23.4817 36.6097 23.278 37.0295 23.0447V23.0447ZM35.816 22.6271C36.062 21.8076 36.605 21.1022 37.3448 20.6407C37.7281 20.3936 38.1417 20.1937 38.5759 20.0458C38.3775 20.3762 38.1507 20.6898 37.8978 20.9831C37.3734 21.5876 36.7474 22.1016 36.0462 22.5032C35.9686 22.5591 35.8935 22.5931 35.816 22.6319V22.6271ZM29.5154 7.74633C30.191 7.76576 30.8666 7.80704 31.5397 7.88475C32.8067 8.01114 34.0525 8.29095 35.248 8.71766C35.7506 8.90486 36.2411 9.12138 36.7167 9.36602C36.701 9.43451 36.6951 9.50479 36.6992 9.57485C36.7025 9.66205 36.7288 9.74696 36.7757 9.8214C36.8226 9.89584 36.8885 9.95728 36.967 9.99981C37.1123 10.0565 37.2719 10.0692 37.4249 10.0362C37.4849 10.0362 37.545 10.0217 37.605 10.0192C37.4851 10.1455 37.3333 10.2392 37.1646 10.2912C36.8545 10.3953 36.5366 10.4765 36.2138 10.534C36.0487 10.5656 35.881 10.5875 35.7134 10.6069L35.4406 10.6287C35.0432 10.653 34.6445 10.653 34.2471 10.6287C34.1145 10.6287 34.0819 10.84 34.217 10.8594C34.6148 10.9141 35.0173 10.9288 35.4181 10.9031C35.3941 11.4372 35.4986 11.9693 35.7234 12.4573C35.8786 12.7895 36.0891 13.0947 36.3464 13.3606C36.4744 13.4943 36.6133 13.6177 36.7618 13.7297C36.7749 13.7416 36.7891 13.7521 36.8043 13.7613C36.4065 13.822 36.0061 13.8875 35.6133 13.9677C35.1632 14.0534 34.7231 14.1828 34.2996 14.3538C34.1001 14.4372 33.9105 14.5414 33.7341 14.6646C33.5751 14.7858 33.4262 14.919 33.2887 15.0629L33.1736 15.1648C32.996 15.3251 32.8058 15.4732 32.6307 15.6335C32.8408 15.5493 33.0535 15.4684 33.2687 15.3907C34.9135 14.8038 36.6369 14.4505 38.3857 14.3416C38.651 14.3271 38.9162 14.3222 39.1839 14.3198C39.188 14.7197 39.1027 15.1157 38.9337 15.4805C38.803 15.7435 38.596 15.9638 38.3382 16.1143C38.0492 16.2713 37.7509 16.4116 37.4449 16.5344C36.2791 17.0744 35.2348 17.8329 34.3722 18.766C33.4839 19.7374 32.7107 20.8981 32.4455 22.1778C32.2983 22.8463 32.3198 23.5394 32.508 24.1982C32.7338 24.8357 33.0944 25.4205 33.5665 25.915C34.0669 26.4905 34.6474 27.0296 35.0052 27.7144C35.2056 28.089 35.3054 28.5066 35.2955 28.9285C35.2744 28.963 35.2501 28.9955 35.2229 29.0257C34.8801 29.3899 34.2896 29.2321 33.9193 29.0062C33.6874 28.8526 33.4659 28.6847 33.2562 28.5036C33.051 28.336 32.8408 28.1806 32.6206 28.0325C32.1701 27.7265 31.6909 27.4623 31.1894 27.2433C30.1922 26.8034 29.1219 26.5402 28.0291 26.4662C27.4311 26.4249 26.8355 26.4662 26.24 26.4662C25.7001 26.4727 25.1702 26.3249 24.7162 26.0413C24.4867 25.8917 24.3114 25.676 24.2149 25.4247C24.1184 25.1733 24.1056 24.8989 24.1782 24.6401C24.2822 24.279 24.4716 23.9465 24.7312 23.6688C24.8238 23.562 24.9239 23.4575 25.0264 23.358C24.9314 23.358 24.8388 23.358 24.7437 23.358H24.6661C24.4025 23.3323 24.1425 23.2794 23.8904 23.2001C23.6216 23.1111 23.3639 22.993 23.1223 22.848C23.0628 22.8145 23.0052 22.778 22.9496 22.7388V22.7388C22.8532 22.6715 22.7687 22.5895 22.6994 22.4959C22.6569 22.5129 22.6093 22.5275 22.5643 22.5421L22.4367 22.5785C22.1384 22.6593 21.8305 22.7018 21.5209 22.7048C21.0052 22.7128 20.4936 22.6152 20.0195 22.4182V22.4182C19.888 22.3637 19.7602 22.3013 19.6367 22.2312C19.6284 22.2462 19.624 22.2628 19.624 22.2798C19.624 22.2968 19.6284 22.3135 19.6367 22.3284C19.7013 22.4397 19.7804 22.5425 19.8719 22.6343C20.1872 22.9597 20.6101 23.1904 20.8578 23.579C21.0266 23.8607 21.126 24.1765 21.148 24.5017C21.1643 24.6858 21.1693 24.8707 21.163 25.0554C20.492 24.9825 19.8127 25.0658 19.1813 25.2982C18.7774 25.4449 18.3979 25.6486 18.0553 25.9029C17.7425 26.1457 17.4147 26.5512 16.9844 26.5439C16.8931 26.5416 16.8032 26.5226 16.7191 26.4881C16.415 26.2654 16.1972 25.9497 16.1011 25.592C16.0276 25.0845 15.9941 24.5722 16.001 24.0598C16.001 24.0598 15.0376 26.0243 14.2194 25.9247C13.5588 25.7863 13.3161 25.3128 13.0984 24.4483C13.0559 25.1452 13.0134 26.8183 12.2377 26.8038C12.0075 26.3982 11.7222 25.8689 8.48436 25.8324C5.91459 25.8591 5.79949 27.1 4.69352 27.5323C3.58754 27.9645 2.69175 28.1175 2.63921 27.2676C2.58666 26.4177 3.83276 26.7819 4.07547 22.5712C4.87231 23.205 5.83795 23.6066 6.86043 23.7295C6.86043 23.7295 4.60844 22.2094 4.59343 20.733C4.57842 19.2566 5.63435 16.7311 5.63435 16.7311C5.63435 16.7311 7.22825 16.7044 8.16158 15.4635C9.0949 14.2227 11.5346 11.4495 12.6655 10.8643C13.7395 10.8204 14.7759 10.4679 15.6432 9.85168C16.0761 9.50929 19.1112 8.94349 19.4465 8.88036C19.1031 9.45009 18.8683 10.0753 18.7534 10.7259C18.7475 10.7507 18.75 10.7766 18.7604 10.8C18.7708 10.8233 18.7887 10.8428 18.8114 10.8555C18.834 10.8683 18.8603 10.8737 18.8864 10.8709C18.9124 10.8681 18.9368 10.8573 18.9561 10.84C19.456 10.4237 20.0105 10.0734 20.605 9.79826C20.9011 9.66212 21.2062 9.5453 21.5184 9.44858C21.666 9.40001 21.8186 9.35631 21.9713 9.31988C22.0613 9.2956 22.1589 9.28103 22.254 9.25917C23.0004 9.46632 23.7847 9.5111 24.551 9.3903C25.4208 9.24554 26.2425 8.90175 26.9481 8.38741C27.1558 8.24171 27.3585 8.09115 27.5662 7.94788C27.6813 7.87018 27.7964 7.79733 27.9165 7.72691C28.442 7.72691 28.9799 7.71962 29.5154 7.74633ZM23.2599 25.0311C23.1328 24.99 23.0021 24.96 22.8695 24.9412C22.6018 24.906 22.3313 24.8939 22.0613 24.9048C22.0613 24.8538 22.0613 24.8028 22.0613 24.7567C22.0739 24.5861 22.0739 24.4149 22.0613 24.2443C22.0378 23.9985 21.9943 23.7549 21.9312 23.5158C22.0013 23.5158 22.0713 23.5012 22.1439 23.4891C22.278 23.4707 22.4102 23.4414 22.5393 23.4017C22.813 23.6794 23.1403 23.9021 23.5026 24.0573C23.4311 24.1622 23.3739 24.2757 23.3325 24.3949C23.2799 24.5517 23.2529 24.7156 23.2524 24.8805C23.2492 24.9266 23.2484 24.9728 23.2499 25.0189L23.2599 25.0311ZM23.0372 26.3982C23.2999 26.4152 23.5627 26.4492 23.8254 26.4832C24.3809 27.4133 25.6295 27.7678 26.6779 27.9791C27.4217 28.1285 28.1735 28.2372 28.9299 28.3045C29.3102 28.3409 29.6931 28.3652 30.0734 28.3773C30.4537 28.3895 30.794 28.3773 31.1543 28.4064C31.4887 28.418 31.8147 28.5106 32.1027 28.676C32.354 28.8421 32.5615 29.0634 32.7082 29.3219C33.025 29.8931 33.1681 30.5398 33.1211 31.1869C33.056 32.5856 32.3479 33.8386 31.6723 35.0406C31.4971 35.349 31.3245 35.6574 31.1719 35.9731C31.0267 36.2499 30.8991 36.5413 30.7265 36.8036C30.5655 37.0623 30.321 37.262 30.0309 37.3718C29.7269 37.4641 29.4073 37.498 29.09 37.4714C27.623 37.3773 26.1734 37.109 24.7737 36.6724C24.0631 36.466 23.36 36.2329 22.6594 35.9901C22.0146 35.7898 21.3871 35.5405 20.7827 35.2446C20.2292 34.9636 19.8056 34.49 19.5967 33.9187C19.4012 33.3064 19.3066 32.668 19.3164 32.0271C19.2942 31.2816 19.331 30.5355 19.4265 29.7954C19.4883 29.175 19.6339 28.5651 19.8594 27.9815C20.0733 27.4313 20.4835 26.9738 21.0154 26.6921C21.6444 26.413 22.3404 26.3071 23.0272 26.3861L23.0372 26.3982ZM21.5058 8.13972C21.4912 8.00179 21.4854 7.86311 21.4883 7.72448C21.4871 7.70669 21.4871 7.68884 21.4883 7.67106C21.7669 7.4088 22.0572 7.1603 22.3591 6.92556C22.5593 6.77015 22.7669 6.62202 22.9821 6.47875H22.9997C24.6811 6.18978 26.4177 6.30877 28.1017 6.52003C28.3519 6.5516 28.6221 6.58803 28.8823 6.62202L29.1526 6.66573C29.1526 6.74101 29.1526 6.82115 29.1376 6.90856C29.1226 6.99598 29.1376 7.05912 29.1376 7.1344V7.14897C28.9124 7.1344 28.6847 7.13683 28.467 7.12468C28.0716 7.10526 27.6688 7.05426 27.2734 7.06883C27.1101 7.08235 26.9512 7.12732 26.806 7.20112C26.6608 7.27492 26.5322 7.37606 26.4277 7.49864C25.9441 7.96489 25.3384 8.29404 24.6761 8.45054C24.3172 8.52618 23.9497 8.55719 23.5827 8.54282C23.1905 8.527 22.7977 8.55388 22.4116 8.62295C22.0333 8.70072 21.6625 8.80957 21.3032 8.94835C20.7215 9.16342 20.1619 9.43089 19.6317 9.74727C19.9537 9.15746 20.3895 8.63317 20.9153 8.20286C21.0492 8.19451 21.1831 8.21784 21.3057 8.27085C21.326 8.28169 21.3488 8.28738 21.372 8.28738C21.3952 8.28738 21.418 8.28169 21.4383 8.27085C21.4638 8.25744 21.4836 8.23568 21.4941 8.20945C21.5046 8.18322 21.5053 8.15421 21.4958 8.12758L21.5058 8.13972ZM21.1956 7.95517H21.2106L21.2256 7.93817C21.2268 7.94947 21.2268 7.96086 21.2256 7.97216L21.1956 7.95517ZM15.7983 2.8897C16.1731 2.57918 16.5868 2.31566 17.0294 2.10535C17.2415 2.00587 17.4807 1.97441 17.7125 2.01551C17.933 2.07695 18.1423 2.17115 18.333 2.29476C19.1863 2.75683 20.0027 3.28039 20.7752 3.86103C20.9712 3.99544 21.1501 4.15195 21.3082 4.32726C21.3482 4.37826 21.4083 4.47782 21.3582 4.54096C21.3082 4.60409 21.153 4.58467 21.078 4.58224L20.4824 4.56281L19.1463 3.5502L19.8419 4.52153H19.474L17.6875 4.46811C17.2871 4.45354 16.8868 4.43654 16.4839 4.42683L15.8709 3.83189L15.6207 3.58905C15.5506 3.52349 15.4305 3.43607 15.4105 3.34622C15.3529 3.15924 15.6807 2.96983 15.7983 2.8897ZM4.38324 7.39666C4.32237 6.57546 4.37285 5.75007 4.53338 4.94163C3.5325 5.84253 3.17468 7.12711 3.04707 7.82889L2.38899 8.03045L1.99614 8.15186C1.92608 8.17372 1.85852 8.198 1.78846 8.21743C1.77221 8.22359 1.75547 8.22846 1.73841 8.232C1.73574 8.22411 1.73574 8.2156 1.73841 8.20771C1.76594 8.09358 1.76343 7.96488 1.79346 7.85804C1.8219 7.74048 1.85954 7.62521 1.90606 7.51321C2.33394 6.44475 3.32481 5.71626 3.79272 4.67208C3.93785 4.42925 4.08548 4.167 4.23311 3.91688C4.57091 3.34623 4.91371 2.77557 5.27653 2.21706C5.56429 1.77268 5.92711 1.29187 6.52764 1.2773C6.85193 1.28531 7.17116 1.35719 7.46596 1.48856C7.78875 1.61484 8.10402 1.75568 8.4218 1.89409L10.0232 2.57645C9.87829 2.7326 9.76988 2.91733 9.70544 3.11796C9.63875 3.31422 9.62212 3.52325 9.65699 3.72711C9.69186 3.93097 9.77717 4.12358 9.90561 4.28841C10.0284 4.44301 10.1933 4.56114 10.3817 4.62938C10.5701 4.69763 10.7745 4.71326 10.9716 4.67451C11.1531 4.62783 11.3199 4.53818 11.4571 4.41359C11.5942 4.28899 11.6973 4.13335 11.7572 3.96059C11.8274 3.75802 11.8412 3.54106 11.7973 3.33165L12.2577 3.52835L14.1418 4.34669L15.1077 4.7595C15.2528 4.82021 15.398 4.87849 15.5406 4.94406C15.6511 4.9857 15.7504 5.05132 15.8308 5.13589C15.996 5.3423 15.6357 5.43943 15.4905 5.46857C15.1315 5.52082 14.7698 5.55487 14.4071 5.57056C14.0092 5.60213 13.6139 5.63127 13.216 5.65555C13.0259 5.65555 12.8332 5.67984 12.643 5.69441C12.2927 5.69441 11.9449 5.6677 11.5921 5.6337C11.0466 5.5827 10.4986 5.51471 9.94815 5.49043C9.40146 5.45591 8.85247 5.48855 8.31421 5.58756C7.80508 5.69975 7.31539 5.88297 6.86043 6.1315C6.40503 6.37434 5.96964 6.64873 5.51674 6.89156C5.15215 7.08662 4.7733 7.25543 4.38324 7.39666V7.39666ZM11.3169 8.40441C9.58008 8.856 7.90133 9.49627 6.31245 10.3131C6.36499 9.77155 6.41754 9.23004 6.47509 8.68852C6.48903 8.41711 6.56148 8.15156 6.68778 7.90903C6.83847 7.68423 7.05196 7.50567 7.30332 7.39423C7.59357 7.24367 7.89134 7.11011 8.1941 6.98627C8.49798 6.84738 8.81577 6.73916 9.14244 6.6633C9.28181 6.64626 9.42337 6.66308 9.55439 6.71225C9.68541 6.76141 9.8018 6.84139 9.8931 6.94499C10.1054 7.13318 10.3438 7.29174 10.6012 7.41608C10.8715 7.54478 11.1942 7.67591 11.3394 7.95031C11.3767 8.02167 11.3937 8.10147 11.3884 8.18135C11.3831 8.26123 11.3558 8.33827 11.3093 8.40441H11.3169ZM1.80848 20.7087L1.17792 21.544C1.00777 19.429 2.2889 17.7219 2.32393 17.6709L1.7234 18.0594C1.40562 13.3315 5.13391 12.0687 5.13391 12.0687L5.04633 13.7953C5.04633 13.7953 3.9854 14.6306 4.4433 15.6359C4.6735 14.3538 5.64936 14.3246 5.64936 14.3246C5.62829 13.7107 5.74313 13.0995 5.98615 12.5323C6.22917 11.9651 6.59471 11.4551 7.0581 11.0367C8.637 9.61371 12.7731 9.64285 12.7731 9.64285C12.7731 9.64285 12.5229 9.11347 11.0766 9.05762C12.7131 7.86046 17.5974 8.02559 17.5974 8.02559C17.5974 8.02559 17.5674 7.71962 16.016 7.3578C19.4916 6.52246 20.9554 7.30195 20.9554 7.30195C20.9554 7.30195 20.8503 7.63706 19.6242 8.34127C18.4006 8.34127 15.8358 9.10376 14.87 9.71812C13.9041 10.3325 12.3678 10.2742 12.3678 10.2742C12.3678 10.2742 9.47523 12.8191 8.21162 14.6209C7.86852 15.1325 7.38119 15.5377 6.80762 15.7882C6.23405 16.0388 5.59839 16.1241 4.97627 16.0342C4.97627 16.0342 3.27226 23.1127 2.22384 23.0933C1.17542 23.0739 1.78595 20.7864 1.80597 20.7087H1.80848ZM1.35057 31.9664C0.717514 30.7959 0.832613 29.2078 2.41151 28.8095C3.9904 28.4113 5.48422 28.1976 6.23237 27.2214C6.98053 26.2452 10.0808 26.2185 10.6538 27.389C11.2268 28.5594 11.3144 32.6851 11.3144 32.6851C11.3144 32.6851 10.1959 33.3238 10.1959 35.1912C8.1941 36.1406 4.1055 36.7817 3.50497 36.7817C3.31934 36.7839 3.13393 36.7953 2.94948 36.8157C2.67613 36.7136 2.43352 36.5466 2.24386 36.33C1.92601 35.9349 1.75024 35.4496 1.74342 34.9483V34.9192C1.74342 34.9192 1.97862 33.1368 1.34807 31.9664H1.35057ZM38.8837 39.8608C38.7792 40.7918 38.4509 41.6859 37.9253 42.4713C37.6297 42.9192 37.2993 43.3446 36.9369 43.7437C36.7618 43.938 36.5816 44.1274 36.399 44.3143C36.3064 44.4091 36.2113 44.5013 36.1212 44.5985C35.524 44.932 34.8859 45.1915 34.222 45.3707C33.0757 45.6788 31.8731 45.7352 30.7014 45.5358C29.3878 45.293 28.2243 44.6859 27.0407 44.1177C25.8146 43.5276 24.4785 42.9836 23.0822 43.0856C22.5835 43.1208 22.0971 43.2524 21.6515 43.4726C21.2059 43.6927 20.8101 43.9971 20.4874 44.3678C20.3508 44.5238 20.2286 44.6912 20.1221 44.868C20.3005 44.7505 20.486 44.6435 20.6776 44.5475C21.1652 44.3066 21.6835 44.1295 22.219 44.0205C22.6357 43.9282 23.0684 43.9282 23.4851 44.0205L23.6202 44.0569C23.1513 44.2607 22.7413 44.5734 22.4266 44.9676C23.7178 44.5499 24.7512 44.4115 25.139 45.3027C25.5269 46.1939 24.2358 47.2453 22.8871 47.5173C23.0022 46.2497 22.4417 45.5941 22.4417 45.5941C22.2909 46.2923 21.9008 46.9203 21.3351 47.3758C20.7694 47.8314 20.0613 48.0875 19.3264 48.1025C20.002 47.2963 19.3114 46.0409 19.3114 46.0409C19.3114 46.0409 19.469 48.1729 16.9443 48.1997C17.2596 47.323 16.4564 45.9583 16.4564 45.9583C16.4564 45.9583 16.569 48.899 14.2444 48.7582C12.7431 48.6198 12.6505 46.9612 12.5204 45.8175C12.0475 46.7087 12.3353 48.4668 12.5479 48.7994C11.8749 48.8553 9.97818 49.7198 9.43269 45.5941C9.16737 45.9418 8.99683 46.3489 8.93691 46.7777C8.87698 47.2064 8.9296 47.6429 9.08989 48.0467C9.08989 48.0467 6.92048 47.8524 7.08813 45.9583C7.25578 44.0642 7.30332 42.4033 6.06973 41.2207C4.94874 40.0915 3.35484 40.3416 3.35484 40.3416C3.74575 40.4657 4.10907 40.6601 4.42578 40.9147C4.23217 40.8917 4.03638 40.8917 3.84277 40.9147C3.63724 40.9449 3.43408 40.9887 3.23473 41.0458C3.03391 41.1228 2.81161 41.1288 2.60668 41.0628C2.43605 40.9653 2.30794 40.8108 2.24636 40.6282C2.15596 40.4301 2.07906 40.2265 2.01616 40.0187C1.92357 39.7357 1.85577 39.4457 1.81348 39.1517C2.24783 39.2406 2.68877 39.2958 3.13214 39.3169C4.07846 39.3696 5.02686 39.257 5.93211 38.9842C6.12126 38.9278 6.30402 38.853 6.47759 38.7608C6.686 38.6553 6.87463 38.5166 7.03558 38.3504C6.8279 38.399 6.62272 38.4524 6.41503 38.4937C6.30494 38.5155 6.19734 38.5325 6.08475 38.5447C5.66948 38.593 5.25013 38.5987 4.83364 38.5617C3.98726 38.4982 3.16677 38.2491 2.43403 37.8332C2.14032 37.6737 1.91032 37.4232 1.78095 37.1217C2.93928 37.4486 4.15787 37.5224 5.3491 37.3378C7.20573 37.0197 9.79051 35.9512 10.2359 35.7618C9.94426 37.062 9.74114 38.3793 9.62787 39.7054C9.51277 41.5995 9.47524 42.1337 10.1283 42.158C10.7814 42.1823 11.3144 41.007 12.6731 41.5436C14.0318 42.0803 14.6473 42.5854 15.5856 41.8229C16.5239 41.0604 15.986 39.6496 15.1828 37.5879C14.3796 35.5263 13.5738 33.5933 12.598 33.5181C12.2028 33.4813 11.8041 33.5059 11.4169 33.5909V33.5739C11.4169 33.5739 12.5379 31.6313 12.7381 30.7328C12.9383 29.8343 13.2711 29.3389 14.5622 29.2126C14.7479 29.2063 14.933 29.2378 15.1054 29.3051C15.2778 29.3724 15.4337 29.4741 15.5631 29.6036C15.5631 29.6036 15.7358 28.5716 13.739 28.8508C13.6351 28.5241 13.6351 28.1746 13.739 27.8479C13.739 27.8479 15.2754 27.066 16.2412 28.0689C16.2862 29.1155 16.3288 29.7566 16.3288 29.7566C16.3288 29.7566 17.3297 31.1359 17.5799 32.3476C17.8301 33.5593 17.9677 35.0358 17.2796 35.6793C17.8276 35.4219 18.3155 34.6618 18.4882 34.3655C18.6406 34.8753 18.933 35.3353 19.3339 35.6963C19.971 36.2724 20.6939 36.7522 21.4783 37.1192L21.8161 37.2795C20.9961 37.7448 20.3702 38.4743 20.0471 39.3412C19.9935 39.4799 19.9525 39.6229 19.9244 39.7685C19.8968 39.9015 19.8792 40.0362 19.8719 40.1716C19.987 40.0745 20.1096 39.9822 20.2322 39.8972C21.9412 38.7001 24.2357 38.586 26.2851 38.7559C27.5362 38.8604 28.8123 39.0838 30.0133 38.5932C31.0568 38.1707 31.925 37.3791 32.6357 36.5413C32.9321 36.1961 33.2054 35.8327 33.4539 35.4534C33.3633 35.9048 33.2223 36.3453 33.0335 36.7671C32.6243 37.6229 32.1001 38.4223 31.4746 39.1445L31.0993 39.6058L30.7065 40.0429C30.9066 39.9579 31.1068 39.873 31.302 39.7831C31.6298 39.635 31.9475 39.4723 32.2603 39.2974C32.4524 39.9941 32.8645 40.6149 33.4389 41.0725C33.762 41.335 34.1498 41.5114 34.5643 41.5846C34.9788 41.6579 35.4058 41.6253 35.8034 41.4902C36.1733 41.3514 36.4933 41.1109 36.7243 40.7981C36.9582 40.4238 37.0836 39.9951 37.0871 39.5573C37.1424 39.1616 37.1246 38.7595 37.0345 38.3698C36.9831 38.1832 36.8805 38.0136 36.7378 37.8789C36.5951 37.7443 36.4175 37.6496 36.2238 37.6049C35.8511 37.5341 35.4652 37.5695 35.1128 37.7069C35.3503 37.4661 35.6343 37.273 35.9486 37.1387C36.3034 36.9863 36.6943 36.9302 37.0794 36.9763C37.4645 37.0225 37.8295 37.1693 38.1355 37.4009C38.8436 37.991 38.9687 39.0158 38.8912 39.8608H38.8837ZM43.6379 25.3565C43.5111 25.8488 43.3481 26.3317 43.1499 26.8013C42.9852 27.2976 42.8465 27.8018 42.7346 28.3117C42.5087 29.3415 42.3822 30.3894 42.3567 31.4418C42.3325 32.4893 42.3961 33.5369 42.5469 34.5744C42.6995 35.6598 43.0123 36.7283 43.0824 37.8235C43.1449 38.7948 42.9848 39.7952 42.3517 40.5723C41.7862 41.2644 40.9855 41.7233 40.1898 42.1191C40.2098 42.0439 40.2298 41.9662 40.2474 41.8885C40.3424 41.5169 40.425 41.143 40.4851 40.7641C40.6068 40.0644 40.611 39.3501 40.4976 38.6491C40.2824 37.4519 39.5893 36.2839 38.4082 35.7812C37.9406 35.5841 37.4303 35.5008 36.9219 35.5384C37.6 33.4841 38.1906 31.2573 37.595 29.1325C37.5258 28.8795 37.4372 28.632 37.3298 28.3919C37.7598 27.1499 38.5841 26.072 39.6844 25.3128C40.3734 24.8318 41.1611 24.5005 41.9939 24.3414C42.3722 24.2564 42.7674 24.2758 43.1349 24.3973C43.3241 24.4719 43.4798 24.6093 43.5742 24.785C43.6687 24.9607 43.6956 25.1632 43.6504 25.3565H43.6379Z" fill="black"/>
<path d="M31.8825 18.2269C30.5613 21.5707 25.627 22.7412 25.627 22.7412C31.7298 22.2021 32.0176 20.0093 31.8825 18.2269Z" fill="#1B1219"/>
<path d="M17.5249 40.3926C17.5249 40.3926 17.3522 42.9933 15.0927 43.3843C17.0845 43.5688 17.9452 42.7335 17.5249 40.3926Z" fill="#1B1219"/>
<path d="M8.54437 41.0604C7.93383 43.4766 9.23498 43.6806 10.5461 43.3285C8.31667 43.1609 8.54437 41.0604 8.54437 41.0604Z" fill="#1B1219"/>
<path d="M59.54 19H64.62C66.4733 19 67.8533 19.42 68.76 20.26C69.6667 21.1 70.12 22.2333 70.12 23.66C70.12 25.1 69.6667 26.24 68.76 27.08C67.8533 27.92 66.4733 28.34 64.62 28.34H62.4V33H59.54V19ZM64.62 25.94C65.5667 25.94 66.24 25.7533 66.64 25.38C67.0533 24.9933 67.26 24.42 67.26 23.66C67.26 22.9 67.0533 22.3333 66.64 21.96C66.24 21.5733 65.5667 21.38 64.62 21.38H62.4V25.94H64.62ZM74.7773 19H77.7773L82.6373 33H79.5773L78.6373 30.22H73.8373L72.8773 33H69.9173L74.7773 19ZM77.8373 27.82L76.2373 22.56L74.6173 27.82H77.8373ZM84.3252 19H89.4652C90.3852 19 91.1852 19.1067 91.8652 19.32C92.5452 19.5333 93.1052 19.84 93.5452 20.24C93.9985 20.6267 94.3385 21.0933 94.5652 21.64C94.7918 22.1733 94.9052 22.7667 94.9052 23.42C94.9052 24.34 94.6918 25.14 94.2652 25.82C93.8518 26.5 93.2185 27.02 92.3652 27.38L95.3052 33H92.1852L89.6052 27.88H87.1852V33H84.3252V19ZM89.4652 25.48C90.3852 25.48 91.0452 25.3 91.4452 24.94C91.8452 24.58 92.0452 24.0733 92.0452 23.42C92.0452 22.78 91.8452 22.28 91.4452 21.92C91.0452 21.56 90.3852 21.38 89.4652 21.38H87.1852V25.48H89.4652ZM100.988 19H103.988L108.848 33H105.788L104.848 30.22H100.048L99.0883 33H96.1283L100.988 19ZM104.048 27.82L102.448 22.56L100.828 27.82H104.048ZM110.536 19H115.596C117.316 19 118.669 19.52 119.656 20.56C120.656 21.5867 121.156 23.1067 121.156 25.12V26.72C121.156 28.8133 120.656 30.3867 119.656 31.44C118.669 32.48 117.316 33 115.596 33H110.536V19ZM115.596 30.62C116.436 30.62 117.096 30.32 117.576 29.72C118.056 29.12 118.296 28.12 118.296 26.72V25.12C118.296 23.8 118.056 22.8467 117.576 22.26C117.096 21.6733 116.436 21.38 115.596 21.38H113.396V30.62H115.596ZM123.879 19H126.719V33H123.879V19ZM134.571 33.18C133.637 33.18 132.837 33.0867 132.171 32.9C131.504 32.7 130.957 32.42 130.531 32.06C130.104 31.6867 129.784 31.24 129.571 30.72C129.357 30.2 129.244 29.62 129.231 28.98H132.111C132.137 29.5267 132.324 29.9533 132.671 30.26C133.031 30.5667 133.664 30.72 134.571 30.72C135.477 30.72 136.111 30.58 136.471 30.3C136.844 30.0067 137.031 29.6333 137.031 29.18C137.031 28.9133 136.984 28.68 136.891 28.48C136.797 28.2667 136.631 28.08 136.391 27.92C136.151 27.76 135.831 27.6067 135.431 27.46C135.031 27.3133 134.524 27.1667 133.911 27.02C133.164 26.8333 132.517 26.62 131.971 26.38C131.437 26.1267 130.991 25.8333 130.631 25.5C130.271 25.1667 130.004 24.78 129.831 24.34C129.657 23.8867 129.571 23.36 129.571 22.76C129.571 22.1733 129.671 21.64 129.871 21.16C130.071 20.68 130.377 20.2667 130.791 19.92C131.204 19.5733 131.724 19.3067 132.351 19.12C132.977 18.92 133.717 18.82 134.571 18.82C136.277 18.82 137.531 19.1933 138.331 19.94C139.144 20.6867 139.564 21.6933 139.591 22.96H136.731C136.704 22.44 136.524 22.0333 136.191 21.74C135.871 21.4333 135.331 21.28 134.571 21.28C133.811 21.28 133.264 21.42 132.931 21.7C132.597 21.98 132.431 22.3333 132.431 22.76C132.431 23.0133 132.477 23.2333 132.571 23.42C132.677 23.6067 132.844 23.7733 133.071 23.92C133.297 24.0667 133.597 24.2067 133.971 24.34C134.344 24.46 134.811 24.5867 135.371 24.72C136.171 24.92 136.851 25.1533 137.411 25.42C137.984 25.6733 138.451 25.9733 138.811 26.32C139.184 26.6667 139.457 27.0733 139.631 27.54C139.804 28.0067 139.891 28.5533 139.891 29.18C139.891 29.78 139.784 30.3267 139.571 30.82C139.371 31.3 139.051 31.72 138.611 32.08C138.184 32.4267 137.631 32.7 136.951 32.9C136.284 33.0867 135.491 33.18 134.571 33.18ZM142.333 19H151.433V21.38H145.193V24.6H150.693V27H145.193V30.62H151.433V33H142.333V19Z" fill="white"/>
<path d="M163.897 33.14C163.07 33.14 162.33 33.0133 161.677 32.76C161.024 32.5067 160.47 32.1133 160.017 31.58C159.564 31.0467 159.217 30.3733 158.977 29.56C158.737 28.7333 158.617 27.7467 158.617 26.6V25C158.617 22.92 159.084 21.38 160.017 20.38C160.95 19.3667 162.244 18.86 163.897 18.86C165.35 18.86 166.504 19.2067 167.357 19.9C168.224 20.58 168.797 21.6467 169.077 23.1H167.197C166.93 22.1533 166.537 21.4867 166.017 21.1C165.497 20.7133 164.79 20.52 163.897 20.52C162.817 20.52 161.977 20.8667 161.377 21.56C160.777 22.24 160.477 23.3867 160.477 25V26.6C160.477 27.5067 160.55 28.2733 160.697 28.9C160.857 29.5133 161.084 30.0133 161.377 30.4C161.67 30.7867 162.024 31.0667 162.437 31.24C162.864 31.4 163.35 31.48 163.897 31.48C164.99 31.48 165.83 31.18 166.417 30.58C167.017 29.9667 167.317 28.9467 167.317 27.52H163.897V25.94H169.177V26.76C169.177 27.9333 169.057 28.9267 168.817 29.74C168.577 30.5533 168.23 31.2133 167.777 31.72C167.324 32.2133 166.77 32.5733 166.117 32.8C165.464 33.0267 164.724 33.14 163.897 33.14ZM175.552 19H177.492L182.592 33H180.552L179.292 29.52H173.652L172.392 33H170.432L175.552 19ZM178.712 27.88L176.472 21.38L174.232 27.88H178.712ZM184.98 19H186.94L191.38 27.68L195.82 19H197.66V33H195.82V22.36L192.02 29.86H190.62L186.82 22.36V33H184.98V19ZM201.781 19H203.661V33H201.781V19ZM207.773 19H209.613L216.013 29.76V19H217.853V33H216.013L209.613 22.22V33H207.773V19ZM226.416 33.14C225.59 33.14 224.85 33.0133 224.196 32.76C223.543 32.5067 222.99 32.1133 222.536 31.58C222.083 31.0467 221.736 30.3733 221.496 29.56C221.256 28.7333 221.136 27.7467 221.136 26.6V25C221.136 22.92 221.603 21.38 222.536 20.38C223.47 19.3667 224.763 18.86 226.416 18.86C227.87 18.86 229.023 19.2067 229.876 19.9C230.743 20.58 231.316 21.6467 231.596 23.1H229.716C229.45 22.1533 229.056 21.4867 228.536 21.1C228.016 20.7133 227.31 20.52 226.416 20.52C225.336 20.52 224.496 20.8667 223.896 21.56C223.296 22.24 222.996 23.3867 222.996 25V26.6C222.996 27.5067 223.07 28.2733 223.216 28.9C223.376 29.5133 223.603 30.0133 223.896 30.4C224.19 30.7867 224.543 31.0667 224.956 31.24C225.383 31.4 225.87 31.48 226.416 31.48C227.51 31.48 228.35 31.18 228.936 30.58C229.536 29.9667 229.836 28.9467 229.836 27.52H226.416V25.94H231.696V26.76C231.696 27.9333 231.576 28.9267 231.336 29.74C231.096 30.5533 230.75 31.2133 230.296 31.72C229.843 32.2133 229.29 32.5733 228.636 32.8C227.983 33.0267 227.243 33.14 226.416 33.14Z" fill="#35BD46"/>
</svg>
