<svg width="15" height="12" viewBox="0 0 15 12" fill="none" xmlns="http://www.w3.org/2000/svg">
<path d="M14.8542 1.42143C14.4428 2.03333 13.9381 2.55494 13.3401 2.98627C13.346 3.10195 13.349 3.2327 13.349 3.37851C13.349 4.1887 13.2308 4.99986 12.9946 5.812C12.7584 6.62415 12.3975 7.40152 11.912 8.14412C11.4265 8.88671 10.8483 9.54458 10.1771 10.1177C9.50603 10.6909 8.69932 11.1479 7.75702 11.4887C6.81471 11.8296 5.80482 12 4.72733 12C3.04573 12 1.49715 11.546 0.0815735 10.6381C0.332821 10.666 0.573789 10.68 0.804477 10.68C2.20932 10.68 3.46406 10.2473 4.56872 9.3819C3.9137 9.36989 3.32709 9.16826 2.80887 8.77699C2.29066 8.38574 1.93403 7.88579 1.739 7.27714C1.93178 7.31386 2.12204 7.33222 2.30979 7.33222C2.58005 7.33222 2.84597 7.29697 3.10757 7.22648C2.40855 7.08648 1.82865 6.73832 1.36788 6.182C0.907117 5.62569 0.676737 4.9836 0.676737 4.25572V4.21821C1.1058 4.45578 1.56346 4.58215 2.04973 4.59732C1.63563 4.32125 1.30732 3.96126 1.06478 3.51733C0.822229 3.0734 0.700953 2.59299 0.700953 2.07611C0.700953 1.53096 0.837557 1.02333 1.11076 0.553211C1.87094 1.48607 2.79205 2.23163 3.8741 2.78991C4.95616 3.3482 6.11701 3.65826 7.35664 3.72008C7.30377 3.49974 7.27728 3.2698 7.27719 3.03026C7.27719 2.19389 7.57316 1.47976 8.16511 0.887855C8.75707 0.295952 9.47124 0 10.3076 0C11.1833 0 11.9208 0.318844 12.5203 0.956531C13.2052 0.820859 13.8466 0.575463 14.4443 0.220344C14.214 0.945063 13.7703 1.50413 13.1131 1.89756C13.7171 1.82578 14.2975 1.66707 14.8542 1.42143H14.8542Z" fill="white"/>
</svg>
