<svg width="18" height="16" viewBox="0 0 18 16" fill="none" xmlns="http://www.w3.org/2000/svg">
<path d="M17.4286 6.28569H16.8571V2.85713C16.8571 2.70558 16.7969 2.56024 16.6898 2.45307C16.5826 2.34591 16.4373 2.28571 16.2857 2.28571H2.57147C2.43617 2.28791 2.30447 2.24203 2.19982 2.15622C2.09518 2.07041 2.02439 1.95025 2.00005 1.81714V1.61142C2.02439 1.4783 2.09518 1.35814 2.19982 1.27234C2.30447 1.18653 2.43617 1.14065 2.57147 1.14285H16.0457C16.1973 1.14285 16.3426 1.08265 16.4498 0.975486C16.5569 0.868322 16.6171 0.722978 16.6171 0.571426C16.6171 0.419875 16.5569 0.27453 16.4498 0.167367C16.3426 0.0602038 16.1973 0 16.0457 0H2.57147C2.11682 0 1.68079 0.180611 1.3593 0.502101C1.03781 0.82359 0.857195 1.25962 0.857195 1.71428C0.853184 1.78279 0.853184 1.85148 0.857195 1.91999V13.6742C0.859438 13.9819 0.922261 14.2861 1.04208 14.5695C1.16189 14.8529 1.33636 15.1099 1.5555 15.3259C1.77465 15.5418 2.03419 15.7125 2.3193 15.8282C2.60442 15.9438 2.90952 16.0022 3.21719 15.9999H16.2857C16.4373 15.9999 16.5826 15.9397 16.6898 15.8326C16.7969 15.7254 16.8571 15.5801 16.8571 15.4285V12H17.4286C17.5801 12 17.7255 11.9397 17.8326 11.8326C17.9398 11.7254 18 11.5801 18 11.4285V6.85712C18 6.70556 17.9398 6.56022 17.8326 6.45306C17.7255 6.34589 17.5801 6.28569 17.4286 6.28569ZM15.7143 14.8571H3.21719C2.89936 14.8602 2.59318 14.7376 2.36524 14.5161C2.13731 14.2946 2.00606 13.992 2.00005 13.6742V3.35999C2.18553 3.41374 2.37854 3.4369 2.57147 3.42856H15.7143V6.28569H11.7143C10.9565 6.28569 10.2298 6.58671 9.694 7.12252C9.15818 7.65834 8.85716 8.38506 8.85716 9.14282C8.85716 9.90058 9.15818 10.6273 9.694 11.1631C10.2298 11.6989 10.9565 12 11.7143 12H15.7143V14.8571ZM16.8571 10.8571H11.7143C11.2596 10.8571 10.8236 10.6765 10.5021 10.355C10.1806 10.0335 10 9.59748 10 9.14282C10 8.68817 10.1806 8.25213 10.5021 7.93064C10.8236 7.60915 11.2596 7.42854 11.7143 7.42854H16.8571V10.8571Z" fill="#fff"/>
<path d="M12.2914 9.99996C12.7648 9.99996 13.1486 9.61621 13.1486 9.14282C13.1486 8.66944 12.7648 8.28568 12.2914 8.28568C11.8181 8.28568 11.4343 8.66944 11.4343 9.14282C11.4343 9.61621 11.8181 9.99996 12.2914 9.99996Z" fill="#fff"/>
</svg>
