<svg width="152" height="206" viewBox="0 0 152 206" fill="none" xmlns="http://www.w3.org/2000/svg">
<g filter="url(#filter0_d_0_1047)">
<g filter="url(#filter1_d_0_1047)">
<path d="M4 10C4 4.47715 8.47715 0 14 0H138C143.523 0 148 4.47715 148 10V188C148 193.523 143.523 198 138 198H14C8.47715 198 4 193.523 4 188V10Z" fill="white"/>
<path d="M4.5 10C4.5 4.75329 8.7533 0.5 14 0.5H138C143.247 0.5 147.5 4.75329 147.5 10V188C147.5 193.247 143.247 197.5 138 197.5H14C8.75329 197.5 4.5 193.247 4.5 188V10Z" stroke="#C5C5C5"/>
</g>
<path d="M26.3523 31.216C25.5043 31.216 24.7523 31.104 24.0963 30.88C23.4563 30.64 22.9123 30.32 22.4643 29.92C22.0163 29.504 21.6643 29.032 21.4083 28.504C21.1523 27.976 20.9923 27.408 20.9283 26.8H24.3603C24.4723 27.264 24.6803 27.64 24.9843 27.928C25.3043 28.2 25.7603 28.336 26.3523 28.336C26.9443 28.336 27.4243 28.104 27.7923 27.64C28.1763 27.176 28.3683 26.36 28.3683 25.192C28.3683 24.024 28.1763 23.208 27.7923 22.744C27.4243 22.264 26.9443 22.024 26.3523 22.024C25.8723 22.024 25.4723 22.184 25.1523 22.504C24.8323 22.808 24.5843 23.168 24.4083 23.584H21.3843V14.2H31.0803V17.056H24.6483V20.248C24.9043 19.992 25.2563 19.752 25.7043 19.528C26.1523 19.288 26.6803 19.168 27.2883 19.168C27.9443 19.168 28.5443 19.288 29.0883 19.528C29.6483 19.768 30.1283 20.136 30.5283 20.632C30.9283 21.112 31.2403 21.736 31.4643 22.504C31.6883 23.256 31.8003 24.152 31.8003 25.192C31.8003 27.272 31.3363 28.8 30.4083 29.776C29.4963 30.736 28.1443 31.216 26.3523 31.216Z" fill="#D12828"/>
<path d="M125.974 166.784C126.822 166.784 127.574 166.896 128.23 167.12C128.87 167.36 129.414 167.68 129.862 168.08C130.31 168.496 130.662 168.968 130.918 169.496C131.174 170.024 131.334 170.592 131.398 171.2L127.966 171.2C127.854 170.736 127.646 170.36 127.342 170.072C127.022 169.8 126.566 169.664 125.974 169.664C125.382 169.664 124.902 169.896 124.534 170.36C124.15 170.824 123.958 171.64 123.958 172.808C123.958 173.976 124.15 174.792 124.534 175.256C124.902 175.736 125.382 175.976 125.974 175.976C126.454 175.976 126.854 175.816 127.174 175.496C127.494 175.192 127.742 174.832 127.918 174.416L130.942 174.416L130.942 183.8L121.246 183.8L121.246 180.944L127.678 180.944L127.678 177.752C127.422 178.008 127.07 178.248 126.622 178.472C126.174 178.712 125.646 178.832 125.038 178.832C124.382 178.832 123.782 178.712 123.238 178.472C122.678 178.232 122.198 177.864 121.798 177.368C121.398 176.888 121.086 176.264 120.862 175.496C120.638 174.744 120.526 173.848 120.526 172.808C120.526 170.728 120.99 169.2 121.918 168.224C122.83 167.264 124.182 166.784 125.974 166.784Z" fill="#D12828"/>
<path d="M26.3397 42.4945C26.7319 41.7375 27.2767 41.0739 27.9383 40.5474C30.7491 38.2884 35.2332 39.8412 36.1382 43.372C36.6711 45.4569 36.0236 47.2001 34.775 48.7991C33.7652 50.0918 32.5485 51.1723 31.3335 52.2547C29.5449 53.8492 27.6496 55.3367 26.3379 57.4896C26.0166 56.9015 25.641 56.346 25.2162 55.8308C23.9915 54.3994 22.4817 53.2998 21.0598 52.0987C19.6788 50.9321 18.3298 49.7419 17.3298 48.1909C15.7738 45.7751 16.0456 42.8362 18.0136 40.9127C20.3076 38.6718 24.2304 39.1532 25.948 41.8853C26.0688 42.0757 26.1914 42.2642 26.3397 42.4945Z" fill="#D12828"/>
<path d="M125.986 155.505C125.594 156.262 125.049 156.926 124.388 157.452C121.577 159.711 117.093 158.158 116.188 154.628C115.655 152.543 116.302 150.8 117.551 149.201C118.561 147.908 119.777 146.827 120.992 145.745C122.781 144.15 124.676 142.663 125.988 140.51C126.309 141.098 126.685 141.654 127.11 142.169C128.334 143.6 129.844 144.7 131.266 145.901C132.647 147.068 133.996 148.258 134.996 149.809C136.552 152.225 136.28 155.163 134.312 157.087C132.018 159.328 128.096 158.846 126.378 156.114C126.257 155.924 126.135 155.735 125.986 155.505Z" fill="#D12828"/>
</g>
<defs>
<filter id="filter0_d_0_1047" x="0" y="0" width="152" height="206" filterUnits="userSpaceOnUse" color-interpolation-filters="sRGB">
<feFlood flood-opacity="0" result="BackgroundImageFix"/>
<feColorMatrix in="SourceAlpha" type="matrix" values="0 0 0 0 0 0 0 0 0 0 0 0 0 0 0 0 0 0 127 0" result="hardAlpha"/>
<feOffset dy="4"/>
<feGaussianBlur stdDeviation="2"/>
<feComposite in2="hardAlpha" operator="out"/>
<feColorMatrix type="matrix" values="0 0 0 0 0 0 0 0 0 0 0 0 0 0 0 0 0 0 0.25 0"/>
<feBlend mode="normal" in2="BackgroundImageFix" result="effect1_dropShadow_0_1047"/>
<feBlend mode="normal" in="SourceGraphic" in2="effect1_dropShadow_0_1047" result="shape"/>
</filter>
<filter id="filter1_d_0_1047" x="0" y="0" width="152" height="206" filterUnits="userSpaceOnUse" color-interpolation-filters="sRGB">
<feFlood flood-opacity="0" result="BackgroundImageFix"/>
<feColorMatrix in="SourceAlpha" type="matrix" values="0 0 0 0 0 0 0 0 0 0 0 0 0 0 0 0 0 0 127 0" result="hardAlpha"/>
<feOffset dy="4"/>
<feGaussianBlur stdDeviation="2"/>
<feComposite in2="hardAlpha" operator="out"/>
<feColorMatrix type="matrix" values="0 0 0 0 0 0 0 0 0 0 0 0 0 0 0 0 0 0 0.25 0"/>
<feBlend mode="normal" in2="BackgroundImageFix" result="effect1_dropShadow_0_1047"/>
<feBlend mode="normal" in="SourceGraphic" in2="effect1_dropShadow_0_1047" result="shape"/>
</filter>
</defs>
</svg>
