<svg width="152" height="206" viewBox="0 0 152 206" fill="none" xmlns="http://www.w3.org/2000/svg">
<g filter="url(#filter0_d_0_1083)">
<g filter="url(#filter1_d_0_1083)">
<path d="M4 10C4 4.47715 8.47715 0 14 0H138C143.523 0 148 4.47715 148 10V188C148 193.523 143.523 198 138 198H14C8.47715 198 4 193.523 4 188V10Z" fill="white"/>
<path d="M4.5 10C4.5 4.75329 8.7533 0.5 14 0.5H138C143.247 0.5 147.5 4.75329 147.5 10V188C147.5 193.247 143.247 197.5 138 197.5H14C8.75329 197.5 4.5 193.247 4.5 188V10Z" stroke="#C5C5C5"/>
</g>
<path d="M26.3283 31.216C25.4163 31.216 24.6083 31.096 23.9043 30.856C23.2003 30.616 22.6083 30.288 22.1283 29.872C21.6483 29.44 21.2803 28.936 21.0243 28.36C20.7843 27.768 20.6643 27.136 20.6643 26.464C20.6643 25.504 20.8803 24.696 21.3123 24.04C21.7603 23.368 22.3683 22.808 23.1363 22.36C22.5283 21.992 22.0243 21.488 21.6243 20.848C21.2403 20.192 21.0483 19.432 21.0483 18.568C21.0483 17.928 21.1683 17.336 21.4083 16.792C21.6643 16.232 22.0163 15.744 22.4643 15.328C22.9283 14.912 23.4803 14.584 24.1203 14.344C24.7763 14.104 25.5123 13.984 26.3283 13.984C27.1443 13.984 27.8723 14.104 28.5123 14.344C29.1683 14.584 29.7203 14.912 30.1683 15.328C30.6323 15.744 30.9843 16.232 31.2243 16.792C31.4803 17.336 31.6083 17.928 31.6083 18.568C31.6083 19.432 31.4083 20.192 31.0083 20.848C30.6243 21.488 30.1283 21.992 29.5203 22.36C30.2883 22.808 30.8883 23.368 31.3203 24.04C31.7683 24.696 31.9923 25.504 31.9923 26.464C31.9923 27.136 31.8643 27.768 31.6083 28.36C31.3683 28.936 31.0083 29.44 30.5283 29.872C30.0483 30.288 29.4563 30.616 28.7523 30.856C28.0483 31.096 27.2403 31.216 26.3283 31.216ZM26.3283 28.432C27.0483 28.432 27.6243 28.224 28.0563 27.808C28.5043 27.376 28.7283 26.872 28.7283 26.296C28.7283 25.576 28.5043 24.968 28.0563 24.472C27.6083 23.976 27.0323 23.664 26.3283 23.536C25.6243 23.664 25.0483 23.976 24.6003 24.472C24.1523 24.968 23.9283 25.576 23.9283 26.296C23.9283 26.872 24.1443 27.376 24.5763 27.808C25.0243 28.224 25.6083 28.432 26.3283 28.432ZM26.3283 16.768C25.7203 16.768 25.2323 16.952 24.8643 17.32C24.4963 17.672 24.3123 18.144 24.3123 18.736C24.3123 19.072 24.3683 19.376 24.4803 19.648C24.6083 19.92 24.7683 20.16 24.9603 20.368C25.1523 20.576 25.3683 20.752 25.6083 20.896C25.8483 21.024 26.0883 21.12 26.3283 21.184C26.5683 21.12 26.8083 21.024 27.0483 20.896C27.2883 20.752 27.5043 20.576 27.6963 20.368C27.8883 20.16 28.0403 19.92 28.1523 19.648C28.2803 19.376 28.3443 19.072 28.3443 18.736C28.3443 18.144 28.1603 17.672 27.7923 17.32C27.4243 16.952 26.9363 16.768 26.3283 16.768Z" fill="#D12828"/>
<path d="M125.998 166.784C126.91 166.784 127.718 166.904 128.422 167.144C129.126 167.384 129.718 167.712 130.198 168.128C130.678 168.56 131.046 169.064 131.302 169.64C131.542 170.232 131.662 170.864 131.662 171.536C131.662 172.496 131.446 173.304 131.014 173.96C130.566 174.632 129.958 175.192 129.19 175.64C129.798 176.008 130.302 176.512 130.702 177.152C131.086 177.808 131.278 178.568 131.278 179.432C131.278 180.072 131.158 180.664 130.918 181.208C130.662 181.768 130.31 182.256 129.862 182.672C129.398 183.088 128.846 183.416 128.206 183.656C127.55 183.896 126.814 184.016 125.998 184.016C125.182 184.016 124.454 183.896 123.814 183.656C123.158 183.416 122.606 183.088 122.158 182.672C121.694 182.256 121.342 181.768 121.102 181.208C120.846 180.664 120.718 180.072 120.718 179.432C120.718 178.568 120.918 177.808 121.318 177.152C121.702 176.512 122.198 176.008 122.806 175.64C122.038 175.192 121.438 174.632 121.006 173.96C120.558 173.304 120.334 172.496 120.334 171.536C120.334 170.864 120.462 170.232 120.718 169.64C120.958 169.064 121.318 168.56 121.798 168.128C122.278 167.712 122.87 167.384 123.574 167.144C124.278 166.904 125.086 166.784 125.998 166.784ZM125.998 169.568C125.278 169.568 124.702 169.776 124.27 170.192C123.822 170.624 123.598 171.128 123.598 171.704C123.598 172.424 123.822 173.032 124.27 173.528C124.718 174.024 125.294 174.336 125.998 174.464C126.702 174.336 127.278 174.024 127.726 173.528C128.174 173.032 128.398 172.424 128.398 171.704C128.398 171.128 128.182 170.624 127.75 170.192C127.302 169.776 126.718 169.568 125.998 169.568ZM125.998 181.232C126.606 181.232 127.094 181.048 127.462 180.68C127.83 180.328 128.014 179.856 128.014 179.264C128.014 178.928 127.958 178.624 127.846 178.352C127.718 178.08 127.558 177.84 127.366 177.632C127.174 177.424 126.958 177.248 126.718 177.104C126.478 176.976 126.238 176.88 125.998 176.816C125.758 176.88 125.518 176.976 125.278 177.104C125.038 177.248 124.822 177.424 124.63 177.632C124.438 177.84 124.286 178.08 124.174 178.352C124.046 178.624 123.982 178.928 123.982 179.264C123.982 179.856 124.166 180.328 124.534 180.68C124.902 181.048 125.39 181.232 125.998 181.232Z" fill="#D12828"/>
<path d="M26.3397 42.4945C26.7319 41.7375 27.2767 41.0739 27.9383 40.5474C30.7491 38.2884 35.2332 39.8412 36.1382 43.372C36.6711 45.4569 36.0236 47.2001 34.775 48.7991C33.7652 50.0918 32.5485 51.1723 31.3335 52.2547C29.5449 53.8492 27.6496 55.3367 26.3379 57.4896C26.0166 56.9015 25.641 56.346 25.2162 55.8308C23.9915 54.3994 22.4817 53.2998 21.0598 52.0987C19.6788 50.9321 18.3298 49.7419 17.3298 48.1909C15.7738 45.7751 16.0456 42.8362 18.0136 40.9127C20.3076 38.6718 24.2304 39.1532 25.948 41.8853C26.0688 42.0757 26.1914 42.2642 26.3397 42.4945Z" fill="#D12828"/>
<path d="M125.986 155.505C125.594 156.262 125.049 156.926 124.388 157.452C121.577 159.711 117.093 158.158 116.188 154.628C115.655 152.543 116.302 150.8 117.551 149.201C118.561 147.908 119.777 146.827 120.992 145.745C122.781 144.15 124.676 142.663 125.988 140.51C126.309 141.098 126.685 141.654 127.11 142.169C128.334 143.6 129.844 144.7 131.266 145.901C132.647 147.068 133.996 148.258 134.996 149.809C136.552 152.225 136.28 155.163 134.312 157.087C132.018 159.328 128.096 158.846 126.378 156.114C126.257 155.924 126.135 155.735 125.986 155.505Z" fill="#D12828"/>
</g>
<defs>
<filter id="filter0_d_0_1083" x="0" y="0" width="152" height="206" filterUnits="userSpaceOnUse" color-interpolation-filters="sRGB">
<feFlood flood-opacity="0" result="BackgroundImageFix"/>
<feColorMatrix in="SourceAlpha" type="matrix" values="0 0 0 0 0 0 0 0 0 0 0 0 0 0 0 0 0 0 127 0" result="hardAlpha"/>
<feOffset dy="4"/>
<feGaussianBlur stdDeviation="2"/>
<feComposite in2="hardAlpha" operator="out"/>
<feColorMatrix type="matrix" values="0 0 0 0 0 0 0 0 0 0 0 0 0 0 0 0 0 0 0.25 0"/>
<feBlend mode="normal" in2="BackgroundImageFix" result="effect1_dropShadow_0_1083"/>
<feBlend mode="normal" in="SourceGraphic" in2="effect1_dropShadow_0_1083" result="shape"/>
</filter>
<filter id="filter1_d_0_1083" x="0" y="0" width="152" height="206" filterUnits="userSpaceOnUse" color-interpolation-filters="sRGB">
<feFlood flood-opacity="0" result="BackgroundImageFix"/>
<feColorMatrix in="SourceAlpha" type="matrix" values="0 0 0 0 0 0 0 0 0 0 0 0 0 0 0 0 0 0 127 0" result="hardAlpha"/>
<feOffset dy="4"/>
<feGaussianBlur stdDeviation="2"/>
<feComposite in2="hardAlpha" operator="out"/>
<feColorMatrix type="matrix" values="0 0 0 0 0 0 0 0 0 0 0 0 0 0 0 0 0 0 0.25 0"/>
<feBlend mode="normal" in2="BackgroundImageFix" result="effect1_dropShadow_0_1083"/>
<feBlend mode="normal" in="SourceGraphic" in2="effect1_dropShadow_0_1083" result="shape"/>
</filter>
</defs>
</svg>
