<svg width="152" height="206" viewBox="0 0 152 206" fill="none" xmlns="http://www.w3.org/2000/svg">
<g filter="url(#filter0_d_0_1095)">
<g filter="url(#filter1_d_0_1095)">
<path d="M4 10C4 4.47715 8.47715 0 14 0H138C143.523 0 148 4.47715 148 10V188C148 193.523 143.523 198 138 198H14C8.47715 198 4 193.523 4 188V10Z" fill="white"/>
<path d="M4.5 10C4.5 4.75329 8.7533 0.5 14 0.5H138C143.247 0.5 147.5 4.75329 147.5 10V188C147.5 193.247 143.247 197.5 138 197.5H14C8.75329 197.5 4.5 193.247 4.5 188V10Z" stroke="#C5C5C5"/>
</g>
<path d="M26.3283 31.216C24.8883 31.216 23.7203 30.904 22.8243 30.28C21.9283 29.656 21.3283 28.608 21.0243 27.136H24.5283C24.6723 27.616 24.8963 27.944 25.2003 28.12C25.5203 28.28 25.8963 28.36 26.3283 28.36C26.7123 28.36 27.0483 28.312 27.3363 28.216C27.6243 28.12 27.8723 27.944 28.0803 27.688C28.2883 27.416 28.4403 27.048 28.5363 26.584C28.6483 26.104 28.7043 25.496 28.7043 24.76V24.208C28.3523 24.528 27.9203 24.776 27.4083 24.952C26.9123 25.128 26.3043 25.216 25.5843 25.216C24.8963 25.216 24.2563 25.096 23.6643 24.856C23.0723 24.616 22.5603 24.272 22.1283 23.824C21.6963 23.36 21.3523 22.808 21.0963 22.168C20.8563 21.512 20.7363 20.784 20.7363 19.984V19.216C20.7363 17.6 21.2243 16.328 22.2003 15.4C23.1923 14.456 24.5683 13.984 26.3283 13.984C28.1043 13.984 29.4803 14.48 30.4563 15.472C31.4323 16.448 31.9203 17.92 31.9203 19.888V24.232C31.9203 25.496 31.8003 26.576 31.5603 27.472C31.3203 28.352 30.9683 29.072 30.5043 29.632C30.0403 30.176 29.4563 30.576 28.7523 30.832C28.0643 31.088 27.2563 31.216 26.3283 31.216ZM26.3283 22.36C27.0163 22.36 27.5443 22.168 27.9123 21.784C28.2963 21.4 28.4883 20.848 28.4883 20.128V19.216C28.4883 18.432 28.2963 17.848 27.9123 17.464C27.5443 17.064 27.0163 16.864 26.3283 16.864C25.6403 16.864 25.1043 17.064 24.7203 17.464C24.3523 17.848 24.1683 18.432 24.1683 19.216V19.984C24.1683 20.784 24.3523 21.384 24.7203 21.784C25.1043 22.168 25.6403 22.36 26.3283 22.36Z" fill="#D12828"/>
<path d="M125.998 166.784C127.438 166.784 128.606 167.096 129.502 167.72C130.398 168.344 130.998 169.392 131.302 170.864L127.798 170.864C127.654 170.384 127.43 170.056 127.126 169.88C126.806 169.72 126.43 169.64 125.998 169.64C125.614 169.64 125.278 169.688 124.99 169.784C124.702 169.88 124.454 170.056 124.246 170.312C124.038 170.584 123.886 170.952 123.79 171.416C123.678 171.896 123.622 172.504 123.622 173.24L123.622 173.792C123.974 173.472 124.406 173.224 124.918 173.048C125.414 172.872 126.022 172.784 126.742 172.784C127.43 172.784 128.07 172.904 128.662 173.144C129.254 173.384 129.766 173.728 130.198 174.176C130.63 174.64 130.974 175.192 131.23 175.832C131.47 176.488 131.59 177.216 131.59 178.016L131.59 178.784C131.59 180.4 131.102 181.672 130.126 182.6C129.134 183.544 127.758 184.016 125.998 184.016C124.222 184.016 122.846 183.52 121.87 182.528C120.894 181.552 120.406 180.08 120.406 178.112L120.406 173.768C120.406 172.504 120.526 171.424 120.766 170.528C121.006 169.648 121.358 168.928 121.822 168.368C122.286 167.824 122.87 167.424 123.574 167.168C124.262 166.912 125.07 166.784 125.998 166.784ZM125.998 175.64C125.31 175.64 124.782 175.832 124.414 176.216C124.03 176.6 123.838 177.152 123.838 177.872L123.838 178.784C123.838 179.568 124.03 180.152 124.414 180.536C124.782 180.936 125.31 181.136 125.998 181.136C126.686 181.136 127.222 180.936 127.606 180.536C127.974 180.152 128.158 179.568 128.158 178.784L128.158 178.016C128.158 177.216 127.974 176.616 127.606 176.216C127.222 175.832 126.686 175.64 125.998 175.64Z" fill="#D12828"/>
<path d="M26.3397 42.4945C26.7319 41.7375 27.2767 41.0739 27.9383 40.5474C30.7491 38.2884 35.2332 39.8412 36.1382 43.372C36.6711 45.4569 36.0236 47.2001 34.775 48.7991C33.7652 50.0918 32.5485 51.1723 31.3335 52.2547C29.5449 53.8492 27.6496 55.3367 26.3379 57.4896C26.0166 56.9015 25.641 56.346 25.2162 55.8308C23.9915 54.3994 22.4817 53.2998 21.0598 52.0987C19.6788 50.9321 18.3298 49.7419 17.3298 48.1909C15.7738 45.7751 16.0456 42.8362 18.0136 40.9127C20.3076 38.6718 24.2304 39.1532 25.948 41.8853C26.0688 42.0757 26.1914 42.2642 26.3397 42.4945Z" fill="#D12828"/>
<path d="M125.986 155.505C125.594 156.262 125.049 156.926 124.388 157.452C121.577 159.711 117.093 158.158 116.188 154.628C115.655 152.543 116.302 150.8 117.551 149.201C118.561 147.908 119.777 146.827 120.992 145.745C122.781 144.15 124.676 142.663 125.988 140.51C126.309 141.098 126.685 141.654 127.11 142.169C128.334 143.6 129.844 144.7 131.266 145.901C132.647 147.068 133.996 148.258 134.996 149.809C136.552 152.225 136.28 155.163 134.312 157.087C132.018 159.328 128.096 158.846 126.378 156.114C126.257 155.924 126.135 155.735 125.986 155.505Z" fill="#D12828"/>
</g>
<defs>
<filter id="filter0_d_0_1095" x="0" y="0" width="152" height="206" filterUnits="userSpaceOnUse" color-interpolation-filters="sRGB">
<feFlood flood-opacity="0" result="BackgroundImageFix"/>
<feColorMatrix in="SourceAlpha" type="matrix" values="0 0 0 0 0 0 0 0 0 0 0 0 0 0 0 0 0 0 127 0" result="hardAlpha"/>
<feOffset dy="4"/>
<feGaussianBlur stdDeviation="2"/>
<feComposite in2="hardAlpha" operator="out"/>
<feColorMatrix type="matrix" values="0 0 0 0 0 0 0 0 0 0 0 0 0 0 0 0 0 0 0.25 0"/>
<feBlend mode="normal" in2="BackgroundImageFix" result="effect1_dropShadow_0_1095"/>
<feBlend mode="normal" in="SourceGraphic" in2="effect1_dropShadow_0_1095" result="shape"/>
</filter>
<filter id="filter1_d_0_1095" x="0" y="0" width="152" height="206" filterUnits="userSpaceOnUse" color-interpolation-filters="sRGB">
<feFlood flood-opacity="0" result="BackgroundImageFix"/>
<feColorMatrix in="SourceAlpha" type="matrix" values="0 0 0 0 0 0 0 0 0 0 0 0 0 0 0 0 0 0 127 0" result="hardAlpha"/>
<feOffset dy="4"/>
<feGaussianBlur stdDeviation="2"/>
<feComposite in2="hardAlpha" operator="out"/>
<feColorMatrix type="matrix" values="0 0 0 0 0 0 0 0 0 0 0 0 0 0 0 0 0 0 0.25 0"/>
<feBlend mode="normal" in2="BackgroundImageFix" result="effect1_dropShadow_0_1095"/>
<feBlend mode="normal" in="SourceGraphic" in2="effect1_dropShadow_0_1095" result="shape"/>
</filter>
</defs>
</svg>
