<svg width="152" height="206" viewBox="0 0 152 206" fill="none" xmlns="http://www.w3.org/2000/svg">
<g filter="url(#filter0_d_0_1119)">
<g filter="url(#filter1_d_0_1119)">
<path d="M4 10C4 4.47715 8.47715 0 14 0H138C143.523 0 148 4.47715 148 10V188C148 193.523 143.523 198 138 198H14C8.47715 198 4 193.523 4 188V10Z" fill="white"/>
<path d="M4.5 10C4.5 4.75329 8.7533 0.5 14 0.5H138C143.247 0.5 147.5 4.75329 147.5 10V188C147.5 193.247 143.247 197.5 138 197.5H14C8.75329 197.5 4.5 193.247 4.5 188V10Z" stroke="#C5C5C5"/>
</g>
<path d="M26.0095 31.216C24.2015 31.216 22.8575 30.776 21.9775 29.896C21.0975 29 20.6255 27.728 20.5615 26.08H23.9935C24.0575 26.8 24.2495 27.344 24.5695 27.712C24.8895 28.08 25.3695 28.264 26.0095 28.264C26.3615 28.264 26.6655 28.216 26.9215 28.12C27.1935 28.008 27.4175 27.832 27.5935 27.592C27.7695 27.336 27.9055 27 28.0015 26.584C28.0975 26.152 28.1455 25.624 28.1455 25V14.2H31.5775V25C31.5775 27.192 31.1135 28.776 30.1855 29.752C29.2735 30.728 27.8815 31.216 26.0095 31.216Z" fill="#D12828"/>
<path d="M126.316 166.784C128.124 166.784 129.468 167.224 130.348 168.104C131.228 169 131.7 170.272 131.764 171.92L128.332 171.92C128.268 171.2 128.076 170.656 127.756 170.288C127.436 169.92 126.956 169.736 126.316 169.736C125.964 169.736 125.66 169.784 125.404 169.88C125.132 169.992 124.908 170.168 124.732 170.408C124.556 170.664 124.42 171 124.324 171.416C124.228 171.848 124.18 172.376 124.18 173L124.18 183.8L120.748 183.8L120.748 173C120.748 170.808 121.212 169.224 122.14 168.248C123.052 167.272 124.444 166.784 126.316 166.784Z" fill="#D12828"/>
<path d="M26.3397 42.4945C26.7319 41.7375 27.2767 41.0739 27.9383 40.5474C30.7491 38.2884 35.2332 39.8412 36.1382 43.372C36.6711 45.4569 36.0236 47.2001 34.775 48.7991C33.7652 50.0918 32.5485 51.1723 31.3335 52.2547C29.5449 53.8492 27.6496 55.3367 26.3379 57.4896C26.0166 56.9015 25.641 56.346 25.2162 55.8308C23.9915 54.3994 22.4817 53.2998 21.0598 52.0987C19.6788 50.9321 18.3298 49.7419 17.3298 48.1909C15.7738 45.7751 16.0456 42.8362 18.0136 40.9127C20.3076 38.6718 24.2304 39.1532 25.948 41.8853C26.0688 42.0757 26.1914 42.2642 26.3397 42.4945Z" fill="#D12828"/>
<path d="M125.986 155.505C125.594 156.262 125.049 156.926 124.388 157.452C121.577 159.711 117.093 158.158 116.188 154.628C115.655 152.543 116.302 150.8 117.551 149.201C118.561 147.908 119.777 146.827 120.992 145.745C122.781 144.15 124.676 142.663 125.988 140.51C126.309 141.098 126.685 141.654 127.11 142.169C128.334 143.6 129.844 144.7 131.266 145.901C132.647 147.068 133.996 148.258 134.996 149.809C136.552 152.225 136.28 155.163 134.312 157.087C132.018 159.328 128.096 158.846 126.378 156.114C126.257 155.924 126.135 155.735 125.986 155.505Z" fill="#D12828"/>
</g>
<defs>
<filter id="filter0_d_0_1119" x="0" y="0" width="152" height="206" filterUnits="userSpaceOnUse" color-interpolation-filters="sRGB">
<feFlood flood-opacity="0" result="BackgroundImageFix"/>
<feColorMatrix in="SourceAlpha" type="matrix" values="0 0 0 0 0 0 0 0 0 0 0 0 0 0 0 0 0 0 127 0" result="hardAlpha"/>
<feOffset dy="4"/>
<feGaussianBlur stdDeviation="2"/>
<feComposite in2="hardAlpha" operator="out"/>
<feColorMatrix type="matrix" values="0 0 0 0 0 0 0 0 0 0 0 0 0 0 0 0 0 0 0.25 0"/>
<feBlend mode="normal" in2="BackgroundImageFix" result="effect1_dropShadow_0_1119"/>
<feBlend mode="normal" in="SourceGraphic" in2="effect1_dropShadow_0_1119" result="shape"/>
</filter>
<filter id="filter1_d_0_1119" x="0" y="0" width="152" height="206" filterUnits="userSpaceOnUse" color-interpolation-filters="sRGB">
<feFlood flood-opacity="0" result="BackgroundImageFix"/>
<feColorMatrix in="SourceAlpha" type="matrix" values="0 0 0 0 0 0 0 0 0 0 0 0 0 0 0 0 0 0 127 0" result="hardAlpha"/>
<feOffset dy="4"/>
<feGaussianBlur stdDeviation="2"/>
<feComposite in2="hardAlpha" operator="out"/>
<feColorMatrix type="matrix" values="0 0 0 0 0 0 0 0 0 0 0 0 0 0 0 0 0 0 0.25 0"/>
<feBlend mode="normal" in2="BackgroundImageFix" result="effect1_dropShadow_0_1119"/>
<feBlend mode="normal" in="SourceGraphic" in2="effect1_dropShadow_0_1119" result="shape"/>
</filter>
</defs>
</svg>
