<svg width="152" height="206" viewBox="0 0 152 206" fill="none" xmlns="http://www.w3.org/2000/svg">
<g filter="url(#filter0_d_0_1113)">
<g filter="url(#filter1_d_0_1113)">
<path d="M4 10C4 4.47715 8.47715 0 14 0H138C143.523 0 148 4.47715 148 10V188C148 193.523 143.523 198 138 198H14C8.47715 198 4 193.523 4 188V10Z" fill="white"/>
<path d="M4.5 10C4.5 4.75329 8.7533 0.5 14 0.5H138C143.247 0.5 147.5 4.75329 147.5 10V188C147.5 193.247 143.247 197.5 138 197.5H14C8.75329 197.5 4.5 193.247 4.5 188V10Z" stroke="#C5C5C5"/>
</g>
<path d="M15.4786 28.144H19.3186V17.632L15.6466 19.936V16.528L19.3186 14.2H22.7506V28.144H25.8706V31H15.4786V28.144Z" fill="#D12828"/>
<path d="M33.4259 31.216C32.4819 31.216 31.6579 31.088 30.9539 30.832C30.2499 30.576 29.6579 30.152 29.1779 29.56C28.7139 28.968 28.3619 28.2 28.1219 27.256C27.8819 26.296 27.7619 25.12 27.7619 23.728V21.328C27.7619 19.968 27.8819 18.824 28.1219 17.896C28.3619 16.952 28.7139 16.192 29.1779 15.616C29.6579 15.04 30.2499 14.624 30.9539 14.368C31.6579 14.112 32.4819 13.984 33.4259 13.984C34.3699 13.984 35.1939 14.112 35.8979 14.368C36.6019 14.624 37.1859 15.04 37.6499 15.616C38.1299 16.192 38.4899 16.952 38.7299 17.896C38.9699 18.824 39.0899 19.968 39.0899 21.328V23.728C39.0899 25.12 38.9699 26.296 38.7299 27.256C38.4899 28.2 38.1299 28.968 37.6499 29.56C37.1859 30.152 36.6019 30.576 35.8979 30.832C35.1939 31.088 34.3699 31.216 33.4259 31.216ZM33.4259 28.336C33.7939 28.336 34.1139 28.28 34.3859 28.168C34.6739 28.04 34.9059 27.808 35.0819 27.472C35.2739 27.136 35.4179 26.672 35.5139 26.08C35.6099 25.472 35.6579 24.688 35.6579 23.728V21.328C35.6579 20.4 35.6099 19.648 35.5139 19.072C35.4179 18.48 35.2739 18.024 35.0819 17.704C34.9059 17.368 34.6739 17.144 34.3859 17.032C34.1139 16.904 33.7939 16.84 33.4259 16.84C33.0579 16.84 32.7299 16.904 32.4419 17.032C32.1699 17.144 31.9379 17.368 31.7459 17.704C31.5699 18.024 31.4339 18.48 31.3379 19.072C31.2419 19.648 31.1939 20.4 31.1939 21.328V23.728C31.1939 24.688 31.2419 25.472 31.3379 26.08C31.4339 26.672 31.5699 27.136 31.7459 27.472C31.9379 27.808 32.1699 28.04 32.4419 28.168C32.7299 28.28 33.0579 28.336 33.4259 28.336Z" fill="#D12828"/>
<path d="M136.847 169.856L133.007 169.856L133.007 180.368L136.679 178.064L136.679 181.472L133.007 183.8L129.575 183.8L129.575 169.856L126.455 169.856L126.455 167L136.847 167L136.847 169.856Z" fill="#D12828"/>
<path d="M118.9 166.784C119.844 166.784 120.668 166.912 121.372 167.168C122.076 167.424 122.668 167.848 123.148 168.44C123.612 169.032 123.964 169.8 124.204 170.744C124.444 171.704 124.564 172.88 124.564 174.272L124.564 176.672C124.564 178.032 124.444 179.176 124.204 180.104C123.964 181.048 123.612 181.808 123.148 182.384C122.668 182.96 122.076 183.376 121.372 183.632C120.668 183.888 119.844 184.016 118.9 184.016C117.956 184.016 117.132 183.888 116.428 183.632C115.724 183.376 115.14 182.96 114.676 182.384C114.196 181.808 113.836 181.048 113.596 180.104C113.356 179.176 113.236 178.032 113.236 176.672L113.236 174.272C113.236 172.88 113.356 171.704 113.596 170.744C113.836 169.8 114.196 169.032 114.676 168.44C115.14 167.848 115.724 167.424 116.428 167.168C117.132 166.912 117.956 166.784 118.9 166.784ZM118.9 169.664C118.532 169.664 118.212 169.72 117.94 169.832C117.652 169.96 117.42 170.192 117.244 170.528C117.052 170.864 116.908 171.328 116.812 171.92C116.716 172.528 116.668 173.312 116.668 174.272L116.668 176.672C116.668 177.6 116.716 178.352 116.812 178.928C116.908 179.52 117.052 179.976 117.244 180.296C117.42 180.632 117.652 180.856 117.94 180.968C118.212 181.096 118.532 181.16 118.9 181.16C119.268 181.16 119.596 181.096 119.884 180.968C120.156 180.856 120.388 180.632 120.58 180.296C120.756 179.976 120.892 179.52 120.988 178.928C121.084 178.352 121.132 177.6 121.132 176.672L121.132 174.272C121.132 173.312 121.084 172.528 120.988 171.92C120.892 171.328 120.756 170.864 120.58 170.528C120.388 170.192 120.156 169.96 119.884 169.832C119.596 169.72 119.268 169.664 118.9 169.664Z" fill="#D12828"/>
<path d="M26.2942 59.4896C25.7423 58.442 25.2231 57.5045 24.6008 56.6009C22.9251 54.1653 20.8383 51.9383 17.7848 50.2125C17.3963 49.9933 16.9664 49.81 16.5566 49.6083C16.3831 49.5211 16.1694 49.453 16.4962 49.3019C20.954 47.2347 23.4921 44.1793 25.4921 40.8506C25.7498 40.422 25.9786 39.9855 26.2225 39.5534C26.2288 39.542 26.2527 39.535 26.3344 39.4896C28.4539 43.4006 31.1315 47.0339 36.3259 49.4346C31.1605 51.8633 28.4174 55.4678 26.2942 59.4896Z" fill="#D12828"/>
<path d="M125.968 158.51C125.416 157.462 124.897 156.525 124.275 155.621C122.599 153.186 120.512 150.959 117.459 149.233C117.07 149.014 116.64 148.83 116.231 148.629C116.057 148.541 115.843 148.473 116.17 148.322C120.628 146.255 123.166 143.2 125.166 139.871C125.424 139.442 125.653 139.006 125.897 138.574C125.903 138.562 125.927 138.555 126.008 138.51C128.128 142.421 130.806 146.054 136 148.455C130.835 150.884 128.092 154.488 125.968 158.51Z" fill="#D12828"/>
</g>
<defs>
<filter id="filter0_d_0_1113" x="0" y="0" width="152" height="206" filterUnits="userSpaceOnUse" color-interpolation-filters="sRGB">
<feFlood flood-opacity="0" result="BackgroundImageFix"/>
<feColorMatrix in="SourceAlpha" type="matrix" values="0 0 0 0 0 0 0 0 0 0 0 0 0 0 0 0 0 0 127 0" result="hardAlpha"/>
<feOffset dy="4"/>
<feGaussianBlur stdDeviation="2"/>
<feComposite in2="hardAlpha" operator="out"/>
<feColorMatrix type="matrix" values="0 0 0 0 0 0 0 0 0 0 0 0 0 0 0 0 0 0 0.25 0"/>
<feBlend mode="normal" in2="BackgroundImageFix" result="effect1_dropShadow_0_1113"/>
<feBlend mode="normal" in="SourceGraphic" in2="effect1_dropShadow_0_1113" result="shape"/>
</filter>
<filter id="filter1_d_0_1113" x="0" y="0" width="152" height="206" filterUnits="userSpaceOnUse" color-interpolation-filters="sRGB">
<feFlood flood-opacity="0" result="BackgroundImageFix"/>
<feColorMatrix in="SourceAlpha" type="matrix" values="0 0 0 0 0 0 0 0 0 0 0 0 0 0 0 0 0 0 127 0" result="hardAlpha"/>
<feOffset dy="4"/>
<feGaussianBlur stdDeviation="2"/>
<feComposite in2="hardAlpha" operator="out"/>
<feColorMatrix type="matrix" values="0 0 0 0 0 0 0 0 0 0 0 0 0 0 0 0 0 0 0.25 0"/>
<feBlend mode="normal" in2="BackgroundImageFix" result="effect1_dropShadow_0_1113"/>
<feBlend mode="normal" in="SourceGraphic" in2="effect1_dropShadow_0_1113" result="shape"/>
</filter>
</defs>
</svg>
