<svg width="152" height="206" viewBox="0 0 152 206" fill="none" xmlns="http://www.w3.org/2000/svg">
<g filter="url(#filter0_d_0_1017)">
<g filter="url(#filter1_d_0_1017)">
<path d="M4 10C4 4.47715 8.47715 0 14 0H138C143.523 0 148 4.47715 148 10V188C148 193.523 143.523 198 138 198H14C8.47715 198 4 193.523 4 188V10Z" fill="white"/>
<path d="M4.5 10C4.5 4.75329 8.7533 0.5 14 0.5H138C143.247 0.5 147.5 4.75329 147.5 10V188C147.5 193.247 143.247 197.5 138 197.5H14C8.75329 197.5 4.5 193.247 4.5 188V10Z" stroke="#C5C5C5"/>
</g>
<path d="M20.9043 28.816L26.5923 22.264C27.2163 21.544 27.6883 20.936 28.0083 20.44C28.3283 19.928 28.4883 19.44 28.4883 18.976C28.4883 18.304 28.3043 17.784 27.9363 17.416C27.5683 17.048 27.0723 16.864 26.4483 16.864C25.8243 16.864 25.3283 17.048 24.9603 17.416C24.5923 17.784 24.4083 18.304 24.4083 18.976H21.1443C21.1443 18.288 21.2723 17.648 21.5283 17.056C21.8003 16.448 22.1683 15.92 22.6323 15.472C23.1123 15.008 23.6723 14.648 24.3123 14.392C24.9683 14.12 25.6803 13.984 26.4483 13.984C27.2163 13.984 27.9203 14.12 28.5603 14.392C29.2163 14.648 29.7763 15.008 30.2403 15.472C30.7203 15.92 31.0883 16.448 31.3443 17.056C31.6163 17.648 31.7523 18.288 31.7523 18.976C31.7523 19.872 31.4803 20.744 30.9363 21.592C30.4083 22.424 29.7523 23.28 28.9683 24.16L25.3923 28.144H31.7523V31H20.9043V28.816Z" fill="#D12828"/>
<path d="M131.422 169.184L125.734 175.736C125.11 176.456 124.638 177.064 124.318 177.56C123.998 178.072 123.838 178.56 123.838 179.024C123.838 179.696 124.022 180.216 124.39 180.584C124.758 180.952 125.254 181.136 125.878 181.136C126.502 181.136 126.998 180.952 127.366 180.584C127.734 180.216 127.918 179.696 127.918 179.024L131.182 179.024C131.182 179.712 131.054 180.352 130.798 180.944C130.526 181.552 130.158 182.08 129.694 182.528C129.214 182.992 128.654 183.352 128.014 183.608C127.358 183.88 126.646 184.016 125.878 184.016C125.11 184.016 124.406 183.88 123.766 183.608C123.11 183.352 122.55 182.992 122.086 182.528C121.606 182.08 121.238 181.552 120.982 180.944C120.71 180.352 120.574 179.712 120.574 179.024C120.574 178.128 120.846 177.256 121.39 176.408C121.918 175.576 122.574 174.72 123.358 173.84L126.934 169.856L120.574 169.856L120.574 167L131.422 167L131.422 169.184Z" fill="#D12828"/>
<path d="M26.2942 59.4896C25.7423 58.442 25.2231 57.5045 24.6008 56.6009C22.9251 54.1653 20.8383 51.9383 17.7848 50.2125C17.3963 49.9933 16.9664 49.81 16.5566 49.6083C16.3831 49.5211 16.1694 49.453 16.4962 49.3019C20.954 47.2347 23.4921 44.1793 25.4921 40.8506C25.7498 40.422 25.9786 39.9855 26.2225 39.5534C26.2288 39.542 26.2527 39.535 26.3344 39.4896C28.4539 43.4006 31.1315 47.0339 36.3259 49.4346C31.1605 51.8633 28.4174 55.4678 26.2942 59.4896Z" fill="#D12828"/>
<path d="M125.968 158.51C125.416 157.462 124.897 156.525 124.275 155.621C122.599 153.186 120.512 150.959 117.459 149.233C117.07 149.014 116.64 148.83 116.231 148.629C116.057 148.541 115.843 148.473 116.17 148.322C120.628 146.255 123.166 143.2 125.166 139.871C125.424 139.442 125.653 139.006 125.897 138.574C125.903 138.562 125.927 138.555 126.008 138.51C128.128 142.421 130.806 146.054 136 148.455C130.835 150.884 128.092 154.488 125.968 158.51Z" fill="#D12828"/>
</g>
<defs>
<filter id="filter0_d_0_1017" x="0" y="0" width="152" height="206" filterUnits="userSpaceOnUse" color-interpolation-filters="sRGB">
<feFlood flood-opacity="0" result="BackgroundImageFix"/>
<feColorMatrix in="SourceAlpha" type="matrix" values="0 0 0 0 0 0 0 0 0 0 0 0 0 0 0 0 0 0 127 0" result="hardAlpha"/>
<feOffset dy="4"/>
<feGaussianBlur stdDeviation="2"/>
<feComposite in2="hardAlpha" operator="out"/>
<feColorMatrix type="matrix" values="0 0 0 0 0 0 0 0 0 0 0 0 0 0 0 0 0 0 0.25 0"/>
<feBlend mode="normal" in2="BackgroundImageFix" result="effect1_dropShadow_0_1017"/>
<feBlend mode="normal" in="SourceGraphic" in2="effect1_dropShadow_0_1017" result="shape"/>
</filter>
<filter id="filter1_d_0_1017" x="0" y="0" width="152" height="206" filterUnits="userSpaceOnUse" color-interpolation-filters="sRGB">
<feFlood flood-opacity="0" result="BackgroundImageFix"/>
<feColorMatrix in="SourceAlpha" type="matrix" values="0 0 0 0 0 0 0 0 0 0 0 0 0 0 0 0 0 0 127 0" result="hardAlpha"/>
<feOffset dy="4"/>
<feGaussianBlur stdDeviation="2"/>
<feComposite in2="hardAlpha" operator="out"/>
<feColorMatrix type="matrix" values="0 0 0 0 0 0 0 0 0 0 0 0 0 0 0 0 0 0 0.25 0"/>
<feBlend mode="normal" in2="BackgroundImageFix" result="effect1_dropShadow_0_1017"/>
<feBlend mode="normal" in="SourceGraphic" in2="effect1_dropShadow_0_1017" result="shape"/>
</filter>
</defs>
</svg>
