<svg width="152" height="206" viewBox="0 0 152 206" fill="none" xmlns="http://www.w3.org/2000/svg">
<g filter="url(#filter0_d_0_1029)">
<g filter="url(#filter1_d_0_1029)">
<path d="M4 10C4 4.47715 8.47715 0 14 0H138C143.523 0 148 4.47715 148 10V188C148 193.523 143.523 198 138 198H14C8.47715 198 4 193.523 4 188V10Z" fill="white"/>
<path d="M4.5 10C4.5 4.75329 8.7533 0.5 14 0.5H138C143.247 0.5 147.5 4.75329 147.5 10V188C147.5 193.247 143.247 197.5 138 197.5H14C8.75329 197.5 4.5 193.247 4.5 188V10Z" stroke="#C5C5C5"/>
</g>
<path d="M26.0883 31.216C25.2243 31.216 24.4483 31.096 23.7603 30.856C23.0723 30.6 22.4803 30.256 21.9843 29.824C21.5043 29.376 21.1363 28.864 20.8803 28.288C20.6243 27.696 20.4963 27.064 20.4963 26.392H23.8563C23.8563 26.936 24.0563 27.4 24.4563 27.784C24.8563 28.152 25.4003 28.336 26.0883 28.336C26.7763 28.336 27.3203 28.136 27.7203 27.736C28.1203 27.336 28.3203 26.8 28.3203 26.128C28.3203 25.392 28.0963 24.824 27.6483 24.424C27.2163 24.008 26.5363 23.8 25.6083 23.8H24.1443V20.92H25.6083C26.4723 20.92 27.0963 20.744 27.4803 20.392C27.8803 20.04 28.0803 19.512 28.0803 18.808C28.0803 18.2 27.9043 17.728 27.5523 17.392C27.2003 17.04 26.7123 16.864 26.0883 16.864C25.4643 16.864 24.9763 17.024 24.6243 17.344C24.2723 17.664 24.0963 18.08 24.0963 18.592H20.7363C20.7363 17.968 20.8483 17.376 21.0723 16.816C21.3123 16.256 21.6563 15.768 22.1043 15.352C22.5683 14.92 23.1283 14.584 23.7843 14.344C24.4563 14.104 25.2243 13.984 26.0883 13.984C26.9043 13.984 27.6403 14.112 28.2963 14.368C28.9523 14.608 29.5123 14.936 29.9763 15.352C30.4563 15.768 30.8163 16.264 31.0563 16.84C31.3123 17.416 31.4403 18.024 31.4403 18.664C31.4403 19.144 31.3763 19.576 31.2483 19.96C31.1203 20.344 30.9523 20.688 30.7443 20.992C30.5523 21.28 30.3203 21.528 30.0483 21.736C29.7923 21.944 29.5203 22.12 29.2323 22.264C30.0003 22.584 30.6003 23.088 31.0323 23.776C31.4643 24.448 31.6803 25.288 31.6803 26.296C31.6803 27 31.5523 27.648 31.2963 28.24C31.0403 28.832 30.6643 29.352 30.1683 29.8C29.6883 30.248 29.1043 30.6 28.4163 30.856C27.7283 31.096 26.9523 31.216 26.0883 31.216Z" fill="#D12828"/>
<path d="M126.238 166.784C127.102 166.784 127.878 166.904 128.566 167.144C129.254 167.4 129.846 167.744 130.342 168.176C130.822 168.624 131.19 169.136 131.446 169.712C131.702 170.304 131.83 170.936 131.83 171.608L128.47 171.608C128.47 171.064 128.27 170.6 127.87 170.216C127.47 169.848 126.926 169.664 126.238 169.664C125.55 169.664 125.006 169.864 124.606 170.264C124.206 170.664 124.006 171.2 124.006 171.872C124.006 172.608 124.23 173.176 124.678 173.576C125.11 173.992 125.79 174.2 126.718 174.2L128.182 174.2L128.182 177.08L126.718 177.08C125.854 177.08 125.23 177.256 124.846 177.608C124.446 177.96 124.246 178.488 124.246 179.192C124.246 179.8 124.422 180.272 124.774 180.608C125.126 180.96 125.614 181.136 126.238 181.136C126.862 181.136 127.35 180.976 127.702 180.656C128.054 180.336 128.23 179.92 128.23 179.408L131.59 179.408C131.59 180.032 131.478 180.624 131.254 181.184C131.014 181.744 130.67 182.232 130.222 182.648C129.758 183.08 129.198 183.416 128.542 183.656C127.87 183.896 127.102 184.016 126.238 184.016C125.422 184.016 124.686 183.888 124.03 183.632C123.374 183.392 122.814 183.064 122.35 182.648C121.87 182.232 121.51 181.736 121.27 181.16C121.014 180.584 120.886 179.976 120.886 179.336C120.886 178.856 120.95 178.424 121.078 178.04C121.206 177.656 121.374 177.312 121.582 177.008C121.774 176.72 122.006 176.472 122.278 176.264C122.534 176.056 122.806 175.88 123.094 175.736C122.326 175.416 121.726 174.912 121.294 174.224C120.862 173.552 120.646 172.712 120.646 171.704C120.646 171 120.774 170.352 121.03 169.76C121.286 169.168 121.662 168.648 122.158 168.2C122.638 167.752 123.222 167.4 123.91 167.144C124.598 166.904 125.374 166.784 126.238 166.784Z" fill="#D12828"/>
<path d="M26.2942 59.4896C25.7423 58.442 25.2231 57.5045 24.6008 56.6009C22.9251 54.1653 20.8383 51.9383 17.7848 50.2125C17.3963 49.9933 16.9664 49.81 16.5566 49.6083C16.3831 49.5211 16.1694 49.453 16.4962 49.3019C20.954 47.2347 23.4921 44.1793 25.4921 40.8506C25.7498 40.422 25.9786 39.9855 26.2225 39.5534C26.2288 39.542 26.2527 39.535 26.3344 39.4896C28.4539 43.4006 31.1315 47.0339 36.3259 49.4346C31.1605 51.8633 28.4174 55.4678 26.2942 59.4896Z" fill="#D12828"/>
<path d="M125.968 158.51C125.416 157.462 124.897 156.525 124.275 155.621C122.599 153.186 120.512 150.959 117.459 149.233C117.07 149.014 116.64 148.83 116.231 148.629C116.057 148.541 115.843 148.473 116.17 148.322C120.628 146.255 123.166 143.2 125.166 139.871C125.424 139.442 125.653 139.006 125.897 138.574C125.903 138.562 125.927 138.555 126.008 138.51C128.128 142.421 130.806 146.054 136 148.455C130.835 150.884 128.092 154.488 125.968 158.51Z" fill="#D12828"/>
</g>
<defs>
<filter id="filter0_d_0_1029" x="0" y="0" width="152" height="206" filterUnits="userSpaceOnUse" color-interpolation-filters="sRGB">
<feFlood flood-opacity="0" result="BackgroundImageFix"/>
<feColorMatrix in="SourceAlpha" type="matrix" values="0 0 0 0 0 0 0 0 0 0 0 0 0 0 0 0 0 0 127 0" result="hardAlpha"/>
<feOffset dy="4"/>
<feGaussianBlur stdDeviation="2"/>
<feComposite in2="hardAlpha" operator="out"/>
<feColorMatrix type="matrix" values="0 0 0 0 0 0 0 0 0 0 0 0 0 0 0 0 0 0 0.25 0"/>
<feBlend mode="normal" in2="BackgroundImageFix" result="effect1_dropShadow_0_1029"/>
<feBlend mode="normal" in="SourceGraphic" in2="effect1_dropShadow_0_1029" result="shape"/>
</filter>
<filter id="filter1_d_0_1029" x="0" y="0" width="152" height="206" filterUnits="userSpaceOnUse" color-interpolation-filters="sRGB">
<feFlood flood-opacity="0" result="BackgroundImageFix"/>
<feColorMatrix in="SourceAlpha" type="matrix" values="0 0 0 0 0 0 0 0 0 0 0 0 0 0 0 0 0 0 127 0" result="hardAlpha"/>
<feOffset dy="4"/>
<feGaussianBlur stdDeviation="2"/>
<feComposite in2="hardAlpha" operator="out"/>
<feColorMatrix type="matrix" values="0 0 0 0 0 0 0 0 0 0 0 0 0 0 0 0 0 0 0.25 0"/>
<feBlend mode="normal" in2="BackgroundImageFix" result="effect1_dropShadow_0_1029"/>
<feBlend mode="normal" in="SourceGraphic" in2="effect1_dropShadow_0_1029" result="shape"/>
</filter>
</defs>
</svg>
