<svg width="152" height="206" viewBox="0 0 152 206" fill="none" xmlns="http://www.w3.org/2000/svg">
<g filter="url(#filter0_d_0_1065)">
<g filter="url(#filter1_d_0_1065)">
<path d="M4 10C4 4.47715 8.47715 0 14 0H138C143.523 0 148 4.47715 148 10V188C148 193.523 143.523 198 138 198H14C8.47715 198 4 193.523 4 188V10Z" fill="white"/>
<path d="M4.5 10C4.5 4.75329 8.7533 0.5 14 0.5H138C143.247 0.5 147.5 4.75329 147.5 10V188C147.5 193.247 143.247 197.5 138 197.5H14C8.75329 197.5 4.5 193.247 4.5 188V10Z" stroke="#C5C5C5"/>
</g>
<path d="M26.3283 31.216C24.5523 31.216 23.1763 30.728 22.2003 29.752C21.2243 28.76 20.7363 27.28 20.7363 25.312V20.968C20.7363 19.704 20.8483 18.632 21.0723 17.752C21.3123 16.856 21.6643 16.136 22.1283 15.592C22.6083 15.032 23.1923 14.624 23.8803 14.368C24.5843 14.112 25.4003 13.984 26.3283 13.984C27.7683 13.984 28.9363 14.296 29.8323 14.92C30.7283 15.544 31.3283 16.592 31.6323 18.064H28.1283C27.9843 17.584 27.7523 17.264 27.4323 17.104C27.1283 16.928 26.7603 16.84 26.3283 16.84C25.9443 16.84 25.6083 16.888 25.3203 16.984C25.0323 17.08 24.7843 17.264 24.5763 17.536C24.3683 17.792 24.2083 18.16 24.0963 18.64C24.0003 19.104 23.9523 19.704 23.9523 20.44V20.992C24.3043 20.672 24.7283 20.424 25.2243 20.248C25.7363 20.072 26.3523 19.984 27.0723 19.984C27.7603 19.984 28.4003 20.104 28.9923 20.344C29.5843 20.584 30.0963 20.936 30.5283 21.4C30.9603 21.848 31.2963 22.4 31.5363 23.056C31.7923 23.696 31.9203 24.416 31.9203 25.216V25.984C31.9203 27.6 31.4243 28.88 30.4323 29.824C29.4563 30.752 28.0883 31.216 26.3283 31.216ZM26.3283 28.336C27.0163 28.336 27.5443 28.144 27.9123 27.76C28.2963 27.36 28.4883 26.768 28.4883 25.984V25.216C28.4883 24.416 28.2963 23.824 27.9123 23.44C27.5443 23.04 27.0163 22.84 26.3283 22.84C25.6403 22.84 25.1043 23.032 24.7203 23.416C24.3523 23.8 24.1683 24.352 24.1683 25.072V25.984C24.1683 26.768 24.3523 27.36 24.7203 27.76C25.1043 28.144 25.6403 28.336 26.3283 28.336Z" fill="#D12828"/>
<path d="M125.998 166.784C127.774 166.784 129.15 167.272 130.126 168.248C131.102 169.24 131.59 170.72 131.59 172.688L131.59 177.032C131.59 178.296 131.478 179.368 131.254 180.248C131.014 181.144 130.662 181.864 130.198 182.408C129.718 182.968 129.134 183.376 128.446 183.632C127.742 183.888 126.926 184.016 125.998 184.016C124.558 184.016 123.39 183.704 122.494 183.08C121.598 182.456 120.998 181.408 120.694 179.936L124.198 179.936C124.342 180.416 124.574 180.736 124.894 180.896C125.198 181.072 125.566 181.16 125.998 181.16C126.382 181.16 126.718 181.112 127.006 181.016C127.294 180.92 127.542 180.736 127.75 180.464C127.958 180.208 128.118 179.84 128.23 179.36C128.326 178.896 128.374 178.296 128.374 177.56L128.374 177.008C128.022 177.328 127.598 177.576 127.102 177.752C126.59 177.928 125.974 178.016 125.254 178.016C124.566 178.016 123.926 177.896 123.334 177.656C122.742 177.416 122.23 177.064 121.798 176.6C121.366 176.152 121.03 175.6 120.79 174.944C120.534 174.304 120.406 173.584 120.406 172.784L120.406 172.016C120.406 170.4 120.902 169.12 121.894 168.176C122.87 167.248 124.238 166.784 125.998 166.784ZM125.998 169.664C125.31 169.664 124.782 169.856 124.414 170.24C124.03 170.64 123.838 171.232 123.838 172.016L123.838 172.784C123.838 173.584 124.03 174.176 124.414 174.56C124.782 174.96 125.31 175.16 125.998 175.16C126.686 175.16 127.222 174.968 127.606 174.584C127.974 174.2 128.158 173.648 128.158 172.928L128.158 172.016C128.158 171.232 127.974 170.64 127.606 170.24C127.222 169.856 126.686 169.664 125.998 169.664Z" fill="#D12828"/>
<path d="M26.2942 59.4896C25.7423 58.442 25.2231 57.5045 24.6008 56.6009C22.9251 54.1653 20.8383 51.9383 17.7848 50.2125C17.3963 49.9933 16.9664 49.81 16.5566 49.6083C16.3831 49.5211 16.1694 49.453 16.4962 49.3019C20.954 47.2347 23.4921 44.1793 25.4921 40.8506C25.7498 40.422 25.9786 39.9855 26.2225 39.5534C26.2288 39.542 26.2527 39.535 26.3344 39.4896C28.4539 43.4006 31.1315 47.0339 36.3259 49.4346C31.1605 51.8633 28.4174 55.4678 26.2942 59.4896Z" fill="#D12828"/>
<path d="M125.968 158.51C125.416 157.462 124.897 156.525 124.275 155.621C122.599 153.186 120.512 150.959 117.459 149.233C117.07 149.014 116.64 148.83 116.231 148.629C116.057 148.541 115.843 148.473 116.17 148.322C120.628 146.255 123.166 143.2 125.166 139.871C125.424 139.442 125.653 139.006 125.897 138.574C125.903 138.562 125.927 138.555 126.008 138.51C128.128 142.421 130.806 146.054 136 148.455C130.835 150.884 128.092 154.488 125.968 158.51Z" fill="#D12828"/>
</g>
<defs>
<filter id="filter0_d_0_1065" x="0" y="0" width="152" height="206" filterUnits="userSpaceOnUse" color-interpolation-filters="sRGB">
<feFlood flood-opacity="0" result="BackgroundImageFix"/>
<feColorMatrix in="SourceAlpha" type="matrix" values="0 0 0 0 0 0 0 0 0 0 0 0 0 0 0 0 0 0 127 0" result="hardAlpha"/>
<feOffset dy="4"/>
<feGaussianBlur stdDeviation="2"/>
<feComposite in2="hardAlpha" operator="out"/>
<feColorMatrix type="matrix" values="0 0 0 0 0 0 0 0 0 0 0 0 0 0 0 0 0 0 0.25 0"/>
<feBlend mode="normal" in2="BackgroundImageFix" result="effect1_dropShadow_0_1065"/>
<feBlend mode="normal" in="SourceGraphic" in2="effect1_dropShadow_0_1065" result="shape"/>
</filter>
<filter id="filter1_d_0_1065" x="0" y="0" width="152" height="206" filterUnits="userSpaceOnUse" color-interpolation-filters="sRGB">
<feFlood flood-opacity="0" result="BackgroundImageFix"/>
<feColorMatrix in="SourceAlpha" type="matrix" values="0 0 0 0 0 0 0 0 0 0 0 0 0 0 0 0 0 0 127 0" result="hardAlpha"/>
<feOffset dy="4"/>
<feGaussianBlur stdDeviation="2"/>
<feComposite in2="hardAlpha" operator="out"/>
<feColorMatrix type="matrix" values="0 0 0 0 0 0 0 0 0 0 0 0 0 0 0 0 0 0 0.25 0"/>
<feBlend mode="normal" in2="BackgroundImageFix" result="effect1_dropShadow_0_1065"/>
<feBlend mode="normal" in="SourceGraphic" in2="effect1_dropShadow_0_1065" result="shape"/>
</filter>
</defs>
</svg>
