<svg width="152" height="206" viewBox="0 0 152 206" fill="none" xmlns="http://www.w3.org/2000/svg">
<g filter="url(#filter0_d_0_1137)">
<g filter="url(#filter1_d_0_1137)">
<path d="M4 10C4 4.47715 8.47715 0 14 0H138C143.523 0 148 4.47715 148 10V188C148 193.523 143.523 198 138 198H14C8.47715 198 4 193.523 4 188V10Z" fill="white"/>
<path d="M4.5 10C4.5 4.75329 8.7533 0.5 14 0.5H138C143.247 0.5 147.5 4.75329 147.5 10V188C147.5 193.247 143.247 197.5 138 197.5H14C8.75329 197.5 4.5 193.247 4.5 188V10Z" stroke="#C5C5C5"/>
</g>
<path d="M30.3309 30.304C29.8349 30.624 29.2829 30.856 28.6749 31C28.0669 31.144 27.4109 31.216 26.7069 31.216C24.6429 31.216 23.0109 30.576 21.8109 29.296C20.6269 28 20.0349 26.016 20.0349 23.344V21.424C20.0349 18.976 20.6269 17.128 21.8109 15.88C23.0109 14.616 24.6429 13.984 26.7069 13.984C28.7709 13.984 30.3949 14.616 31.5789 15.88C32.7789 17.128 33.3789 18.976 33.3789 21.424V23.344C33.3789 24.416 33.2749 25.376 33.0669 26.224C32.8749 27.056 32.5949 27.784 32.2269 28.408L33.8109 30.016L31.9389 31.888L30.3309 30.304ZM26.7069 28.264C26.9469 28.264 27.1709 28.24 27.3789 28.192C27.6029 28.144 27.8029 28.064 27.9789 27.952L26.2749 26.224L28.1709 24.352L29.6349 25.84C29.8429 25.2 29.9469 24.368 29.9469 23.344V21.424C29.9469 19.808 29.6589 18.656 29.0829 17.968C28.5069 17.28 27.7149 16.936 26.7069 16.936C25.6989 16.936 24.9069 17.28 24.3309 17.968C23.7549 18.656 23.4669 19.808 23.4669 21.424V23.344C23.4669 24.272 23.5389 25.056 23.6829 25.696C23.8429 26.32 24.0589 26.824 24.3309 27.208C24.6029 27.592 24.9389 27.864 25.3389 28.024C25.7389 28.184 26.1949 28.264 26.7069 28.264Z" fill="#D12828"/>
<path d="M121.995 167.696C122.491 167.376 123.043 167.144 123.651 167C124.259 166.856 124.915 166.784 125.619 166.784C127.683 166.784 129.315 167.424 130.515 168.704C131.699 170 132.291 171.984 132.291 174.656L132.291 176.576C132.291 179.024 131.699 180.872 130.515 182.12C129.315 183.384 127.683 184.016 125.619 184.016C123.555 184.016 121.931 183.384 120.747 182.12C119.547 180.872 118.947 179.024 118.947 176.576L118.947 174.656C118.947 173.584 119.051 172.624 119.259 171.776C119.451 170.944 119.731 170.216 120.099 169.592L118.515 167.984L120.387 166.112L121.995 167.696ZM125.619 169.736C125.379 169.736 125.155 169.76 124.947 169.808C124.723 169.856 124.523 169.936 124.347 170.048L126.051 171.776L124.155 173.648L122.691 172.16C122.483 172.8 122.379 173.632 122.379 174.656L122.379 176.576C122.379 178.192 122.667 179.344 123.243 180.032C123.819 180.72 124.611 181.064 125.619 181.064C126.627 181.064 127.419 180.72 127.995 180.032C128.571 179.344 128.859 178.192 128.859 176.576L128.859 174.656C128.859 173.728 128.787 172.944 128.643 172.304C128.483 171.68 128.267 171.176 127.995 170.792C127.723 170.408 127.387 170.136 126.987 169.976C126.587 169.816 126.131 169.736 125.619 169.736Z" fill="#D12828"/>
<path d="M26.2942 59.4896C25.7423 58.442 25.2231 57.5045 24.6008 56.6009C22.9251 54.1653 20.8383 51.9383 17.7848 50.2125C17.3963 49.9933 16.9664 49.81 16.5566 49.6083C16.3831 49.5211 16.1694 49.453 16.4962 49.3019C20.954 47.2347 23.4921 44.1793 25.4921 40.8506C25.7498 40.422 25.9786 39.9855 26.2225 39.5534C26.2288 39.542 26.2527 39.535 26.3344 39.4896C28.4539 43.4006 31.1315 47.0339 36.3259 49.4346C31.1605 51.8633 28.4174 55.4678 26.2942 59.4896Z" fill="#D12828"/>
<path d="M125.968 158.51C125.416 157.462 124.897 156.525 124.275 155.621C122.599 153.186 120.512 150.959 117.459 149.233C117.07 149.014 116.64 148.83 116.231 148.629C116.057 148.541 115.843 148.473 116.17 148.322C120.628 146.255 123.166 143.2 125.166 139.871C125.424 139.442 125.653 139.006 125.897 138.574C125.903 138.562 125.927 138.555 126.008 138.51C128.128 142.421 130.806 146.054 136 148.455C130.835 150.884 128.092 154.488 125.968 158.51Z" fill="#D12828"/>
</g>
<defs>
<filter id="filter0_d_0_1137" x="0" y="0" width="152" height="206" filterUnits="userSpaceOnUse" color-interpolation-filters="sRGB">
<feFlood flood-opacity="0" result="BackgroundImageFix"/>
<feColorMatrix in="SourceAlpha" type="matrix" values="0 0 0 0 0 0 0 0 0 0 0 0 0 0 0 0 0 0 127 0" result="hardAlpha"/>
<feOffset dy="4"/>
<feGaussianBlur stdDeviation="2"/>
<feComposite in2="hardAlpha" operator="out"/>
<feColorMatrix type="matrix" values="0 0 0 0 0 0 0 0 0 0 0 0 0 0 0 0 0 0 0.25 0"/>
<feBlend mode="normal" in2="BackgroundImageFix" result="effect1_dropShadow_0_1137"/>
<feBlend mode="normal" in="SourceGraphic" in2="effect1_dropShadow_0_1137" result="shape"/>
</filter>
<filter id="filter1_d_0_1137" x="0" y="0" width="152" height="206" filterUnits="userSpaceOnUse" color-interpolation-filters="sRGB">
<feFlood flood-opacity="0" result="BackgroundImageFix"/>
<feColorMatrix in="SourceAlpha" type="matrix" values="0 0 0 0 0 0 0 0 0 0 0 0 0 0 0 0 0 0 127 0" result="hardAlpha"/>
<feOffset dy="4"/>
<feGaussianBlur stdDeviation="2"/>
<feComposite in2="hardAlpha" operator="out"/>
<feColorMatrix type="matrix" values="0 0 0 0 0 0 0 0 0 0 0 0 0 0 0 0 0 0 0.25 0"/>
<feBlend mode="normal" in2="BackgroundImageFix" result="effect1_dropShadow_0_1137"/>
<feBlend mode="normal" in="SourceGraphic" in2="effect1_dropShadow_0_1137" result="shape"/>
</filter>
</defs>
</svg>
